<svg id="svg" version="1.1" xmlns="http://www.w3.org/2000/svg" xmlns:xlink="http://www.w3.org/1999/xlink" width="400" height="400" viewBox="0, 0, 400,400"><g id="svgg"><path id="path0" d="M310.576 88.835 C 309.953 89.734,308.668 91.003,307.721 91.654 C 306.775 92.305,306.000 92.974,306.000 93.140 C 306.000 93.305,305.235 94.175,304.300 95.072 C 300.030 99.168,298.044 100.815,296.194 101.790 C 293.646 103.134,290.217 105.280,289.306 106.102 C 288.918 106.452,287.598 107.113,286.374 107.571 C 285.149 108.028,283.619 108.958,282.974 109.638 C 281.596 111.088,279.697 112.128,277.198 112.800 C 276.209 113.066,273.690 114.106,271.600 115.112 C 269.510 116.117,266.450 117.429,264.800 118.027 C 259.230 120.047,256.386 121.191,255.491 121.772 C 255.001 122.090,253.258 122.720,251.617 123.173 C 246.823 124.494,246.565 125.227,250.275 126.984 C 251.535 127.580,253.053 128.458,253.650 128.934 C 254.247 129.410,255.866 130.430,257.247 131.200 C 258.628 131.970,260.848 133.610,262.179 134.844 C 263.511 136.078,265.144 137.366,265.809 137.707 C 266.475 138.048,267.809 139.049,268.775 139.932 C 272.476 143.315,274.221 143.459,277.661 140.669 C 278.837 139.714,280.700 138.593,281.800 138.177 C 282.900 137.762,284.922 136.427,286.294 135.211 C 287.666 133.995,289.541 132.370,290.462 131.600 C 291.382 130.830,292.473 129.631,292.886 128.935 C 293.315 128.213,294.399 127.313,295.413 126.836 C 296.693 126.234,297.352 125.609,297.776 124.597 C 298.098 123.824,299.136 122.299,300.081 121.207 C 301.027 120.115,302.520 117.969,303.400 116.437 C 304.280 114.906,305.590 112.665,306.311 111.458 C 307.032 110.251,307.997 107.764,308.454 105.932 C 308.912 104.099,309.600 102.240,309.983 101.800 C 311.454 100.113,314.091 88.830,313.325 87.500 C 312.883 86.730,311.604 87.351,310.576 88.835 M115.148 90.955 C 114.420 92.552,115.344 101.125,116.728 105.600 C 117.373 107.690,118.025 110.137,118.175 111.037 C 118.646 113.851,125.840 125.958,127.519 126.761 C 128.025 127.003,128.669 127.749,128.951 128.419 C 129.296 129.240,130.562 130.365,132.832 131.866 C 136.753 134.461,140.547 137.992,141.603 140.029 C 142.539 141.835,142.466 135.379,142.406 210.408 C 142.353 276.846,142.332 275.798,143.709 276.235 C 144.169 276.381,145.227 276.994,146.061 277.598 L 147.576 278.696 158.003 278.765 L 168.430 278.835 169.224 277.038 C 170.006 275.272,170.019 274.249,170.011 215.592 C 170.005 177.620,170.144 155.679,170.392 155.215 C 171.224 153.661,174.360 152.262,175.952 152.735 C 176.749 152.971,178.660 153.273,180.200 153.406 C 184.367 153.765,188.237 154.373,191.600 155.196 C 193.250 155.600,196.490 156.119,198.800 156.350 C 202.784 156.747,205.814 157.213,213.600 158.626 C 220.338 159.848,221.165 160.057,222.076 160.768 C 222.584 161.165,223.450 161.631,224.000 161.803 C 224.550 161.976,225.630 162.513,226.400 162.997 C 227.170 163.481,228.520 164.111,229.400 164.396 C 231.385 165.039,234.471 166.665,236.660 168.220 C 237.573 168.869,238.833 169.715,239.460 170.100 C 241.437 171.315,243.330 172.787,245.539 174.826 C 246.715 175.912,247.824 176.800,248.003 176.800 C 248.454 176.800,253.591 183.058,254.289 184.458 C 254.602 185.086,255.027 185.600,255.233 185.600 C 255.439 185.600,256.316 187.085,257.182 188.900 C 258.048 190.715,259.413 193.280,260.215 194.600 C 261.030 195.941,261.905 198.095,262.198 199.482 C 262.486 200.847,263.185 203.367,263.752 205.082 C 267.632 216.835,265.723 234.943,259.363 246.726 C 258.376 248.555,257.203 250.985,256.758 252.126 C 256.312 253.267,255.175 255.010,254.230 256.000 C 253.285 256.990,251.969 258.610,251.304 259.600 C 249.528 262.247,239.857 271.853,238.030 272.785 C 237.165 273.226,235.402 274.465,234.114 275.537 C 232.653 276.753,230.796 277.828,229.185 278.392 C 227.763 278.889,225.992 279.769,225.250 280.348 C 224.507 280.927,223.465 281.735,222.935 282.144 C 222.406 282.553,220.313 283.391,218.286 284.007 C 216.259 284.624,213.340 285.608,211.800 286.194 C 207.271 287.919,205.459 288.312,199.882 288.781 C 196.977 289.026,193.610 289.405,192.400 289.623 C 178.648 292.110,148.718 292.216,138.200 289.815 C 136.880 289.513,133.141 288.887,129.890 288.422 C 123.576 287.520,123.009 287.342,117.278 284.467 C 108.193 279.910,105.046 275.489,105.724 268.233 C 106.178 263.372,110.355 257.731,115.735 254.712 C 117.311 253.828,119.506 252.414,120.613 251.571 C 121.925 250.571,123.248 249.943,124.413 249.766 C 126.042 249.518,127.131 248.985,130.905 246.590 C 133.302 245.070,133.981 243.548,133.722 240.278 C 133.362 235.729,131.936 235.057,127.000 237.112 C 124.263 238.251,120.403 239.490,116.703 240.416 C 114.853 240.879,112.936 241.676,111.943 242.395 C 111.028 243.058,110.066 243.600,109.804 243.600 C 109.543 243.600,108.715 244.052,107.964 244.605 C 107.214 245.158,105.301 246.463,103.713 247.505 C 99.342 250.374,92.126 257.669,91.810 259.540 C 91.559 261.029,91.188 261.745,88.095 266.721 L 86.391 269.463 86.308 276.444 C 86.226 283.389,86.836 286.390,88.333 286.402 C 88.480 286.403,89.320 287.409,90.200 288.637 C 92.225 291.461,98.842 297.499,100.298 297.849 C 100.904 297.995,102.210 298.518,103.200 299.012 C 104.190 299.506,105.630 300.097,106.400 300.327 C 107.170 300.556,109.060 301.186,110.600 301.726 C 112.140 302.266,115.110 303.002,117.200 303.362 C 119.290 303.722,121.990 304.359,123.200 304.777 C 126.957 306.076,131.102 306.765,139.400 307.469 C 160.244 309.237,187.299 307.984,197.200 304.791 C 199.664 303.997,203.431 303.382,208.200 302.997 C 211.264 302.750,215.603 301.378,220.200 299.203 C 221.080 298.786,223.060 298.246,224.600 298.001 C 226.796 297.652,227.660 297.305,228.607 296.390 C 229.271 295.748,230.441 295.019,231.207 294.769 C 233.019 294.179,238.459 291.494,240.980 289.946 C 242.068 289.277,243.688 288.445,244.580 288.096 C 245.471 287.748,246.923 286.999,247.807 286.431 C 248.690 285.864,249.770 285.172,250.207 284.892 C 254.402 282.209,256.121 283.147,252.775 286.295 C 251.661 287.343,250.466 288.796,250.118 289.524 C 249.578 290.656,245.437 294.000,244.575 294.000 C 244.428 294.000,243.085 295.083,241.591 296.408 C 240.098 297.732,238.274 299.016,237.538 299.262 C 236.802 299.508,235.750 300.113,235.200 300.607 C 233.586 302.057,229.020 304.276,227.040 304.573 C 225.690 304.776,224.670 305.308,223.154 306.602 C 220.463 308.900,219.114 309.503,215.552 310.002 C 209.698 310.822,203.381 312.864,203.075 314.036 C 202.851 314.892,201.205 315.121,192.000 315.579 C 184.254 315.965,177.330 316.555,172.600 317.233 C 167.245 318.001,157.761 318.450,151.400 318.235 C 147.880 318.117,144.767 318.166,144.482 318.345 C 143.676 318.850,182.967 319.249,189.400 318.801 C 196.497 318.307,202.304 316.915,203.929 315.319 C 204.256 314.998,205.475 314.801,207.129 314.802 C 212.217 314.805,223.560 311.889,226.672 309.777 C 227.447 309.251,228.692 308.726,229.440 308.611 C 230.188 308.495,231.422 308.303,232.183 308.185 C 232.943 308.067,233.888 307.572,234.283 307.085 C 235.359 305.757,238.052 304.129,240.459 303.351 C 242.711 302.624,244.749 301.255,250.144 296.847 C 251.055 296.103,252.250 295.297,252.800 295.057 C 253.642 294.689,257.474 291.320,259.462 289.200 C 263.685 284.696,265.164 282.980,267.790 279.536 C 269.488 277.310,271.209 274.748,271.617 273.844 C 272.024 272.940,273.084 271.399,273.974 270.420 C 274.863 269.440,275.792 268.000,276.037 267.220 C 276.283 266.439,277.176 264.630,278.023 263.200 C 280.404 259.179,281.639 256.089,282.249 252.626 C 282.556 250.881,283.155 248.864,283.580 248.145 C 286.675 242.898,287.588 236.562,287.613 220.140 C 287.642 200.966,286.430 191.834,283.399 188.400 C 283.108 188.070,282.582 186.124,282.231 184.076 C 281.298 178.642,279.341 175.390,278.653 178.131 C 278.204 179.922,279.488 187.866,280.410 189.003 C 281.920 190.865,282.684 202.194,281.515 205.377 C 280.221 208.899,278.683 208.302,277.185 203.696 C 276.584 201.848,275.630 199.882,274.966 199.123 C 274.325 198.390,273.112 196.172,272.270 194.195 C 269.311 187.242,265.441 180.400,262.505 176.930 C 261.792 176.089,261.092 174.786,260.948 174.035 C 260.774 173.128,259.995 171.989,258.623 170.635 C 257.487 169.516,256.146 167.864,255.642 166.965 C 255.139 166.066,253.998 164.859,253.108 164.282 C 252.218 163.704,249.717 161.586,247.550 159.573 C 245.383 157.561,242.604 155.209,241.374 154.348 C 240.144 153.486,238.657 152.266,238.069 151.637 C 237.481 151.007,236.550 150.363,236.000 150.207 C 235.450 150.050,232.840 148.887,230.200 147.623 C 227.560 146.359,224.170 145.021,222.666 144.649 C 221.162 144.278,218.054 143.172,215.760 142.192 C 212.060 140.612,211.057 140.363,206.894 139.990 C 201.596 139.516,193.469 138.172,192.382 137.590 C 191.986 137.378,189.623 136.920,187.132 136.573 C 184.641 136.225,180.982 135.613,179.001 135.213 C 177.021 134.812,173.261 134.356,170.648 134.199 C 168.034 134.043,164.524 133.565,162.848 133.137 C 161.171 132.710,158.810 132.126,157.600 131.839 C 156.390 131.553,153.780 130.773,151.800 130.106 C 149.820 129.439,147.435 128.767,146.500 128.612 C 145.440 128.436,143.559 127.501,141.500 126.127 C 139.685 124.916,137.544 123.588,136.743 123.176 C 135.942 122.765,134.502 121.537,133.543 120.449 C 132.584 119.360,130.787 117.640,129.548 116.625 C 127.990 115.349,127.220 114.402,127.050 113.551 C 126.915 112.874,126.353 111.784,125.802 111.129 C 123.466 108.354,124.093 106.000,127.168 106.000 C 129.932 106.000,129.900 105.637,126.976 103.800 C 125.575 102.920,124.200 101.750,123.920 101.200 C 123.206 99.795,120.761 96.527,118.832 94.400 C 117.934 93.410,116.921 92.015,116.581 91.300 C 115.842 89.746,115.713 89.715,115.148 90.955 M133.776 108.438 C 133.373 109.091,134.376 110.700,135.350 110.961 C 137.514 111.542,138.638 111.085,138.153 109.821 C 137.640 108.486,134.383 107.457,133.776 108.438 M139.784 112.827 C 139.204 113.765,143.684 116.079,147.415 116.769 C 148.699 117.006,150.132 117.560,150.600 118.000 C 151.075 118.446,152.002 118.800,152.696 118.800 C 153.380 118.800,155.348 119.370,157.070 120.067 C 160.584 121.490,172.148 122.417,178.704 121.803 L 181.788 121.514 180.331 120.766 C 178.449 119.801,173.191 118.961,164.234 118.194 C 159.848 117.818,156.666 117.358,156.034 117.007 C 150.222 113.787,140.703 111.338,139.784 112.827 M206.030 187.948 C 205.795 188.527,205.435 189.900,205.230 191.000 C 205.025 192.100,204.680 193.466,204.463 194.036 C 204.108 194.968,203.864 197.513,203.963 199.257 C 204.020 200.267,204.912 200.397,207.199 199.726 C 210.149 198.862,210.756 199.263,213.299 203.763 C 216.012 208.562,212.610 220.550,207.496 224.210 C 202.214 227.990,197.849 229.770,192.322 230.399 C 180.887 231.699,179.408 232.236,178.996 235.232 C 178.593 238.161,181.319 238.915,186.813 237.395 C 188.016 237.062,190.080 236.540,191.400 236.235 C 192.720 235.929,194.430 235.410,195.200 235.081 C 195.970 234.753,197.920 234.281,199.533 234.033 C 203.046 233.493,204.872 232.613,206.964 230.452 C 207.824 229.563,209.016 228.728,209.614 228.597 C 211.194 228.250,212.347 226.814,212.742 224.701 C 212.937 223.653,213.573 222.274,214.206 221.525 C 217.249 217.920,217.842 214.159,216.438 207.358 C 215.587 203.235,215.811 200.669,217.112 199.633 C 219.222 197.953,218.217 194.339,215.213 192.807 C 214.323 192.353,213.214 191.400,212.748 190.689 C 210.854 187.800,206.767 186.133,206.030 187.948 " stroke="none" fill="#c72521" fill-rule="evenodd"></path><path id="path1" d="M314.800 80.316 C 313.699 80.489,312.400 81.482,312.400 82.152 C 312.400 83.440,297.114 97.264,292.866 99.818 C 291.180 100.832,288.720 102.450,287.400 103.414 C 286.080 104.377,284.010 105.547,282.800 106.013 C 281.590 106.479,279.611 107.515,278.403 108.316 C 277.195 109.116,274.803 110.263,273.087 110.863 C 271.371 111.464,269.390 112.307,268.684 112.736 C 267.009 113.756,260.248 116.603,258.200 117.152 C 257.320 117.387,256.235 117.837,255.788 118.151 C 255.342 118.465,254.172 118.928,253.188 119.180 C 249.006 120.251,241.665 123.364,241.343 124.204 C 240.916 125.317,242.428 126.863,245.137 128.082 C 246.601 128.741,248.340 129.684,249.000 130.177 C 249.660 130.670,252.050 132.021,254.311 133.180 C 256.647 134.376,259.152 136.010,260.111 136.963 C 261.040 137.886,262.650 139.221,263.688 139.931 C 264.726 140.641,266.037 141.826,266.601 142.565 C 269.560 146.445,273.525 147.296,277.489 144.903 C 281.432 142.522,288.000 137.928,288.000 137.550 C 288.000 137.361,289.319 136.230,290.931 135.038 C 292.543 133.846,294.157 132.420,294.517 131.870 C 294.878 131.319,296.008 130.269,297.028 129.537 C 298.049 128.804,299.206 127.573,299.601 126.802 C 299.995 126.031,301.041 124.579,301.926 123.576 C 302.810 122.573,304.044 120.915,304.667 119.891 C 305.290 118.867,306.623 116.807,307.629 115.314 C 308.635 113.822,309.830 111.610,310.284 110.400 C 310.738 109.190,311.786 106.670,312.612 104.800 C 314.317 100.939,315.978 94.977,316.010 92.600 C 316.022 91.720,316.359 89.386,316.759 87.413 C 317.743 82.566,317.025 79.966,314.800 80.316 M114.495 82.801 C 112.013 84.310,111.786 85.296,111.923 93.939 C 112.023 100.218,112.192 102.142,112.818 104.139 C 113.242 105.493,113.594 107.050,113.599 107.600 C 113.604 108.150,114.075 109.590,114.646 110.800 C 115.218 112.010,116.021 113.959,116.432 115.132 C 117.192 117.301,117.685 118.173,121.631 124.323 C 123.286 126.903,124.239 127.978,125.324 128.490 C 126.334 128.967,127.038 129.710,127.599 130.890 C 128.046 131.831,128.923 132.960,129.549 133.400 C 132.480 135.463,138.015 141.032,138.473 142.379 C 139.029 144.018,139.234 229.552,138.687 232.000 C 138.175 234.293,137.513 234.905,136.149 234.348 C 132.605 232.899,125.469 233.482,121.000 235.586 C 118.028 236.984,112.625 239.022,110.942 239.379 C 109.707 239.640,103.998 243.151,99.545 246.387 C 95.932 249.012,90.621 254.784,89.174 257.658 C 88.470 259.056,87.400 260.920,86.797 261.800 C 83.588 266.480,82.613 276.094,84.434 285.109 C 84.901 287.417,88.632 292.271,93.445 296.831 C 97.017 300.214,105.331 304.213,110.432 305.001 C 114.664 305.655,116.550 306.195,120.600 307.913 C 126.291 310.326,157.194 311.743,177.200 310.507 C 187.470 309.873,197.260 309.710,197.962 310.162 C 199.213 310.967,190.258 313.052,183.396 313.554 C 167.006 314.751,128.798 314.020,124.225 312.422 C 122.918 311.965,120.691 311.406,119.275 311.180 C 117.858 310.954,116.190 310.505,115.568 310.183 C 114.945 309.861,112.634 309.445,110.431 309.259 C 108.229 309.073,106.170 308.707,105.856 308.447 C 105.045 307.773,101.200 307.359,101.200 307.944 C 101.200 308.195,101.378 308.400,101.595 308.400 C 101.812 308.400,102.444 309.119,102.998 309.997 C 104.673 312.650,112.146 316.031,121.000 318.142 C 122.320 318.457,124.750 319.078,126.400 319.521 C 128.407 320.061,132.494 320.548,138.749 320.993 C 143.891 321.358,148.534 321.823,149.067 322.026 C 151.789 323.060,173.259 323.131,182.680 322.137 C 187.696 321.608,194.320 320.920,197.400 320.610 C 203.761 319.969,210.758 318.703,214.000 317.606 C 215.210 317.197,218.259 316.293,220.775 315.597 C 223.291 314.901,227.071 313.478,229.175 312.433 C 231.279 311.389,234.118 310.125,235.484 309.624 C 236.851 309.124,239.363 307.834,241.068 306.757 C 242.773 305.681,244.358 304.800,244.592 304.800 C 245.032 304.800,249.444 301.684,251.783 299.720 C 252.517 299.104,253.811 298.185,254.659 297.679 C 256.331 296.679,260.503 292.793,264.000 288.977 C 267.154 285.535,271.773 280.017,271.958 279.468 C 272.045 279.211,272.664 278.301,273.334 277.447 C 275.816 274.280,276.428 273.343,277.594 270.924 C 278.250 269.562,279.702 266.897,280.822 265.001 C 282.163 262.731,283.463 259.686,284.632 256.078 C 285.608 253.065,286.769 249.700,287.212 248.600 C 287.654 247.500,288.476 243.990,289.039 240.800 C 289.602 237.610,290.267 234.010,290.518 232.800 C 291.294 229.056,291.081 206.477,290.234 202.800 C 289.854 201.150,289.128 197.100,288.619 193.800 C 287.909 189.188,287.418 187.245,286.498 185.400 C 285.839 184.080,284.646 180.959,283.846 178.464 C 282.189 173.297,280.707 170.497,279.355 169.983 C 278.802 169.773,278.323 169.175,278.179 168.514 C 277.677 166.220,277.085 165.248,274.555 162.559 C 273.127 161.042,271.658 159.305,271.292 158.699 C 270.926 158.094,270.306 157.497,269.913 157.372 C 269.520 157.248,269.010 156.793,268.780 156.362 C 268.280 155.428,267.524 155.726,267.888 156.713 C 268.028 157.091,268.257 157.490,268.397 157.600 C 268.538 157.710,268.951 158.790,269.315 160.000 C 270.615 164.322,271.683 167.433,272.610 169.600 C 273.127 170.810,273.649 172.539,273.771 173.442 C 273.892 174.344,274.445 176.076,275.001 177.289 C 276.152 179.803,276.968 187.703,276.476 191.567 L 276.200 193.735 275.102 192.149 C 274.499 191.277,273.553 189.412,273.001 188.004 C 272.449 186.595,271.233 184.202,270.299 182.685 C 264.991 174.066,264.378 173.164,260.093 167.651 C 258.832 166.028,257.440 164.176,257.000 163.534 C 256.560 162.892,255.390 161.731,254.400 160.954 C 253.410 160.176,251.386 158.445,249.902 157.106 C 245.590 153.216,240.369 149.271,238.137 148.217 C 237.002 147.681,235.954 147.049,235.807 146.811 C 235.347 146.067,230.380 143.781,225.800 142.206 C 223.380 141.373,220.579 140.280,219.575 139.777 C 217.711 138.843,215.024 138.260,210.400 137.785 C 208.970 137.638,205.730 137.019,203.200 136.408 C 200.670 135.797,197.430 135.164,196.000 135.002 C 194.570 134.840,192.909 134.455,192.310 134.148 C 191.647 133.809,187.568 133.274,181.910 132.785 C 176.789 132.343,171.700 131.722,170.600 131.405 C 169.500 131.089,166.800 130.483,164.600 130.060 C 162.400 129.637,159.830 128.999,158.888 128.643 C 157.947 128.287,155.564 127.718,153.593 127.377 C 149.747 126.714,146.970 125.679,144.918 124.145 C 144.213 123.618,142.794 122.826,141.765 122.385 C 139.049 121.221,136.905 119.389,136.592 117.966 C 136.423 117.196,135.973 116.618,135.363 116.386 C 134.147 115.923,134.131 115.600,135.325 115.600 C 135.833 115.600,136.664 115.986,137.171 116.458 C 137.702 116.953,139.203 117.550,140.715 117.867 C 142.158 118.169,143.554 118.596,143.818 118.815 C 144.246 119.170,150.236 121.436,153.400 122.439 C 154.060 122.648,158.020 123.365,162.200 124.031 C 166.380 124.698,170.520 125.411,171.400 125.615 C 172.280 125.820,179.390 126.177,187.200 126.408 C 195.010 126.640,204.730 126.990,208.800 127.186 C 219.217 127.689,223.232 126.516,216.892 124.821 C 215.952 124.570,214.532 123.923,213.736 123.382 C 212.795 122.744,211.713 122.395,210.644 122.386 C 208.769 122.370,204.044 121.513,200.800 120.601 C 199.590 120.260,196.890 119.722,194.800 119.404 C 192.710 119.086,189.207 118.457,187.017 118.005 C 184.826 117.553,180.326 117.007,177.017 116.791 C 168.119 116.211,161.565 114.899,157.000 112.783 C 156.120 112.375,154.410 111.923,153.200 111.778 C 148.965 111.273,144.176 109.524,141.678 107.571 C 141.171 107.175,139.628 106.475,138.248 106.016 C 136.642 105.482,135.262 104.689,134.416 103.817 C 133.689 103.067,132.173 102.059,131.047 101.576 C 127.698 100.142,120.220 91.233,117.830 85.830 C 116.159 82.051,115.986 81.894,114.495 82.801 M314.810 84.612 C 317.012 87.265,311.671 106.724,306.648 114.354 C 305.689 115.809,304.679 117.450,304.403 118.000 C 304.127 118.550,302.874 120.350,301.618 122.000 C 300.363 123.650,298.997 125.585,298.582 126.300 C 298.167 127.015,297.694 127.600,297.531 127.600 C 297.367 127.600,295.816 128.905,294.083 130.500 C 288.413 135.719,285.915 137.769,282.634 139.900 C 280.855 141.054,278.590 142.540,277.600 143.202 C 274.062 145.565,271.392 145.349,268.494 142.464 C 267.452 141.428,265.880 140.048,265.000 139.400 C 264.120 138.751,262.427 137.348,261.237 136.282 C 258.532 133.858,256.271 132.409,250.200 129.207 C 241.662 124.703,241.680 124.462,250.787 121.385 C 253.544 120.454,256.430 119.409,257.200 119.064 C 257.970 118.719,260.310 117.773,262.400 116.962 C 264.490 116.152,267.820 114.723,269.800 113.788 C 271.780 112.852,274.120 111.860,275.000 111.583 C 275.880 111.306,277.920 110.279,279.533 109.302 C 281.147 108.325,283.307 107.155,284.333 106.703 C 285.360 106.251,287.460 105.033,289.000 103.997 C 290.540 102.960,293.060 101.344,294.600 100.406 C 297.831 98.437,299.100 97.344,306.200 90.413 C 312.962 83.812,313.722 83.301,314.810 84.612 M117.250 87.700 C 120.014 93.180,126.730 101.132,130.005 102.803 C 130.981 103.301,132.247 104.208,132.818 104.819 C 133.389 105.430,134.653 106.140,135.628 106.395 C 136.603 106.651,139.110 107.827,141.200 109.008 C 144.030 110.608,146.174 111.462,149.600 112.356 C 152.130 113.016,156.410 114.193,159.112 114.972 C 164.696 116.582,167.025 117.000,173.800 117.606 C 176.440 117.843,180.490 118.373,182.800 118.786 C 185.110 119.198,187.900 119.657,189.000 119.805 C 191.352 120.121,194.775 120.925,198.400 122.012 C 201.233 122.861,206.566 123.600,209.866 123.600 C 212.144 123.600,212.845 124.127,211.866 125.105 C 210.735 126.237,176.787 124.886,164.436 123.218 C 156.194 122.105,142.400 117.752,138.400 115.002 C 137.630 114.473,135.920 113.556,134.600 112.965 C 133.280 112.373,131.840 111.570,131.400 111.179 C 129.832 109.787,129.014 110.011,128.879 111.868 C 128.763 113.460,128.862 113.624,131.079 115.503 C 132.355 116.586,134.302 118.359,135.404 119.444 C 138.881 122.868,145.821 126.795,150.279 127.862 C 151.776 128.221,154.806 129.033,157.014 129.668 C 159.222 130.302,163.062 131.176,165.548 131.608 C 168.034 132.041,170.226 132.493,170.419 132.612 C 170.612 132.731,172.802 133.006,175.285 133.223 C 181.019 133.725,187.097 134.577,192.200 135.596 C 194.400 136.035,198.450 136.847,201.200 137.399 C 203.950 137.951,207.730 138.564,209.600 138.761 C 213.192 139.139,214.560 139.537,223.200 142.723 C 230.446 145.395,233.653 146.760,234.531 147.545 C 234.933 147.905,236.136 148.650,237.204 149.200 C 239.743 150.507,244.506 154.140,249.019 158.211 C 251.009 160.006,253.137 161.802,253.747 162.202 C 254.357 162.602,256.072 164.565,257.558 166.564 C 259.045 168.564,260.576 170.459,260.961 170.775 C 261.347 171.091,262.088 172.190,262.609 173.218 C 263.130 174.245,263.986 175.607,264.512 176.243 C 266.067 178.124,271.071 186.631,271.836 188.694 C 272.225 189.742,272.859 191.060,273.244 191.623 C 273.630 192.186,274.248 193.403,274.618 194.328 C 274.988 195.253,275.808 196.379,276.440 196.829 C 277.183 197.357,277.782 198.307,278.133 199.512 C 278.666 201.339,278.688 201.357,279.191 200.418 C 279.845 199.195,279.511 193.655,278.648 191.400 C 278.311 190.520,277.757 187.010,277.418 183.600 C 276.871 178.104,276.590 176.810,274.948 172.200 C 273.128 167.091,272.320 163.355,273.100 163.652 C 273.931 163.969,276.750 167.635,277.192 168.975 C 277.448 169.751,278.172 170.753,278.800 171.200 C 279.428 171.647,280.163 172.685,280.432 173.507 C 280.701 174.328,281.149 175.360,281.427 175.800 C 281.706 176.240,282.568 178.490,283.344 180.800 C 284.120 183.110,285.372 186.800,286.127 189.000 C 286.881 191.201,287.628 194.171,287.786 195.600 C 287.945 197.030,288.460 200.090,288.931 202.400 C 289.953 207.413,290.172 231.456,289.217 233.800 C 288.948 234.460,288.476 236.778,288.167 238.951 C 287.858 241.124,286.904 244.994,286.047 247.551 C 285.189 250.108,283.992 253.730,283.387 255.600 C 280.726 263.812,274.565 274.253,267.000 283.370 C 262.108 289.266,255.654 295.751,253.671 296.766 C 252.862 297.179,251.390 298.224,250.400 299.086 C 248.065 301.121,245.149 302.985,240.200 305.608 C 238.000 306.774,235.739 308.047,235.176 308.438 C 234.612 308.828,233.622 309.270,232.976 309.420 C 232.329 309.570,230.360 310.367,228.600 311.191 C 223.754 313.459,213.225 316.636,207.400 317.587 C 205.860 317.839,203.610 318.298,202.400 318.607 C 195.826 320.289,175.436 321.616,162.200 321.223 C 149.274 320.840,130.984 319.428,128.200 318.598 C 127.100 318.270,125.032 317.724,123.604 317.385 C 122.177 317.045,120.107 316.353,119.004 315.846 C 117.902 315.340,115.792 314.609,114.316 314.222 C 112.839 313.836,111.422 313.268,111.167 312.960 C 110.911 312.652,110.409 312.396,110.051 312.391 C 109.160 312.379,107.338 310.929,107.726 310.541 C 107.899 310.368,108.910 310.536,109.974 310.913 C 111.037 311.291,112.513 311.604,113.254 311.609 C 115.238 311.621,121.419 313.063,122.485 313.761 C 125.875 315.983,187.008 315.889,192.412 313.654 C 192.956 313.430,194.620 313.050,196.111 312.809 C 197.601 312.569,200.751 311.770,203.111 311.033 C 205.470 310.296,208.390 309.566,209.600 309.412 C 213.348 308.932,218.274 307.249,220.171 305.801 C 221.176 305.034,223.203 304.076,224.869 303.580 C 227.321 302.851,231.664 300.534,232.400 299.564 C 232.705 299.162,235.731 297.600,236.205 297.600 C 236.772 297.600,239.200 295.349,239.200 294.823 C 239.200 294.295,236.933 294.261,236.610 294.783 C 236.480 294.994,235.274 295.568,233.930 296.058 C 232.447 296.598,231.414 297.224,231.303 297.649 C 231.096 298.439,229.251 299.200,227.542 299.200 C 226.110 299.200,222.109 300.557,219.086 302.069 C 217.516 302.854,215.459 303.420,212.686 303.832 C 210.439 304.165,207.340 304.699,205.800 305.019 C 199.775 306.268,191.913 307.974,191.273 308.170 C 185.179 310.042,135.331 310.050,128.600 308.181 C 122.010 306.350,114.913 304.592,111.692 303.993 C 109.652 303.613,107.222 302.932,106.292 302.478 C 105.361 302.025,102.758 300.802,100.507 299.761 C 96.182 297.761,92.579 294.625,87.831 288.728 C 83.591 283.463,83.460 270.900,87.568 263.600 C 88.621 261.730,89.855 259.352,90.311 258.315 C 93.085 252.018,105.665 242.640,116.600 238.719 C 119.680 237.614,122.650 236.483,123.200 236.204 C 125.246 235.168,130.121 234.336,132.518 234.614 C 135.840 234.999,136.157 235.606,135.908 241.108 C 135.652 246.792,135.356 247.353,132.042 248.440 C 130.589 248.917,129.195 249.468,128.944 249.666 C 128.693 249.863,127.404 250.450,126.079 250.969 C 124.755 251.488,122.853 252.476,121.852 253.164 C 120.852 253.852,118.811 255.056,117.317 255.839 C 111.989 258.631,106.391 266.612,106.942 270.632 C 108.602 282.741,128.892 289.600,163.051 289.600 C 174.107 289.600,179.645 289.310,194.000 287.981 C 198.828 287.534,210.942 284.853,213.754 283.609 C 214.660 283.209,216.408 282.592,217.641 282.239 C 218.873 281.886,221.014 280.864,222.398 279.970 C 223.783 279.075,225.834 277.982,226.958 277.541 C 230.239 276.251,233.859 273.735,240.200 268.334 C 249.856 260.109,254.890 253.132,260.210 240.600 C 263.246 233.447,264.928 218.353,263.419 211.800 C 263.115 210.480,262.406 207.307,261.844 204.748 C 259.156 192.524,247.075 175.733,237.430 170.815 C 236.742 170.465,235.555 169.713,234.790 169.145 C 230.130 165.683,215.336 160.179,209.200 159.626 C 207.110 159.437,203.780 159.001,201.800 158.657 C 199.820 158.312,195.950 157.757,193.200 157.423 C 190.450 157.089,187.210 156.534,186.000 156.189 C 181.473 154.902,174.758 154.287,173.332 155.031 C 171.721 155.870,171.641 156.277,171.797 162.800 C 171.931 168.383,172.076 225.851,172.036 257.267 C 172.004 282.459,173.132 280.497,158.727 280.420 C 145.757 280.352,142.777 279.775,141.282 277.046 C 140.540 275.690,140.522 274.921,140.550 245.600 C 140.640 154.669,140.563 142.621,139.883 141.333 C 139.198 140.037,134.026 135.130,130.800 132.716 C 129.810 131.975,128.656 130.733,128.235 129.956 C 127.815 129.179,126.877 128.154,126.153 127.679 C 123.904 126.205,119.027 118.290,116.739 112.400 C 111.608 99.195,112.059 77.410,117.250 87.700 M179.054 156.170 C 180.403 156.284,182.383 156.677,183.454 157.043 C 186.445 158.065,200.276 160.113,208.510 160.753 C 211.101 160.955,213.441 161.295,213.710 161.509 C 213.980 161.723,215.803 162.368,217.761 162.943 C 219.720 163.518,221.700 164.233,222.161 164.533 C 222.623 164.832,223.990 165.403,225.200 165.801 C 226.410 166.199,228.030 166.919,228.800 167.401 C 229.570 167.883,230.920 168.510,231.800 168.795 C 232.680 169.080,233.545 169.559,233.721 169.859 C 233.898 170.160,234.797 170.790,235.719 171.261 C 238.553 172.707,248.266 181.607,250.713 185.000 C 251.506 186.100,252.840 187.761,253.677 188.691 C 254.515 189.621,255.200 190.724,255.200 191.142 C 255.200 191.559,256.286 194.013,257.614 196.594 C 259.872 200.985,260.089 201.651,260.978 206.943 C 261.500 210.055,262.124 213.107,262.364 213.726 C 262.604 214.345,262.800 216.476,262.800 218.462 C 262.800 221.655,262.484 224.151,260.789 234.335 C 260.342 237.022,257.962 243.211,256.815 244.671 C 256.439 245.149,255.810 246.381,255.419 247.407 C 252.005 256.346,233.840 274.189,225.323 276.971 C 224.180 277.344,222.807 277.994,222.272 278.415 C 221.253 279.216,216.337 281.600,215.703 281.600 C 215.500 281.600,214.179 281.940,212.767 282.356 C 211.355 282.771,208.310 283.667,206.000 284.346 C 196.988 286.994,192.656 287.450,171.426 287.987 C 153.201 288.448,140.173 287.830,132.976 286.163 C 114.476 281.878,104.599 273.647,109.208 266.356 C 112.432 261.255,116.586 257.126,119.221 256.402 C 120.003 256.187,121.353 255.405,122.221 254.663 C 124.632 252.604,129.095 250.674,133.459 249.805 C 134.151 249.667,135.049 249.188,135.454 248.740 C 138.494 245.381,138.946 247.175,138.896 262.400 C 138.834 281.909,138.672 281.758,160.000 282.135 C 173.730 282.378,172.931 283.780,173.200 259.000 C 173.358 244.427,173.514 240.399,173.949 239.635 L 174.498 238.669 175.149 239.488 C 177.852 242.887,189.939 241.171,206.200 235.079 C 206.860 234.832,208.269 233.820,209.332 232.831 C 210.394 231.841,211.902 230.646,212.683 230.175 C 214.066 229.340,216.749 225.583,218.379 222.198 C 219.928 218.981,220.464 211.611,219.521 206.493 C 218.987 203.597,219.947 202.000,222.222 202.000 C 223.417 202.000,224.948 200.561,224.631 199.736 C 224.504 199.405,224.400 198.979,224.400 198.788 C 224.400 197.274,209.171 181.813,207.284 181.410 C 203.972 180.704,201.606 185.667,201.601 193.334 C 201.601 194.398,201.297 196.407,200.926 197.798 C 199.662 202.541,201.808 205.675,205.315 204.210 C 208.806 202.751,210.216 204.551,210.168 210.400 C 210.147 213.014,207.347 219.791,205.544 221.595 C 202.220 224.918,188.931 228.794,180.830 228.802 C 177.979 228.805,175.771 229.421,175.081 230.406 C 173.360 232.862,173.250 230.726,173.216 194.357 C 173.198 175.594,173.078 159.577,172.948 158.765 C 172.646 156.874,173.798 155.526,175.492 155.789 C 176.101 155.884,177.704 156.055,179.054 156.170 M208.349 183.974 C 209.820 184.725,214.400 189.285,214.400 190.000 C 214.400 190.195,215.089 190.770,215.932 191.277 C 217.830 192.421,219.617 194.438,220.944 196.934 C 222.138 199.179,222.037 199.643,220.160 200.538 C 217.975 201.580,217.454 203.251,218.202 206.809 C 219.987 215.293,216.873 225.851,211.539 229.400 C 210.547 230.060,208.892 231.345,207.861 232.256 C 201.991 237.443,177.818 241.928,176.362 238.100 C 174.762 233.893,177.009 230.422,181.621 229.976 C 191.790 228.993,193.350 228.731,197.066 227.386 C 204.546 224.679,206.854 222.988,209.334 218.400 C 211.810 213.821,212.247 207.882,210.414 203.739 L 209.600 201.898 207.500 202.171 C 203.654 202.670,203.543 202.654,202.677 201.505 L 201.851 200.410 202.745 194.305 C 204.294 183.723,205.066 182.299,208.349 183.974 M216.719 305.141 C 217.422 305.587,216.747 306.130,214.397 307.010 C 211.244 308.190,202.000 308.928,202.000 308.000 C 202.000 307.780,202.324 307.600,202.720 307.600 C 203.116 307.600,203.630 307.410,203.862 307.178 C 205.011 306.029,215.499 304.367,216.719 305.141 " stroke="none" fill="#4e0f0e" fill-rule="evenodd"></path><path id="path2" d="M312.389 84.669 C 311.845 85.036,309.060 87.622,306.200 90.413 C 299.100 97.344,297.831 98.437,294.600 100.406 C 293.060 101.344,290.540 102.960,289.000 103.997 C 287.460 105.033,285.360 106.251,284.333 106.703 C 283.307 107.155,281.147 108.325,279.533 109.302 C 277.920 110.279,275.880 111.306,275.000 111.583 C 274.120 111.860,271.780 112.852,269.800 113.788 C 267.820 114.723,264.490 116.152,262.400 116.962 C 260.310 117.773,257.970 118.719,257.200 119.064 C 256.430 119.409,253.544 120.454,250.787 121.385 C 241.680 124.462,241.662 124.703,250.200 129.207 C 256.271 132.409,258.532 133.858,261.237 136.282 C 262.427 137.348,264.120 138.751,265.000 139.400 C 265.880 140.048,267.452 141.428,268.494 142.464 C 271.392 145.349,274.062 145.565,277.600 143.202 C 278.590 142.540,280.855 141.054,282.634 139.900 C 285.915 137.769,288.413 135.719,294.083 130.500 C 295.816 128.905,297.367 127.600,297.531 127.600 C 297.694 127.600,298.167 127.015,298.582 126.300 C 298.997 125.585,300.363 123.650,301.618 122.000 C 302.874 120.350,304.127 118.550,304.403 118.000 C 304.679 117.450,305.689 115.809,306.648 114.354 C 313.778 103.524,318.183 80.751,312.389 84.669 M113.807 86.245 C 112.684 87.959,113.124 99.611,114.522 105.200 C 116.768 114.175,122.524 125.300,126.153 127.679 C 126.877 128.154,127.815 129.179,128.235 129.956 C 128.656 130.733,129.810 131.975,130.800 132.716 C 134.026 135.130,139.198 140.037,139.883 141.333 C 140.563 142.621,140.640 154.669,140.550 245.600 C 140.522 274.921,140.540 275.690,141.282 277.046 C 142.777 279.775,145.757 280.352,158.727 280.420 C 173.132 280.497,172.004 282.459,172.036 257.267 C 172.076 225.851,171.931 168.383,171.797 162.800 C 171.641 156.277,171.721 155.870,173.332 155.031 C 174.758 154.287,181.473 154.902,186.000 156.189 C 187.210 156.534,190.450 157.089,193.200 157.423 C 195.950 157.757,199.820 158.312,201.800 158.657 C 203.780 159.001,207.110 159.437,209.200 159.626 C 215.336 160.179,230.130 165.683,234.790 169.145 C 235.555 169.713,236.742 170.465,237.430 170.815 C 247.075 175.733,259.156 192.524,261.844 204.748 C 262.406 207.307,263.115 210.480,263.419 211.800 C 264.928 218.353,263.246 233.447,260.210 240.600 C 254.890 253.132,249.856 260.109,240.200 268.334 C 233.859 273.735,230.239 276.251,226.958 277.541 C 225.834 277.982,223.783 279.075,222.398 279.970 C 221.014 280.864,218.873 281.886,217.641 282.239 C 216.408 282.592,214.660 283.209,213.754 283.609 C 210.942 284.853,198.828 287.534,194.000 287.981 C 157.214 291.388,132.315 289.632,118.200 282.637 C 111.279 279.207,107.577 275.259,106.942 270.632 C 106.391 266.612,111.989 258.631,117.317 255.839 C 118.811 255.056,120.852 253.852,121.852 253.164 C 122.853 252.476,124.755 251.488,126.079 250.969 C 127.404 250.450,128.693 249.863,128.944 249.666 C 129.195 249.468,130.589 248.917,132.042 248.440 C 135.356 247.353,135.652 246.792,135.908 241.108 C 136.157 235.606,135.840 234.999,132.518 234.614 C 130.121 234.336,125.246 235.168,123.200 236.204 C 122.650 236.483,119.680 237.614,116.600 238.719 C 105.665 242.640,93.085 252.018,90.311 258.315 C 89.855 259.352,88.621 261.730,87.568 263.600 C 84.811 268.500,83.683 280.648,85.551 285.328 C 87.205 289.471,95.440 297.418,100.507 299.761 C 102.758 300.802,105.361 302.025,106.292 302.478 C 107.222 302.932,109.652 303.613,111.692 303.993 C 114.913 304.592,122.010 306.350,128.600 308.181 C 135.331 310.050,185.179 310.042,191.273 308.170 C 191.913 307.974,199.775 306.268,205.800 305.019 C 207.340 304.699,210.439 304.165,212.686 303.832 C 215.459 303.420,217.516 302.854,219.086 302.069 C 222.109 300.557,226.110 299.200,227.542 299.200 C 229.251 299.200,231.096 298.439,231.303 297.649 C 231.414 297.224,232.447 296.598,233.930 296.058 C 235.274 295.568,236.480 294.994,236.610 294.783 C 236.933 294.261,239.200 294.295,239.200 294.823 C 239.200 295.349,236.772 297.600,236.205 297.600 C 235.731 297.600,232.705 299.162,232.400 299.564 C 231.664 300.534,227.321 302.851,224.869 303.580 C 223.203 304.076,221.176 305.034,220.171 305.801 C 218.274 307.249,213.348 308.932,209.600 309.412 C 208.390 309.566,205.470 310.296,203.111 311.033 C 200.751 311.770,197.601 312.569,196.111 312.809 C 194.620 313.050,192.956 313.430,192.412 313.654 C 187.008 315.889,125.875 315.983,122.485 313.761 C 121.419 313.063,115.238 311.621,113.254 311.609 C 112.513 311.604,111.037 311.291,109.974 310.913 C 108.910 310.536,107.899 310.368,107.726 310.541 C 107.338 310.929,109.160 312.379,110.051 312.391 C 110.409 312.396,110.911 312.652,111.167 312.960 C 111.422 313.268,112.839 313.836,114.316 314.222 C 115.792 314.609,117.902 315.340,119.004 315.846 C 120.107 316.353,122.177 317.045,123.604 317.385 C 125.032 317.724,127.100 318.270,128.200 318.598 C 130.984 319.428,149.274 320.840,162.200 321.223 C 175.436 321.616,195.826 320.289,202.400 318.607 C 203.610 318.298,205.860 317.839,207.400 317.587 C 213.225 316.636,223.754 313.459,228.600 311.191 C 230.360 310.367,232.329 309.570,232.976 309.420 C 233.622 309.270,234.612 308.828,235.176 308.438 C 235.739 308.047,238.000 306.774,240.200 305.608 C 245.149 302.985,248.065 301.121,250.400 299.086 C 251.390 298.224,252.862 297.179,253.671 296.766 C 255.654 295.751,262.108 289.266,267.000 283.370 C 273.214 275.881,274.912 273.330,279.095 265.200 C 280.850 261.790,282.781 257.470,283.387 255.600 C 283.992 253.730,285.189 250.108,286.047 247.551 C 286.904 244.994,287.858 241.124,288.167 238.951 C 288.476 236.778,288.948 234.460,289.217 233.800 C 290.172 231.456,289.953 207.413,288.931 202.400 C 288.460 200.090,287.945 197.030,287.786 195.600 C 287.628 194.171,286.881 191.201,286.127 189.000 C 285.372 186.800,284.120 183.110,283.344 180.800 C 282.568 178.490,281.706 176.240,281.427 175.800 C 281.149 175.360,280.701 174.328,280.432 173.507 C 280.163 172.685,279.428 171.647,278.800 171.200 C 278.172 170.753,277.448 169.751,277.192 168.975 C 276.750 167.635,273.931 163.969,273.100 163.652 C 272.320 163.355,273.128 167.091,274.948 172.200 C 276.590 176.810,276.871 178.104,277.418 183.600 C 277.757 187.010,278.311 190.520,278.648 191.400 C 279.511 193.655,279.845 199.195,279.191 200.418 C 278.688 201.357,278.666 201.339,278.133 199.512 C 277.782 198.307,277.183 197.357,276.440 196.829 C 275.808 196.379,274.988 195.253,274.618 194.328 C 274.248 193.403,273.630 192.186,273.244 191.623 C 272.859 191.060,272.225 189.742,271.836 188.694 C 271.071 186.631,266.067 178.124,264.512 176.243 C 263.986 175.607,263.130 174.245,262.609 173.218 C 262.088 172.190,261.347 171.091,260.961 170.775 C 260.576 170.459,259.045 168.564,257.558 166.564 C 256.072 164.565,254.357 162.602,253.747 162.202 C 253.137 161.802,251.009 160.006,249.019 158.211 C 244.506 154.140,239.743 150.507,237.204 149.200 C 236.136 148.650,234.933 147.905,234.531 147.545 C 233.653 146.760,230.446 145.395,223.200 142.723 C 214.560 139.537,213.192 139.139,209.600 138.761 C 207.730 138.564,203.950 137.951,201.200 137.399 C 198.450 136.847,194.400 136.035,192.200 135.596 C 187.097 134.577,181.019 133.725,175.285 133.223 C 172.802 133.006,170.612 132.731,170.419 132.612 C 170.226 132.493,168.034 132.041,165.548 131.608 C 163.062 131.176,159.222 130.302,157.014 129.668 C 154.806 129.033,151.776 128.221,150.279 127.862 C 145.821 126.795,138.881 122.868,135.404 119.444 C 134.302 118.359,132.355 116.586,131.079 115.503 C 128.862 113.624,128.763 113.460,128.879 111.868 C 129.014 110.011,129.832 109.787,131.400 111.179 C 131.840 111.570,133.280 112.373,134.600 112.965 C 135.920 113.556,137.630 114.473,138.400 115.002 C 142.400 117.752,156.194 122.105,164.436 123.218 C 176.787 124.886,210.735 126.237,211.866 125.105 C 212.845 124.127,212.144 123.600,209.866 123.600 C 206.566 123.600,201.233 122.861,198.400 122.012 C 194.775 120.925,191.352 120.121,189.000 119.805 C 187.900 119.657,185.110 119.198,182.800 118.786 C 180.490 118.373,176.440 117.843,173.800 117.606 C 167.025 117.000,164.696 116.582,159.112 114.972 C 156.410 114.193,152.130 113.016,149.600 112.356 C 146.174 111.462,144.030 110.608,141.200 109.008 C 139.110 107.827,136.603 106.651,135.628 106.395 C 134.653 106.140,133.389 105.430,132.818 104.819 C 132.247 104.208,130.981 103.301,130.005 102.803 C 126.730 101.132,120.014 93.180,117.250 87.700 C 115.840 84.905,114.936 84.523,113.807 86.245 M313.325 87.500 C 314.091 88.830,311.454 100.113,309.983 101.800 C 309.600 102.240,308.912 104.099,308.454 105.932 C 307.997 107.764,307.032 110.251,306.311 111.458 C 305.590 112.665,304.280 114.906,303.400 116.437 C 302.520 117.969,301.027 120.115,300.081 121.207 C 299.136 122.299,298.098 123.824,297.776 124.597 C 297.352 125.609,296.693 126.234,295.413 126.836 C 294.399 127.313,293.315 128.213,292.886 128.935 C 292.473 129.631,291.382 130.830,290.462 131.600 C 289.541 132.370,287.666 133.995,286.294 135.211 C 284.922 136.427,282.900 137.762,281.800 138.177 C 280.700 138.593,278.837 139.714,277.661 140.669 C 274.221 143.459,272.476 143.315,268.775 139.932 C 267.809 139.049,266.475 138.048,265.809 137.707 C 265.144 137.366,263.511 136.078,262.179 134.844 C 260.848 133.610,258.628 131.970,257.247 131.200 C 255.866 130.430,254.247 129.410,253.650 128.934 C 253.053 128.458,251.535 127.580,250.275 126.984 C 246.565 125.227,246.823 124.494,251.617 123.173 C 253.258 122.720,255.001 122.090,255.491 121.772 C 256.386 121.191,259.230 120.047,264.800 118.027 C 266.450 117.429,269.510 116.117,271.600 115.112 C 273.690 114.106,276.209 113.066,277.198 112.800 C 279.697 112.128,281.596 111.088,282.974 109.638 C 283.619 108.958,285.149 108.028,286.374 107.571 C 287.598 107.113,288.918 106.452,289.306 106.102 C 290.217 105.280,293.646 103.134,296.194 101.790 C 298.044 100.815,300.030 99.168,304.300 95.072 C 305.235 94.175,306.000 93.305,306.000 93.140 C 306.000 92.974,306.775 92.305,307.721 91.654 C 308.668 91.003,309.953 89.734,310.576 88.835 C 311.604 87.351,312.883 86.730,313.325 87.500 M116.581 91.300 C 116.921 92.015,117.934 93.410,118.832 94.400 C 120.761 96.527,123.206 99.795,123.920 101.200 C 124.200 101.750,125.575 102.920,126.976 103.800 C 129.900 105.637,129.932 106.000,127.168 106.000 C 124.093 106.000,123.466 108.354,125.802 111.129 C 126.353 111.784,126.915 112.874,127.050 113.551 C 127.220 114.402,127.990 115.349,129.548 116.625 C 130.787 117.640,132.584 119.360,133.543 120.449 C 134.502 121.537,135.942 122.765,136.743 123.176 C 137.544 123.588,139.685 124.916,141.500 126.127 C 143.559 127.501,145.440 128.436,146.500 128.612 C 147.435 128.767,149.820 129.439,151.800 130.106 C 153.780 130.773,156.390 131.553,157.600 131.839 C 158.810 132.126,161.171 132.710,162.848 133.137 C 164.524 133.565,168.034 134.043,170.648 134.199 C 173.261 134.356,177.021 134.812,179.001 135.213 C 180.982 135.613,184.641 136.225,187.132 136.573 C 189.623 136.920,191.986 137.378,192.382 137.590 C 193.469 138.172,201.596 139.516,206.894 139.990 C 211.057 140.363,212.060 140.612,215.760 142.192 C 218.054 143.172,221.162 144.278,222.666 144.649 C 224.170 145.021,227.560 146.359,230.200 147.623 C 232.840 148.887,235.450 150.050,236.000 150.207 C 236.550 150.363,237.481 151.007,238.069 151.637 C 238.657 152.266,240.144 153.486,241.374 154.348 C 242.604 155.209,245.383 157.561,247.550 159.573 C 249.717 161.586,252.218 163.704,253.108 164.282 C 253.998 164.859,255.139 166.066,255.642 166.965 C 256.146 167.864,257.487 169.516,258.623 170.635 C 259.995 171.989,260.774 173.128,260.948 174.035 C 261.092 174.786,261.792 176.089,262.505 176.930 C 265.441 180.400,269.311 187.242,272.270 194.195 C 273.112 196.172,274.325 198.390,274.966 199.123 C 275.630 199.882,276.584 201.848,277.185 203.696 C 278.683 208.302,280.221 208.899,281.515 205.377 C 282.684 202.194,281.920 190.865,280.410 189.003 C 279.488 187.866,278.204 179.922,278.653 178.131 C 279.341 175.390,281.298 178.642,282.231 184.076 C 282.582 186.124,283.108 188.070,283.399 188.400 C 286.430 191.834,287.642 200.966,287.613 220.140 C 287.588 236.562,286.675 242.898,283.580 248.145 C 283.155 248.864,282.556 250.881,282.249 252.626 C 281.639 256.089,280.404 259.179,278.023 263.200 C 277.176 264.630,276.283 266.439,276.037 267.220 C 275.792 268.000,274.863 269.440,273.974 270.420 C 273.084 271.399,272.024 272.940,271.617 273.844 C 271.209 274.748,269.488 277.310,267.790 279.536 C 265.164 282.980,263.685 284.696,259.462 289.200 C 257.474 291.320,253.642 294.689,252.800 295.057 C 252.250 295.297,251.055 296.103,250.144 296.847 C 244.749 301.255,242.711 302.624,240.459 303.351 C 238.052 304.129,235.359 305.757,234.283 307.085 C 233.888 307.572,232.943 308.067,232.183 308.185 C 231.422 308.303,230.188 308.495,229.440 308.611 C 228.692 308.726,227.447 309.251,226.672 309.777 C 223.560 311.889,212.217 314.805,207.129 314.802 C 205.475 314.801,204.256 314.998,203.929 315.319 C 202.304 316.915,196.497 318.307,189.400 318.801 C 182.967 319.249,143.676 318.850,144.482 318.345 C 144.767 318.166,147.880 318.117,151.400 318.235 C 157.761 318.450,167.245 318.001,172.600 317.233 C 177.330 316.555,184.254 315.965,192.000 315.579 C 201.205 315.121,202.851 314.892,203.075 314.036 C 203.381 312.864,209.698 310.822,215.552 310.002 C 219.114 309.503,220.463 308.900,223.154 306.602 C 224.670 305.308,225.690 304.776,227.040 304.573 C 229.020 304.276,233.586 302.057,235.200 300.607 C 235.750 300.113,236.802 299.508,237.538 299.262 C 238.274 299.016,240.098 297.732,241.591 296.408 C 243.085 295.083,244.428 294.000,244.575 294.000 C 245.437 294.000,249.578 290.656,250.118 289.524 C 250.466 288.796,251.661 287.343,252.775 286.295 C 256.121 283.147,254.402 282.209,250.207 284.892 C 249.770 285.172,248.690 285.864,247.807 286.431 C 246.923 286.999,245.471 287.748,244.580 288.096 C 243.688 288.445,242.068 289.277,240.980 289.946 C 238.459 291.494,233.019 294.179,231.207 294.769 C 230.441 295.019,229.271 295.748,228.607 296.390 C 227.660 297.305,226.796 297.652,224.600 298.001 C 223.060 298.246,221.080 298.786,220.200 299.203 C 215.603 301.378,211.264 302.750,208.200 302.997 C 203.431 303.382,199.664 303.997,197.200 304.791 C 182.788 309.439,136.656 309.430,123.200 304.777 C 121.990 304.359,119.290 303.722,117.200 303.362 C 115.110 303.002,112.140 302.266,110.600 301.726 C 109.060 301.186,107.170 300.556,106.400 300.327 C 105.630 300.097,104.190 299.506,103.200 299.012 C 102.210 298.518,100.904 297.995,100.298 297.849 C 98.842 297.499,92.225 291.461,90.200 288.637 C 89.320 287.409,88.480 286.403,88.333 286.402 C 86.836 286.390,86.226 283.389,86.308 276.444 L 86.391 269.463 88.095 266.721 C 91.188 261.745,91.559 261.029,91.810 259.540 C 92.126 257.669,99.342 250.374,103.713 247.505 C 105.301 246.463,107.214 245.158,107.964 244.605 C 108.715 244.052,109.543 243.600,109.804 243.600 C 110.066 243.600,111.028 243.058,111.943 242.395 C 112.936 241.676,114.853 240.879,116.703 240.416 C 120.403 239.490,124.263 238.251,127.000 237.112 C 131.936 235.057,133.362 235.729,133.722 240.278 C 133.981 243.548,133.302 245.070,130.905 246.590 C 127.131 248.985,126.042 249.518,124.413 249.766 C 123.248 249.943,121.925 250.571,120.613 251.571 C 119.506 252.414,117.311 253.828,115.735 254.712 C 110.355 257.731,106.178 263.372,105.724 268.233 C 105.046 275.489,108.193 279.910,117.278 284.467 C 123.009 287.342,123.576 287.520,129.890 288.422 C 133.141 288.887,136.880 289.513,138.200 289.815 C 148.718 292.216,178.648 292.110,192.400 289.623 C 193.610 289.405,196.977 289.026,199.882 288.781 C 205.459 288.312,207.271 287.919,211.800 286.194 C 213.340 285.608,216.259 284.624,218.286 284.007 C 220.313 283.391,222.406 282.553,222.935 282.144 C 223.465 281.735,224.507 280.927,225.250 280.348 C 225.992 279.769,227.763 278.889,229.185 278.392 C 230.796 277.828,232.653 276.753,234.114 275.537 C 235.402 274.465,237.165 273.226,238.030 272.785 C 239.857 271.853,249.528 262.247,251.304 259.600 C 251.969 258.610,253.285 256.990,254.230 256.000 C 255.175 255.010,256.312 253.267,256.758 252.126 C 257.203 250.985,258.376 248.555,259.363 246.726 C 265.723 234.943,267.632 216.835,263.752 205.082 C 263.185 203.367,262.486 200.847,262.198 199.482 C 261.905 198.095,261.030 195.941,260.215 194.600 C 259.413 193.280,258.048 190.715,257.182 188.900 C 256.316 187.085,255.439 185.600,255.233 185.600 C 255.027 185.600,254.602 185.086,254.289 184.458 C 253.591 183.058,248.454 176.800,248.003 176.800 C 247.824 176.800,246.715 175.912,245.539 174.826 C 243.330 172.787,241.437 171.315,239.460 170.100 C 238.833 169.715,237.573 168.869,236.660 168.220 C 234.471 166.665,231.385 165.039,229.400 164.396 C 228.520 164.111,227.170 163.481,226.400 162.997 C 225.630 162.513,224.550 161.976,224.000 161.803 C 223.450 161.631,222.584 161.165,222.076 160.768 C 221.165 160.057,220.338 159.848,213.600 158.626 C 205.814 157.213,202.784 156.747,198.800 156.350 C 196.490 156.119,193.250 155.600,191.600 155.196 C 188.237 154.373,184.367 153.765,180.200 153.406 C 178.660 153.273,176.749 152.971,175.952 152.735 C 174.360 152.262,171.224 153.661,170.392 155.215 C 170.144 155.679,170.005 177.620,170.011 215.592 C 170.019 274.249,170.006 275.272,169.224 277.038 L 168.430 278.835 158.003 278.765 L 147.576 278.696 146.061 277.598 C 145.227 276.994,144.169 276.381,143.709 276.235 C 142.332 275.798,142.353 276.846,142.406 210.408 C 142.466 135.379,142.539 141.835,141.603 140.029 C 140.547 137.992,136.753 134.461,132.832 131.866 C 130.562 130.365,129.296 129.240,128.951 128.419 C 128.669 127.749,128.025 127.003,127.519 126.761 C 125.840 125.958,118.646 113.851,118.175 111.037 C 118.025 110.137,117.373 107.690,116.728 105.600 C 114.423 98.143,114.304 86.512,116.581 91.300 M136.771 108.585 C 138.646 109.554,138.839 111.206,137.076 111.195 C 135.480 111.185,134.505 110.744,134.002 109.804 C 133.078 108.076,134.541 107.432,136.771 108.585 M145.275 112.997 C 149.859 114.081,152.589 115.099,156.034 117.007 C 156.666 117.358,159.848 117.818,164.234 118.194 C 173.191 118.961,178.449 119.801,180.331 120.766 L 181.788 121.514 178.704 121.803 C 172.148 122.417,160.584 121.490,157.070 120.067 C 155.348 119.370,153.380 118.800,152.696 118.800 C 152.002 118.800,151.075 118.446,150.600 118.000 C 150.132 117.560,148.699 117.006,147.415 116.769 C 143.684 116.079,139.204 113.765,139.784 112.827 C 140.153 112.229,142.309 112.296,145.275 112.997 M205.522 183.700 C 204.549 184.470,203.723 187.626,202.745 194.305 L 201.851 200.410 202.677 201.505 C 203.543 202.654,203.654 202.670,207.500 202.171 L 209.600 201.898 210.414 203.739 C 212.247 207.882,211.810 213.821,209.334 218.400 C 206.854 222.988,204.546 224.679,197.066 227.386 C 193.350 228.731,191.790 228.993,181.621 229.976 C 177.009 230.422,174.762 233.893,176.362 238.100 C 177.818 241.928,201.991 237.443,207.861 232.256 C 208.892 231.345,210.547 230.060,211.539 229.400 C 216.873 225.851,219.987 215.293,218.202 206.809 C 217.454 203.251,217.975 201.580,220.160 200.538 C 222.037 199.643,222.138 199.179,220.944 196.934 C 219.617 194.438,217.830 192.421,215.932 191.277 C 215.089 190.770,214.400 190.195,214.400 190.000 C 214.400 189.285,209.820 184.725,208.349 183.974 C 206.562 183.062,206.353 183.042,205.522 183.700 M210.949 188.679 C 211.472 189.073,212.282 189.978,212.748 190.689 C 213.214 191.400,214.323 192.353,215.213 192.807 C 218.217 194.339,219.222 197.953,217.112 199.633 C 215.811 200.669,215.587 203.235,216.438 207.358 C 217.842 214.159,217.249 217.920,214.206 221.525 C 213.573 222.274,212.937 223.653,212.742 224.701 C 212.347 226.814,211.194 228.250,209.614 228.597 C 209.016 228.728,207.824 229.563,206.964 230.452 C 204.872 232.613,203.046 233.493,199.533 234.033 C 197.920 234.281,195.970 234.753,195.200 235.081 C 194.430 235.410,192.720 235.929,191.400 236.235 C 190.080 236.540,188.016 237.062,186.813 237.395 C 181.319 238.915,178.593 238.161,178.996 235.232 C 179.408 232.236,180.887 231.699,192.322 230.399 C 197.849 229.770,202.214 227.990,207.496 224.210 C 212.610 220.550,216.012 208.562,213.299 203.763 C 210.756 199.263,210.149 198.862,207.199 199.726 C 204.912 200.397,204.020 200.267,203.963 199.257 C 203.864 197.513,204.108 194.968,204.463 194.036 C 204.680 193.466,205.025 192.100,205.230 191.000 C 206.035 186.679,207.506 186.082,210.949 188.679 " stroke="none" fill="#85211f" fill-rule="evenodd"></path><path id="path3" d="M0.000 200.000 L 0.000 400.000 200.000 400.000 L 400.000 400.000 400.000 200.000 L 400.000 0.000 200.000 0.000 L 0.000 0.000 0.000 200.000 M317.397 77.739 C 318.223 79.000,319.290 83.194,318.982 83.974 C 318.847 84.318,318.581 85.950,318.391 87.600 C 317.711 93.505,315.362 104.312,314.491 105.548 C 313.067 107.567,311.900 109.906,310.584 113.379 C 309.609 115.952,308.883 117.228,307.999 117.919 C 307.324 118.448,306.256 119.898,305.628 121.140 C 304.999 122.383,303.971 123.884,303.342 124.475 C 301.866 125.864,301.421 126.422,300.661 127.838 C 299.522 129.957,294.278 135.087,292.188 136.125 C 291.081 136.675,289.925 137.592,289.620 138.163 C 289.314 138.735,287.763 140.013,286.174 141.003 C 284.584 141.994,283.189 143.050,283.074 143.351 C 282.959 143.652,281.995 144.307,280.932 144.809 C 279.870 145.310,278.370 146.188,277.600 146.760 C 274.150 149.323,267.754 147.495,265.141 143.199 C 264.749 142.555,263.657 141.554,262.714 140.975 C 261.772 140.396,260.370 139.301,259.600 138.542 C 258.042 137.006,254.186 134.401,253.465 134.398 C 251.876 134.390,249.686 133.282,247.509 131.383 C 246.132 130.182,244.876 129.200,244.718 129.200 C 240.307 129.200,236.757 123.239,240.543 122.189 C 241.014 122.058,242.840 121.255,244.600 120.405 C 249.247 118.159,251.347 117.395,255.535 116.425 C 257.845 115.890,260.438 114.935,262.335 113.920 C 264.021 113.018,266.023 111.947,266.785 111.540 C 267.546 111.133,268.356 110.797,268.585 110.793 C 269.605 110.777,275.636 108.041,276.787 107.072 C 277.488 106.482,278.760 105.888,279.614 105.751 C 280.541 105.603,282.261 104.721,283.883 103.562 C 285.377 102.494,287.650 101.066,288.934 100.388 C 290.217 99.710,292.017 98.469,292.934 97.631 C 293.850 96.793,295.171 95.816,295.869 95.459 C 297.334 94.711,297.508 94.556,305.100 87.199 C 308.235 84.161,310.800 81.415,310.800 81.097 C 310.800 78.317,316.031 75.654,317.397 77.739 M117.130 79.300 C 117.571 80.235,118.051 81.755,118.197 82.677 C 118.343 83.599,118.707 84.557,119.006 84.805 C 119.304 85.052,119.666 85.792,119.810 86.448 C 119.954 87.103,120.759 88.306,121.598 89.120 C 122.436 89.934,123.384 91.235,123.704 92.012 C 124.024 92.789,125.051 94.139,125.985 95.012 C 126.920 95.885,128.115 97.270,128.640 98.088 C 129.421 99.305,130.015 99.697,131.898 100.236 C 133.640 100.736,134.600 101.322,135.846 102.645 C 137.156 104.038,138.080 104.578,140.381 105.297 C 142.152 105.851,143.835 106.701,144.732 107.497 C 146.680 109.224,150.136 110.252,154.992 110.547 C 158.427 110.757,159.376 110.980,161.792 112.148 C 167.215 114.771,170.075 115.293,182.963 116.016 C 190.845 116.458,195.313 117.070,198.800 118.184 C 199.790 118.500,201.680 119.013,203.000 119.322 C 204.320 119.632,206.930 120.261,208.800 120.720 C 210.670 121.180,214.000 121.862,216.200 122.236 C 221.944 123.213,225.200 124.889,225.200 126.869 C 225.200 127.093,225.568 127.794,226.019 128.426 L 226.837 129.575 225.888 129.814 C 225.366 129.945,223.333 129.747,221.369 129.374 C 218.463 128.823,216.352 128.738,210.000 128.919 C 205.710 129.041,198.240 129.005,193.400 128.840 C 182.071 128.453,175.397 128.825,174.318 129.904 C 173.481 130.742,179.672 131.578,191.400 132.212 C 197.590 132.546,201.168 133.102,202.613 133.954 C 205.110 135.428,209.091 136.479,214.400 137.067 C 219.349 137.615,220.100 137.810,223.400 139.407 C 225.380 140.365,228.881 141.794,231.181 142.581 C 233.481 143.368,235.731 144.345,236.181 144.752 C 236.631 145.158,238.333 146.260,239.962 147.199 C 241.591 148.139,243.964 149.864,245.234 151.032 C 246.505 152.200,248.232 153.508,249.072 153.940 C 249.913 154.371,250.951 155.326,251.381 156.062 C 252.348 157.719,253.431 158.648,255.040 159.198 C 255.828 159.468,256.728 160.314,257.509 161.519 C 258.185 162.563,259.447 163.986,260.314 164.683 C 261.356 165.520,261.978 166.398,262.151 167.275 C 262.295 168.004,262.945 169.140,263.595 169.800 C 266.047 172.288,266.924 173.477,268.259 176.123 C 269.221 178.028,270.050 179.093,271.020 179.665 C 272.380 180.467,272.524 180.758,272.981 183.622 C 273.105 184.405,273.557 185.731,273.984 186.569 L 274.761 188.093 275.033 187.012 C 275.751 184.149,274.980 180.782,273.242 179.193 C 271.723 177.805,271.600 177.537,271.600 175.617 C 271.600 173.325,270.185 167.067,269.381 165.805 C 269.100 165.362,268.643 164.190,268.367 163.200 C 268.090 162.210,267.520 161.012,267.099 160.539 C 264.857 158.017,265.137 152.400,267.505 152.400 C 268.590 152.400,273.200 156.903,273.200 157.963 C 273.200 158.319,273.602 158.788,274.093 159.005 C 274.584 159.222,275.207 159.850,275.477 160.400 C 275.747 160.950,276.416 161.760,276.964 162.200 C 277.512 162.640,278.505 164.201,279.171 165.670 C 279.890 167.258,280.694 168.440,281.155 168.586 C 282.473 169.004,283.759 171.966,284.982 177.400 C 285.332 178.954,286.977 182.307,288.056 183.663 C 288.711 184.487,288.979 185.611,289.249 188.663 C 289.706 193.843,290.395 198.436,290.841 199.274 C 292.987 203.305,294.277 223.841,292.734 229.400 C 292.367 230.720,291.671 233.780,291.186 236.200 C 290.702 238.620,290.070 241.590,289.783 242.800 C 289.496 244.010,289.135 246.800,288.982 249.000 C 288.692 253.171,288.339 254.400,287.433 254.400 C 286.893 254.400,286.597 255.123,284.398 261.830 C 283.499 264.569,282.717 266.071,281.209 267.950 C 279.945 269.524,278.978 271.241,278.577 272.619 C 278.229 273.818,277.641 275.074,277.272 275.409 C 274.859 277.598,273.555 279.131,273.364 280.000 C 272.934 281.959,272.440 282.719,270.860 283.852 C 269.980 284.484,268.696 285.860,268.007 286.912 C 267.317 287.963,266.149 289.220,265.410 289.704 C 264.671 290.188,263.504 291.443,262.817 292.492 C 262.131 293.542,261.402 294.400,261.198 294.400 C 260.994 294.400,260.146 295.042,259.313 295.827 C 258.481 296.612,257.350 297.673,256.800 298.184 C 256.250 298.695,255.131 299.324,254.313 299.583 C 253.357 299.886,252.214 300.775,251.113 302.073 C 249.901 303.502,248.581 304.485,246.600 305.434 C 245.060 306.172,242.944 307.486,241.899 308.353 C 240.661 309.380,239.405 310.030,238.299 310.216 C 235.810 310.634,232.723 312.110,230.909 313.749 C 229.656 314.881,228.704 315.315,226.424 315.795 C 224.832 316.130,222.192 316.853,220.557 317.402 C 218.921 317.951,217.102 318.400,216.513 318.400 C 215.925 318.400,214.786 318.856,213.982 319.412 C 212.188 320.656,209.743 321.046,201.605 321.388 C 198.198 321.532,193.667 321.993,191.537 322.412 C 189.406 322.832,185.995 323.379,183.956 323.627 C 181.916 323.875,179.821 324.240,179.299 324.438 C 177.495 325.124,172.971 325.257,165.800 324.835 C 151.429 323.989,146.128 323.574,142.400 323.003 C 140.310 322.683,135.990 322.140,132.800 321.796 C 121.797 320.612,120.681 320.422,118.721 319.397 C 117.673 318.849,116.564 318.400,116.257 318.400 C 115.950 318.400,114.371 317.875,112.749 317.234 C 111.127 316.593,108.810 315.790,107.600 315.450 C 105.113 314.751,101.836 312.808,100.691 311.353 C 100.270 310.816,99.249 310.033,98.424 309.612 C 94.995 307.863,93.818 305.553,95.400 303.673 C 96.799 302.011,96.675 301.592,94.308 299.989 C 93.162 299.213,91.626 297.773,90.894 296.789 C 90.162 295.805,88.345 293.740,86.857 292.200 C 84.607 289.872,84.034 288.995,83.462 287.000 C 83.083 285.680,82.464 283.700,82.086 282.600 C 81.214 280.059,81.226 274.878,82.111 271.725 C 82.469 270.446,83.146 267.670,83.614 265.555 C 84.082 263.440,84.765 261.259,85.132 260.709 C 85.500 260.158,86.317 258.918,86.949 257.954 C 87.582 256.989,88.414 255.840,88.800 255.400 C 89.186 254.960,89.722 253.911,89.992 253.070 C 90.338 251.990,91.046 251.135,92.399 250.162 C 93.454 249.405,94.764 248.199,95.310 247.482 C 95.857 246.766,97.270 245.661,98.452 245.026 C 99.633 244.392,102.008 242.809,103.728 241.507 C 106.087 239.723,107.611 238.913,109.928 238.215 C 113.741 237.065,116.415 236.026,117.200 235.389 C 118.411 234.408,119.653 233.971,123.467 233.186 C 126.069 232.651,127.666 232.102,128.269 231.535 C 128.774 231.060,129.663 230.702,130.286 230.721 C 132.386 230.785,134.600 231.292,135.243 231.856 C 136.056 232.570,136.537 232.053,137.156 229.800 C 137.694 227.842,137.749 162.054,137.222 150.743 C 136.843 142.612,136.792 142.428,134.162 139.659 C 133.191 138.636,131.733 137.104,130.922 136.253 C 130.112 135.402,128.944 134.530,128.329 134.315 C 127.485 134.021,127.094 133.517,126.739 132.263 C 126.150 130.180,125.749 129.746,124.000 129.307 C 122.904 129.031,122.398 128.568,121.670 127.177 C 121.158 126.200,120.338 124.950,119.849 124.400 C 118.194 122.542,116.826 120.200,116.009 117.826 C 115.562 116.527,114.397 114.100,113.420 112.432 C 109.744 106.154,109.468 82.449,113.027 78.608 C 114.560 76.954,116.150 77.222,117.130 79.300 M140.800 120.000 C 140.800 120.220,141.250 120.400,141.800 120.400 C 142.350 120.400,142.800 120.220,142.800 120.000 C 142.800 119.780,142.350 119.600,141.800 119.600 C 141.250 119.600,140.800 119.780,140.800 120.000 M150.260 124.587 C 149.827 125.716,156.047 126.841,162.165 126.740 C 164.164 126.707,165.260 126.602,164.600 126.507 C 163.940 126.411,163.130 126.105,162.800 125.827 C 161.327 124.583,150.666 123.529,150.260 124.587 M177.186 158.014 C 174.645 158.431,174.783 157.301,174.975 176.223 C 175.072 185.778,175.233 193.733,175.334 193.898 C 175.435 194.064,175.360 195.189,175.167 196.399 C 174.367 201.426,174.648 213.309,175.617 215.437 L 176.507 217.392 175.654 218.875 C 174.607 220.694,174.429 225.572,175.375 226.518 C 176.487 227.630,183.440 227.798,186.432 226.785 C 187.844 226.306,190.068 225.816,191.374 225.695 C 192.879 225.556,194.230 225.149,195.064 224.582 C 195.788 224.091,197.450 223.500,198.757 223.270 C 203.269 222.476,206.298 219.208,207.046 214.330 C 207.192 213.379,207.532 212.150,207.801 211.600 C 208.326 210.526,208.284 210.201,207.320 207.916 L 206.693 206.433 203.888 206.316 C 199.441 206.132,197.726 202.174,199.505 196.200 C 200.026 194.452,200.437 191.597,200.600 188.600 C 200.922 182.687,201.675 180.925,204.265 180.026 C 206.457 179.266,210.125 180.049,211.136 181.494 C 211.501 182.015,212.841 183.468,214.113 184.721 C 215.385 185.974,218.310 188.852,220.613 191.117 C 222.916 193.381,224.800 195.425,224.800 195.659 C 224.800 195.893,225.250 196.619,225.800 197.273 C 226.495 198.099,226.800 198.940,226.800 200.031 C 226.800 202.464,225.778 203.191,221.600 203.731 C 220.782 203.836,220.626 205.388,221.182 207.876 C 221.805 210.661,221.055 220.519,220.011 223.267 C 218.928 226.117,215.199 230.585,212.943 231.735 C 212.252 232.088,211.120 233.091,210.428 233.965 C 209.526 235.103,208.521 235.791,206.885 236.390 C 204.570 237.236,202.961 237.943,200.368 239.252 C 197.975 240.460,194.814 241.097,189.789 241.383 C 183.915 241.717,180.696 242.230,178.600 243.163 C 177.720 243.556,176.505 244.080,175.900 244.330 C 175.171 244.630,174.792 245.089,174.776 245.691 C 174.477 257.211,174.736 276.933,175.199 277.798 C 175.717 278.766,175.652 278.918,173.973 280.657 C 170.810 283.933,170.596 283.975,158.216 283.752 C 136.688 283.364,137.400 283.993,137.400 265.379 C 137.400 251.277,137.275 250.303,135.584 251.208 C 135.182 251.424,133.896 251.606,132.726 251.614 C 131.469 251.622,129.946 251.943,129.000 252.400 C 128.120 252.825,127.175 253.179,126.900 253.186 C 126.625 253.194,125.443 254.165,124.273 255.344 C 122.514 257.117,121.828 257.535,120.301 257.764 C 118.762 257.995,118.322 258.267,117.654 259.399 C 117.213 260.146,116.114 261.223,115.211 261.793 C 114.308 262.363,113.405 263.261,113.204 263.789 C 113.004 264.316,111.935 265.746,110.830 266.967 C 108.549 269.485,108.544 269.344,111.035 273.204 C 112.689 275.768,113.760 276.669,119.000 279.908 C 120.486 280.827,122.029 281.320,125.000 281.829 C 127.200 282.205,129.396 282.755,129.879 283.052 C 135.055 286.227,138.460 286.588,163.200 286.590 C 190.997 286.592,198.614 285.916,202.436 283.106 C 203.049 282.655,204.680 282.186,206.436 281.955 C 213.155 281.073,217.070 279.819,219.794 277.676 C 220.353 277.237,221.752 276.667,222.905 276.409 C 226.178 275.676,227.146 275.195,228.393 273.682 C 229.031 272.908,230.360 271.808,231.345 271.237 C 233.014 270.271,235.404 268.394,240.146 264.323 C 243.928 261.076,250.283 253.750,250.549 252.330 C 250.687 251.595,251.613 250.006,252.608 248.797 C 253.602 247.589,254.593 245.950,254.809 245.155 C 255.025 244.360,255.654 243.043,256.207 242.228 C 259.602 237.225,260.211 233.760,260.147 219.800 C 260.080 205.348,259.431 201.459,256.570 198.395 C 256.054 197.842,255.393 196.492,255.102 195.395 C 254.429 192.863,253.331 190.800,252.658 190.800 C 251.980 190.800,249.799 187.726,249.446 186.276 C 249.216 185.330,248.275 184.250,245.000 181.174 C 244.780 180.967,243.880 180.087,243.000 179.217 C 242.120 178.348,240.590 177.210,239.600 176.688 C 238.610 176.167,237.383 175.124,236.873 174.370 C 235.780 172.755,235.070 172.322,231.600 171.154 C 229.934 170.594,228.551 169.806,227.750 168.964 C 227.016 168.192,225.694 167.404,224.550 167.057 C 217.828 165.017,215.601 164.400,214.963 164.400 C 214.568 164.400,213.753 163.929,213.152 163.354 C 211.929 162.182,210.212 161.961,196.400 161.196 C 186.766 160.662,185.151 160.442,184.144 159.524 C 183.093 158.565,179.102 157.699,177.186 158.014 M107.700 306.900 C 107.908 307.525,108.966 307.745,110.232 307.428 C 111.843 307.023,111.319 306.400,109.367 306.400 C 108.078 306.400,107.583 306.549,107.700 306.900 M131.800 312.023 C 132.680 312.205,135.920 312.342,139.000 312.327 C 143.105 312.307,144.119 312.214,142.800 311.980 C 140.304 311.535,129.646 311.577,131.800 312.023 M175.600 312.000 C 174.663 312.197,175.588 312.296,178.400 312.300 C 180.710 312.303,183.140 312.168,183.800 312.000 C 185.383 311.597,177.514 311.597,175.600 312.000 " stroke="none" fill="#040404" fill-rule="evenodd"></path><path id="path4" d="M314.000 77.363 C 312.615 77.860,310.800 79.978,310.800 81.097 C 310.800 81.415,308.235 84.161,305.100 87.199 C 297.508 94.556,297.334 94.711,295.869 95.459 C 295.171 95.816,293.850 96.793,292.934 97.631 C 292.017 98.469,290.217 99.710,288.934 100.388 C 287.650 101.066,285.377 102.494,283.883 103.562 C 282.261 104.721,280.541 105.603,279.614 105.751 C 278.760 105.888,277.488 106.482,276.787 107.072 C 275.636 108.041,269.605 110.777,268.585 110.793 C 268.356 110.797,267.546 111.133,266.785 111.540 C 266.023 111.947,264.021 113.018,262.335 113.920 C 260.438 114.935,257.845 115.890,255.535 116.425 C 251.347 117.395,249.247 118.159,244.600 120.405 C 242.840 121.255,241.014 122.058,240.543 122.189 C 236.757 123.239,240.307 129.200,244.718 129.200 C 244.876 129.200,246.132 130.182,247.509 131.383 C 249.686 133.282,251.876 134.390,253.465 134.398 C 254.186 134.401,258.042 137.006,259.600 138.542 C 260.370 139.301,261.772 140.396,262.714 140.975 C 263.657 141.554,264.749 142.555,265.141 143.199 C 267.754 147.495,274.150 149.323,277.600 146.760 C 278.370 146.188,279.870 145.310,280.932 144.809 C 281.995 144.307,282.959 143.652,283.074 143.351 C 283.189 143.050,284.584 141.994,286.174 141.003 C 287.763 140.013,289.314 138.735,289.620 138.163 C 289.925 137.592,291.081 136.675,292.188 136.125 C 294.278 135.087,299.522 129.957,300.661 127.838 C 301.421 126.422,301.866 125.864,303.342 124.475 C 303.971 123.884,304.999 122.383,305.628 121.140 C 306.256 119.898,307.324 118.448,307.999 117.919 C 308.883 117.228,309.609 115.952,310.584 113.379 C 311.900 109.906,313.067 107.567,314.491 105.548 C 315.362 104.312,317.711 93.505,318.391 87.600 C 318.581 85.950,318.847 84.318,318.982 83.974 C 319.290 83.194,318.223 79.000,317.397 77.739 C 316.713 76.695,316.062 76.623,314.000 77.363 M113.027 78.608 C 111.188 80.593,110.702 84.028,110.767 94.600 C 110.841 106.656,111.115 108.495,113.420 112.432 C 114.397 114.100,115.562 116.527,116.009 117.826 C 116.826 120.200,118.194 122.542,119.849 124.400 C 120.338 124.950,121.158 126.200,121.670 127.177 C 122.398 128.568,122.904 129.031,124.000 129.307 C 125.749 129.746,126.150 130.180,126.739 132.263 C 127.094 133.517,127.485 134.021,128.329 134.315 C 128.944 134.530,130.112 135.402,130.922 136.253 C 137.339 142.986,136.803 141.755,137.222 150.743 C 137.749 162.054,137.694 227.842,137.156 229.800 C 136.537 232.053,136.056 232.570,135.243 231.856 C 134.600 231.292,132.386 230.785,130.286 230.721 C 129.663 230.702,128.774 231.060,128.269 231.535 C 127.666 232.102,126.069 232.651,123.467 233.186 C 119.653 233.971,118.411 234.408,117.200 235.389 C 116.415 236.026,113.741 237.065,109.928 238.215 C 107.611 238.913,106.087 239.723,103.728 241.507 C 102.008 242.809,99.633 244.392,98.452 245.026 C 97.270 245.661,95.857 246.766,95.310 247.482 C 94.764 248.199,93.454 249.405,92.399 250.162 C 91.046 251.135,90.338 251.990,89.992 253.070 C 89.722 253.911,89.186 254.960,88.800 255.400 C 88.414 255.840,87.582 256.989,86.949 257.954 C 86.317 258.918,85.500 260.158,85.132 260.709 C 84.765 261.259,84.082 263.440,83.614 265.555 C 83.146 267.670,82.469 270.446,82.111 271.725 C 81.226 274.878,81.214 280.059,82.086 282.600 C 82.464 283.700,83.083 285.680,83.462 287.000 C 84.034 288.995,84.607 289.872,86.857 292.200 C 88.345 293.740,90.162 295.805,90.894 296.789 C 91.626 297.773,93.162 299.213,94.308 299.989 C 96.675 301.592,96.799 302.011,95.400 303.673 C 93.818 305.553,94.995 307.863,98.424 309.612 C 99.249 310.033,100.270 310.816,100.691 311.353 C 101.836 312.808,105.113 314.751,107.600 315.450 C 108.810 315.790,111.127 316.593,112.749 317.234 C 114.371 317.875,115.950 318.400,116.257 318.400 C 116.564 318.400,117.673 318.849,118.721 319.397 C 120.681 320.422,121.797 320.612,132.800 321.796 C 135.990 322.140,140.310 322.683,142.400 323.003 C 146.128 323.574,151.429 323.989,165.800 324.835 C 172.971 325.257,177.495 325.124,179.299 324.438 C 179.821 324.240,181.916 323.875,183.956 323.627 C 185.995 323.379,189.406 322.832,191.537 322.412 C 193.667 321.993,198.198 321.532,201.605 321.388 C 209.743 321.046,212.188 320.656,213.982 319.412 C 214.786 318.856,215.925 318.400,216.513 318.400 C 217.102 318.400,218.921 317.951,220.557 317.402 C 222.192 316.853,224.832 316.130,226.424 315.795 C 228.704 315.315,229.656 314.881,230.909 313.749 C 232.723 312.110,235.810 310.634,238.299 310.216 C 239.405 310.030,240.661 309.380,241.899 308.353 C 242.944 307.486,245.060 306.172,246.600 305.434 C 248.581 304.485,249.901 303.502,251.113 302.073 C 252.214 300.775,253.357 299.886,254.313 299.583 C 255.131 299.324,256.250 298.695,256.800 298.184 C 257.350 297.673,258.481 296.612,259.313 295.827 C 260.146 295.042,260.994 294.400,261.198 294.400 C 261.402 294.400,262.131 293.542,262.817 292.492 C 263.504 291.443,264.671 290.188,265.410 289.704 C 266.149 289.220,267.317 287.963,268.007 286.912 C 268.696 285.860,269.980 284.484,270.860 283.852 C 272.440 282.719,272.934 281.959,273.364 280.000 C 273.555 279.131,274.859 277.598,277.272 275.409 C 277.641 275.074,278.229 273.818,278.577 272.619 C 278.978 271.241,279.945 269.524,281.209 267.950 C 282.717 266.071,283.499 264.569,284.398 261.830 C 286.597 255.123,286.893 254.400,287.433 254.400 C 288.339 254.400,288.692 253.171,288.982 249.000 C 289.135 246.800,289.496 244.010,289.783 242.800 C 290.070 241.590,290.702 238.620,291.186 236.200 C 291.671 233.780,292.367 230.720,292.734 229.400 C 294.277 223.841,292.987 203.305,290.841 199.274 C 290.395 198.436,289.706 193.843,289.249 188.663 C 288.979 185.611,288.711 184.487,288.056 183.663 C 286.977 182.307,285.332 178.954,284.982 177.400 C 283.759 171.966,282.473 169.004,281.155 168.586 C 280.694 168.440,279.890 167.258,279.171 165.670 C 278.505 164.201,277.512 162.640,276.964 162.200 C 276.416 161.760,275.747 160.950,275.477 160.400 C 275.207 159.850,274.584 159.222,274.093 159.005 C 273.602 158.788,273.200 158.319,273.200 157.963 C 273.200 156.903,268.590 152.400,267.505 152.400 C 265.137 152.400,264.857 158.017,267.099 160.539 C 267.520 161.012,268.090 162.210,268.367 163.200 C 268.643 164.190,269.100 165.362,269.381 165.805 C 270.185 167.067,271.600 173.325,271.600 175.617 C 271.600 177.537,271.723 177.805,273.242 179.193 C 274.980 180.782,275.751 184.149,275.033 187.012 L 274.761 188.093 273.984 186.569 C 273.557 185.731,273.105 184.405,272.981 183.622 C 272.524 180.758,272.380 180.467,271.020 179.665 C 270.050 179.093,269.221 178.028,268.259 176.123 C 266.924 173.477,266.047 172.288,263.595 169.800 C 262.945 169.140,262.295 168.004,262.151 167.275 C 261.978 166.398,261.356 165.520,260.314 164.683 C 259.447 163.986,258.185 162.563,257.509 161.519 C 256.728 160.314,255.828 159.468,255.040 159.198 C 253.431 158.648,252.348 157.719,251.381 156.062 C 250.951 155.326,249.913 154.371,249.072 153.940 C 248.232 153.508,246.505 152.200,245.234 151.032 C 243.964 149.864,241.591 148.139,239.962 147.199 C 238.333 146.260,236.631 145.158,236.181 144.752 C 235.731 144.345,233.481 143.368,231.181 142.581 C 228.881 141.794,225.380 140.365,223.400 139.407 C 220.100 137.810,219.349 137.615,214.400 137.067 C 209.091 136.479,205.110 135.428,202.613 133.954 C 201.168 133.102,197.590 132.546,191.400 132.212 C 179.672 131.578,173.481 130.742,174.318 129.904 C 175.397 128.825,182.071 128.453,193.400 128.840 C 198.240 129.005,205.710 129.041,210.000 128.919 C 216.352 128.738,218.463 128.823,221.369 129.374 C 223.333 129.747,225.366 129.945,225.888 129.814 L 226.837 129.575 226.019 128.426 C 225.568 127.794,225.200 127.093,225.200 126.869 C 225.200 124.889,221.944 123.213,216.200 122.236 C 214.000 121.862,210.670 121.180,208.800 120.720 C 206.930 120.261,204.320 119.632,203.000 119.322 C 201.680 119.013,199.790 118.500,198.800 118.184 C 195.313 117.070,190.845 116.458,182.963 116.016 C 170.075 115.293,167.215 114.771,161.792 112.148 C 159.376 110.980,158.427 110.757,154.992 110.547 C 150.136 110.252,146.680 109.224,144.732 107.497 C 143.835 106.701,142.152 105.851,140.381 105.297 C 138.080 104.578,137.156 104.038,135.846 102.645 C 134.600 101.322,133.640 100.736,131.898 100.236 C 130.015 99.697,129.421 99.305,128.640 98.088 C 128.115 97.270,126.920 95.885,125.985 95.012 C 125.051 94.139,124.024 92.789,123.704 92.012 C 123.384 91.235,122.436 89.934,121.598 89.120 C 120.759 88.306,119.954 87.103,119.810 86.448 C 119.666 85.792,119.304 85.052,119.006 84.805 C 118.707 84.557,118.343 83.599,118.197 82.677 C 117.465 78.050,115.198 76.266,113.027 78.608 M317.147 82.594 C 317.378 83.428,317.252 84.984,316.759 87.413 C 316.359 89.386,316.022 91.720,316.010 92.600 C 315.978 94.977,314.317 100.939,312.612 104.800 C 311.786 106.670,310.738 109.190,310.284 110.400 C 309.830 111.610,308.635 113.822,307.629 115.314 C 306.623 116.807,305.290 118.867,304.667 119.891 C 304.044 120.915,302.810 122.573,301.926 123.576 C 301.041 124.579,299.995 126.031,299.601 126.802 C 299.206 127.573,298.049 128.804,297.028 129.537 C 296.008 130.269,294.878 131.319,294.517 131.870 C 294.157 132.420,292.543 133.846,290.931 135.038 C 289.319 136.230,288.000 137.361,288.000 137.550 C 288.000 137.928,281.432 142.522,277.489 144.903 C 273.525 147.296,269.560 146.445,266.601 142.565 C 266.037 141.826,264.726 140.641,263.688 139.931 C 262.650 139.221,261.040 137.886,260.111 136.963 C 259.152 136.010,256.647 134.376,254.311 133.180 C 252.050 132.021,249.660 130.670,249.000 130.177 C 248.340 129.684,246.601 128.741,245.137 128.082 C 242.428 126.863,240.916 125.317,241.343 124.204 C 241.665 123.364,249.006 120.251,253.188 119.180 C 254.172 118.928,255.342 118.465,255.788 118.151 C 256.235 117.837,257.320 117.387,258.200 117.152 C 260.248 116.603,267.009 113.756,268.684 112.736 C 269.390 112.307,271.371 111.464,273.087 110.863 C 274.803 110.263,277.195 109.116,278.403 108.316 C 279.611 107.515,281.590 106.479,282.800 106.013 C 284.010 105.547,286.080 104.377,287.400 103.414 C 288.720 102.450,291.180 100.832,292.866 99.818 C 297.114 97.264,312.400 83.440,312.400 82.152 C 312.400 79.501,316.396 79.874,317.147 82.594 M117.830 85.830 C 120.220 91.233,127.698 100.142,131.047 101.576 C 132.173 102.059,133.689 103.067,134.416 103.817 C 135.262 104.689,136.642 105.482,138.248 106.016 C 139.628 106.475,141.171 107.175,141.678 107.571 C 144.176 109.524,148.965 111.273,153.200 111.778 C 154.410 111.923,156.120 112.375,157.000 112.783 C 161.565 114.899,168.119 116.211,177.017 116.791 C 180.326 117.007,184.826 117.553,187.017 118.005 C 189.207 118.457,192.710 119.086,194.800 119.404 C 196.890 119.722,199.590 120.260,200.800 120.601 C 204.044 121.513,208.769 122.370,210.644 122.386 C 211.713 122.395,212.795 122.744,213.736 123.382 C 214.532 123.923,215.952 124.570,216.892 124.821 C 223.232 126.516,219.217 127.689,208.800 127.186 C 204.730 126.990,195.010 126.640,187.200 126.408 C 179.390 126.177,172.280 125.820,171.400 125.615 C 170.520 125.411,166.380 124.698,162.200 124.031 C 158.020 123.365,154.060 122.648,153.400 122.439 C 150.236 121.436,144.246 119.170,143.818 118.815 C 143.554 118.596,142.158 118.169,140.715 117.867 C 139.203 117.550,137.702 116.953,137.171 116.458 C 136.664 115.986,135.833 115.600,135.325 115.600 C 134.131 115.600,134.147 115.923,135.363 116.386 C 135.973 116.618,136.423 117.196,136.592 117.966 C 136.905 119.389,139.049 121.221,141.765 122.385 C 142.794 122.826,144.213 123.618,144.918 124.145 C 146.970 125.679,149.747 126.714,153.593 127.377 C 155.564 127.718,157.947 128.287,158.888 128.643 C 159.830 128.999,162.400 129.637,164.600 130.060 C 166.800 130.483,169.500 131.089,170.600 131.405 C 171.700 131.722,176.789 132.343,181.910 132.785 C 187.568 133.274,191.647 133.809,192.310 134.148 C 192.909 134.455,194.570 134.840,196.000 135.002 C 197.430 135.164,200.670 135.797,203.200 136.408 C 205.730 137.019,208.970 137.638,210.400 137.785 C 215.024 138.260,217.711 138.843,219.575 139.777 C 220.579 140.280,223.380 141.373,225.800 142.206 C 230.380 143.781,235.347 146.067,235.807 146.811 C 235.954 147.049,237.002 147.681,238.137 148.217 C 240.369 149.271,245.590 153.216,249.902 157.106 C 251.386 158.445,253.410 160.176,254.400 160.954 C 255.390 161.731,256.560 162.892,257.000 163.534 C 257.440 164.176,258.832 166.028,260.093 167.651 C 264.378 173.164,264.991 174.066,270.299 182.685 C 271.233 184.202,272.449 186.595,273.001 188.004 C 273.553 189.412,274.499 191.277,275.102 192.149 L 276.200 193.735 276.476 191.567 C 276.968 187.703,276.152 179.803,275.001 177.289 C 274.445 176.076,273.892 174.344,273.771 173.442 C 273.649 172.539,273.127 170.810,272.610 169.600 C 271.683 167.433,270.615 164.322,269.315 160.000 C 268.951 158.790,268.538 157.710,268.397 157.600 C 268.257 157.490,268.028 157.091,267.888 156.713 C 267.524 155.726,268.280 155.428,268.780 156.362 C 269.010 156.793,269.520 157.248,269.913 157.372 C 270.306 157.497,270.926 158.094,271.292 158.699 C 271.658 159.305,273.127 161.042,274.555 162.559 C 277.085 165.248,277.677 166.220,278.179 168.514 C 278.323 169.175,278.802 169.773,279.355 169.983 C 280.707 170.497,282.189 173.297,283.846 178.464 C 284.646 180.959,285.839 184.080,286.498 185.400 C 287.418 187.245,287.909 189.188,288.619 193.800 C 289.128 197.100,289.854 201.150,290.234 202.800 C 291.081 206.477,291.294 229.056,290.518 232.800 C 290.267 234.010,289.602 237.610,289.039 240.800 C 288.476 243.990,287.654 247.500,287.212 248.600 C 286.769 249.700,285.608 253.065,284.632 256.078 C 283.463 259.686,282.163 262.731,280.822 265.001 C 279.702 266.897,278.250 269.562,277.594 270.924 C 276.428 273.343,275.816 274.280,273.334 277.447 C 272.664 278.301,272.045 279.211,271.958 279.468 C 271.773 280.017,267.154 285.535,264.000 288.977 C 260.503 292.793,256.331 296.679,254.659 297.679 C 253.811 298.185,252.517 299.104,251.783 299.720 C 249.444 301.684,245.032 304.800,244.592 304.800 C 244.358 304.800,242.773 305.681,241.068 306.757 C 239.363 307.834,236.851 309.124,235.484 309.624 C 234.118 310.125,231.279 311.389,229.175 312.433 C 227.071 313.478,223.291 314.901,220.775 315.597 C 218.259 316.293,215.210 317.197,214.000 317.606 C 210.758 318.703,203.761 319.969,197.400 320.610 C 194.320 320.920,187.696 321.608,182.680 322.137 C 173.259 323.131,151.789 323.060,149.067 322.026 C 148.534 321.823,143.891 321.358,138.749 320.993 C 132.494 320.548,128.407 320.061,126.400 319.521 C 124.750 319.078,122.320 318.457,121.000 318.142 C 112.146 316.031,104.673 312.650,102.998 309.997 C 102.444 309.119,101.812 308.400,101.595 308.400 C 101.378 308.400,101.200 308.195,101.200 307.944 C 101.200 307.359,105.045 307.773,105.856 308.447 C 106.170 308.707,108.229 309.073,110.431 309.259 C 112.634 309.445,114.945 309.861,115.568 310.183 C 116.190 310.505,117.858 310.954,119.275 311.180 C 120.691 311.406,122.918 311.965,124.225 312.422 C 128.798 314.020,167.006 314.751,183.396 313.554 C 190.258 313.052,199.213 310.967,197.962 310.162 C 197.260 309.710,187.470 309.873,177.200 310.507 C 157.194 311.743,126.291 310.326,120.600 307.913 C 116.550 306.195,114.664 305.655,110.432 305.001 C 105.331 304.213,97.017 300.214,93.445 296.831 C 88.632 292.271,84.901 287.417,84.434 285.109 C 82.613 276.094,83.588 266.480,86.797 261.800 C 87.400 260.920,88.470 259.056,89.174 257.658 C 90.621 254.784,95.932 249.012,99.545 246.387 C 103.998 243.151,109.707 239.640,110.942 239.379 C 112.625 239.022,118.028 236.984,121.000 235.586 C 125.469 233.482,132.605 232.899,136.149 234.348 C 137.513 234.905,138.175 234.293,138.687 232.000 C 139.234 229.552,139.029 144.018,138.473 142.379 C 138.015 141.032,132.480 135.463,129.549 133.400 C 128.923 132.960,128.046 131.831,127.599 130.890 C 127.038 129.710,126.334 128.967,125.324 128.490 C 124.239 127.978,123.286 126.903,121.631 124.323 C 117.685 118.173,117.192 117.301,116.432 115.132 C 116.021 113.959,115.218 112.010,114.646 110.800 C 114.075 109.590,113.604 108.150,113.599 107.600 C 113.594 107.050,113.242 105.493,112.818 104.139 C 111.673 100.488,111.461 86.820,112.519 84.882 C 114.468 81.313,115.950 81.578,117.830 85.830 M142.800 120.000 C 142.800 120.220,142.350 120.400,141.800 120.400 C 141.250 120.400,140.800 120.220,140.800 120.000 C 140.800 119.780,141.250 119.600,141.800 119.600 C 142.350 119.600,142.800 119.780,142.800 120.000 M158.118 124.660 C 160.363 125.023,162.470 125.548,162.800 125.827 C 163.130 126.105,163.940 126.411,164.600 126.507 C 165.260 126.602,164.164 126.707,162.165 126.740 C 156.047 126.841,149.827 125.716,150.260 124.587 C 150.561 123.804,152.961 123.826,158.118 124.660 M173.548 156.452 C 172.887 157.113,172.761 157.597,172.948 158.765 C 173.078 159.577,173.198 175.594,173.216 194.357 C 173.250 230.726,173.360 232.862,175.081 230.406 C 175.771 229.421,177.979 228.805,180.830 228.802 C 188.931 228.794,202.220 224.918,205.544 221.595 C 207.347 219.791,210.147 213.014,210.168 210.400 C 210.216 204.551,208.806 202.751,205.315 204.210 C 201.808 205.675,199.662 202.541,200.926 197.798 C 201.297 196.407,201.601 194.398,201.601 193.334 C 201.606 185.667,203.972 180.704,207.284 181.410 C 209.171 181.813,224.400 197.274,224.400 198.788 C 224.400 198.979,224.504 199.405,224.631 199.736 C 224.948 200.561,223.417 202.000,222.222 202.000 C 219.947 202.000,218.987 203.597,219.521 206.493 C 220.464 211.611,219.928 218.981,218.379 222.198 C 216.749 225.583,214.066 229.340,212.683 230.175 C 211.902 230.646,210.394 231.841,209.332 232.831 C 208.269 233.820,206.860 234.832,206.200 235.079 C 189.939 241.171,177.852 242.887,175.149 239.488 L 174.498 238.669 173.949 239.635 C 173.514 240.399,173.358 244.427,173.200 259.000 C 172.931 283.780,173.730 282.378,160.000 282.135 C 138.672 281.758,138.834 281.909,138.896 262.400 C 138.946 247.175,138.494 245.381,135.454 248.740 C 135.049 249.188,134.151 249.667,133.459 249.805 C 129.095 250.674,124.632 252.604,122.221 254.663 C 121.353 255.405,120.003 256.187,119.221 256.402 C 116.586 257.126,112.432 261.255,109.208 266.356 C 104.599 273.647,114.476 281.878,132.976 286.163 C 140.173 287.830,153.201 288.448,171.426 287.987 C 192.656 287.450,196.988 286.994,206.000 284.346 C 208.310 283.667,211.355 282.771,212.767 282.356 C 214.179 281.940,215.500 281.600,215.703 281.600 C 216.337 281.600,221.253 279.216,222.272 278.415 C 222.807 277.994,224.180 277.344,225.323 276.971 C 233.840 274.189,252.005 256.346,255.419 247.407 C 255.810 246.381,256.439 245.149,256.815 244.671 C 257.962 243.211,260.342 237.022,260.789 234.335 C 262.484 224.151,262.800 221.655,262.800 218.462 C 262.800 216.476,262.604 214.345,262.364 213.726 C 262.124 213.107,261.500 210.055,260.978 206.943 C 260.089 201.651,259.872 200.985,257.614 196.594 C 256.286 194.013,255.200 191.559,255.200 191.142 C 255.200 190.724,254.515 189.621,253.677 188.691 C 252.840 187.761,251.506 186.100,250.713 185.000 C 248.266 181.607,238.553 172.707,235.719 171.261 C 234.797 170.790,233.898 170.160,233.721 169.859 C 233.545 169.559,232.680 169.080,231.800 168.795 C 230.920 168.510,229.570 167.883,228.800 167.401 C 228.030 166.919,226.410 166.199,225.200 165.801 C 223.990 165.403,222.623 164.832,222.161 164.533 C 221.700 164.233,219.720 163.518,217.761 162.943 C 215.803 162.368,213.980 161.723,213.710 161.509 C 213.441 161.295,211.101 160.955,208.510 160.753 C 200.276 160.113,186.445 158.065,183.454 157.043 C 182.383 156.677,180.403 156.284,179.054 156.170 C 177.704 156.055,176.101 155.884,175.492 155.789 C 174.734 155.671,174.119 155.881,173.548 156.452 M184.144 159.524 C 185.151 160.442,186.766 160.662,196.400 161.196 C 210.212 161.961,211.929 162.182,213.152 163.354 C 213.753 163.929,214.568 164.400,214.963 164.400 C 215.601 164.400,217.828 165.017,224.550 167.057 C 225.694 167.404,227.016 168.192,227.750 168.964 C 228.551 169.806,229.934 170.594,231.600 171.154 C 235.070 172.322,235.780 172.755,236.873 174.370 C 237.383 175.124,238.610 176.167,239.600 176.688 C 240.590 177.210,242.120 178.348,243.000 179.217 C 243.880 180.087,244.780 180.967,245.000 181.174 C 248.275 184.250,249.216 185.330,249.446 186.276 C 249.799 187.726,251.980 190.800,252.658 190.800 C 253.331 190.800,254.429 192.863,255.102 195.395 C 255.393 196.492,256.054 197.842,256.570 198.395 C 259.431 201.459,260.080 205.348,260.147 219.800 C 260.211 233.760,259.602 237.225,256.207 242.228 C 255.654 243.043,255.025 244.360,254.809 245.155 C 254.593 245.950,253.602 247.589,252.608 248.797 C 251.613 250.006,250.687 251.595,250.549 252.330 C 250.283 253.750,243.928 261.076,240.146 264.323 C 235.404 268.394,233.014 270.271,231.345 271.237 C 230.360 271.808,229.031 272.908,228.393 273.682 C 227.146 275.195,226.178 275.676,222.905 276.409 C 221.752 276.667,220.353 277.237,219.794 277.676 C 217.070 279.819,213.155 281.073,206.436 281.955 C 204.680 282.186,203.049 282.655,202.436 283.106 C 198.614 285.916,190.997 286.592,163.200 286.590 C 138.460 286.588,135.055 286.227,129.879 283.052 C 129.396 282.755,127.200 282.205,125.000 281.829 C 122.029 281.320,120.486 280.827,119.000 279.908 C 113.760 276.669,112.689 275.768,111.035 273.204 C 108.544 269.344,108.549 269.485,110.830 266.967 C 111.935 265.746,113.004 264.316,113.204 263.789 C 113.405 263.261,114.308 262.363,115.211 261.793 C 116.114 261.223,117.213 260.146,117.654 259.399 C 118.322 258.267,118.762 257.995,120.301 257.764 C 121.828 257.535,122.514 257.117,124.273 255.344 C 125.443 254.165,126.625 253.194,126.900 253.186 C 127.175 253.179,128.120 252.825,129.000 252.400 C 129.946 251.943,131.469 251.622,132.726 251.614 C 133.896 251.606,135.182 251.424,135.584 251.208 C 137.275 250.303,137.400 251.277,137.400 265.379 C 137.400 283.993,136.688 283.364,158.216 283.752 C 170.596 283.975,170.810 283.933,173.973 280.657 C 175.652 278.918,175.717 278.766,175.199 277.798 C 174.736 276.933,174.477 257.211,174.776 245.691 C 174.792 245.089,175.171 244.630,175.900 244.330 C 176.505 244.080,177.720 243.556,178.600 243.163 C 180.696 242.230,183.915 241.717,189.789 241.383 C 194.814 241.097,197.975 240.460,200.368 239.252 C 202.961 237.943,204.570 237.236,206.885 236.390 C 208.521 235.791,209.526 235.103,210.428 233.965 C 211.120 233.091,212.252 232.088,212.943 231.735 C 215.199 230.585,218.928 226.117,220.011 223.267 C 221.055 220.519,221.805 210.661,221.182 207.876 C 220.626 205.388,220.782 203.836,221.600 203.731 C 225.778 203.191,226.800 202.464,226.800 200.031 C 226.800 198.940,226.495 198.099,225.800 197.273 C 225.250 196.619,224.800 195.893,224.800 195.659 C 224.800 195.425,222.916 193.381,220.613 191.117 C 218.310 188.852,215.385 185.974,214.113 184.721 C 212.841 183.468,211.501 182.015,211.136 181.494 C 210.125 180.049,206.457 179.266,204.265 180.026 C 201.675 180.925,200.922 182.687,200.600 188.600 C 200.437 191.597,200.026 194.452,199.505 196.200 C 197.726 202.174,199.441 206.132,203.888 206.316 L 206.693 206.433 207.320 207.916 C 208.284 210.201,208.326 210.526,207.801 211.600 C 207.532 212.150,207.192 213.379,207.046 214.330 C 206.298 219.208,203.269 222.476,198.757 223.270 C 197.450 223.500,195.788 224.091,195.064 224.582 C 194.230 225.149,192.879 225.556,191.374 225.695 C 190.068 225.816,187.844 226.306,186.432 226.785 C 183.440 227.798,176.487 227.630,175.375 226.518 C 174.429 225.572,174.607 220.694,175.654 218.875 L 176.507 217.392 175.617 215.437 C 174.648 213.309,174.367 201.426,175.167 196.399 C 175.360 195.189,175.435 194.064,175.334 193.898 C 174.858 193.115,174.811 158.840,175.286 158.547 C 177.025 157.472,182.563 158.082,184.144 159.524 M211.800 305.210 C 208.596 305.611,204.385 306.655,203.862 307.178 C 203.630 307.410,203.116 307.600,202.720 307.600 C 202.324 307.600,202.000 307.780,202.000 308.000 C 202.000 308.928,211.244 308.190,214.397 307.010 C 218.956 305.303,217.748 304.465,211.800 305.210 M111.200 306.792 C 111.200 307.729,108.008 307.827,107.700 306.900 C 107.583 306.549,108.078 306.400,109.367 306.400 C 110.375 306.400,111.200 306.577,111.200 306.792 M142.800 311.980 C 144.119 312.214,143.105 312.307,139.000 312.327 C 135.920 312.342,132.680 312.205,131.800 312.023 C 129.646 311.577,140.304 311.535,142.800 311.980 M183.800 312.000 C 183.140 312.168,180.710 312.303,178.400 312.300 C 175.588 312.296,174.663 312.197,175.600 312.000 C 177.514 311.597,185.383 311.597,183.800 312.000 " stroke="none" fill="#2a0404" fill-rule="evenodd"></path></g></svg>