<?xml version="1.0" encoding="utf-8"?>
<!-- Generator: Adobe Illustrator 27.0.0, SVG Export Plug-In . SVG Version: 6.00 Build 0)  -->
<svg version="1.1" id="Capa_1" xmlns="http://www.w3.org/2000/svg" xmlns:xlink="http://www.w3.org/1999/xlink" x="0px" y="0px"
	 viewBox="0 0 5442.52 3061.42" style="enable-background:new 0 0 5442.52 3061.42;" xml:space="preserve">
<style type="text/css">
	.st0{fill:#D41E1A;}
</style>
<g>
	<rect x="1250.65" y="183.05" width="2941.22" height="2695.32"/>
	<g>
		<path class="st0" d="M3307.5,1202.71c1.41,1.81,2.73,3.6,3.54,5.91c7.77,22.18,16.81,43.83,27.5,64.49
			c15.75,30.45,24.82,63.67,36.58,95.77c0.98,2.67,1.51,5.43,4.58,5.08c2.81-0.32,4.05-3.06,4.37-5.79
			c0.59-4.99,0.94-10.02,1.2-15.04c1.03-20.23-3.34-40.08-3.6-60.25c-0.33-25.19-3.19-50.27-6.69-75.08
			c-2.71-19.19-6.07-38.49-11.62-57.16c-1.84-6.19-3.1-12.6-4.3-18.97c-3.74-19.76-10.21-38.67-15.32-58
			c-6.08-22.15-15.13-43.07-23.41-64.3c-0.42-1.08-1.19-2.01-1.57-3.13c-0.76-2.25-1.73-4.72,1-6.15c2.11-1.1,3.69,0.48,5,2.06
			c1.31,1.57,1.94,3.56,2.68,5.49c3.16,8.18,6.29,16.06,13.06,22.15c8.18,7.34,9.66,19.75,16.46,28.4
			c4.67,5.94,8.1,12.53,9.69,20.31c0.95,4.67,3.81,8.62,7.32,11.63c3.66,3.13,6.36,7.05,6.73,11.85
			c0.96,12.33,9.22,21.41,12.21,32.54c5.12,19.06,15.18,36.06,19.58,55.13c2.13,9.25,6.05,17.67,8.04,26.82
			c0.33,0.8,0.64,1.61,0.93,2.43c0.51,2.03,0.22,4.28,1.45,6.12c2.34,7.51,4.37,15.1,5.41,22.97c0.38,2.88-0.35,5.94,1.26,8.62
			c0.42,1.19,0.49,2.45,0.53,3.7c0.09,4.98,1.39,9.58,3.8,13.83c0.37,0.73,0.67,1.49,0.93,2.27c0.17,2.1,0.71,4.09,1.58,5.98
			c0.3,1.69,0.53,3.38,0.73,5.09c-0.05,5.84,1.04,11.29,4.68,15.89c2.27,19.71,3.35,39.48,4.22,59.31
			c0.97,21.87,4.33,43.78,2.73,65.59c-2.16,29.56-3.24,59.11-3.95,88.72c-0.12,5.18-1.31,10.57-3.65,15.41
			c-1.28,2.65-2.46,5.53-2.48,8.44c-0.12,19.15-8.41,36.45-10.63,55.22c-1.17,9.88-5.33,19.67-9.92,28.75
			c-1.05,2.07-3,3.85-3.11,6.21c-0.96,21.28-12.54,38.7-18.68,58.07c-4.56,14.38-13.35,27.16-19.61,41
			c-5.91,13.04-13.39,25.1-19.9,37.76c-3.15,6.13-8.44,10.98-9.54,18.37c-4.25,9.03-10.1,16.94-15.3,25.3
			c-9.62,15.48-20.75,29.82-30.1,45.53c-4.75,7.98-11.45,14.38-17.91,20.82c-18.8,18.76-37.6,37.51-56.56,56.07
			c-12.63,12.36-25.1,25-38.47,36.4c-12.73,10.85-26.59,20.15-39.83,30.33c-13.67,10.51-27.24,21.18-40.43,32.4
			c-10.22,8.7-21.93,14.82-33.89,20.23c-28.23,12.76-56.23,26.04-84.07,39.73c-10.96,5.39-23.02,8.24-34.63,12.07
			c-19.27,6.35-38.62,12.4-57.85,18.88c-12.43,4.19-25.31,6.1-37.95,9.2c-19.1,4.68-38.27,9.04-57.38,13.72
			c-12.7,3.11-25.74,3.53-38.5,6.15c-7.86,1.61-15.76,3.05-23.65,4.48c-4.9,0.88-9.81,2.12-14.75,2.3
			c-29.03,1.05-58.07,2.92-86.91,6.11c-56.36,6.25-112.67,4.61-169.07,2.32c-17.41-0.71-34.85-0.51-52.27-1
			c-7.45-0.21-14.88-1.14-22.32-1.72c-25.37-1.96-50.87-2.11-76.13-5.37c-26.85-3.47-53.53-8.29-80.2-13.15
			c-28.1-5.12-55.13-14.71-82.9-21.15c-12.04-2.79-23.46-8.67-35.13-13.24c-21.26-8.32-42.64-16.3-63.67-25.26
			c-10.48-4.46-20.3-10.71-30.38-16.24c-6.14-3.37-12.23-6.85-18.3-10.36c-1.89-1.09-4.23-1.77-4.63-4.83
			c5.92-1.26,10.68,2.61,15.67,4.51c29.69,11.31,60.28,19.23,90.54,28.4c5.04,1.53,10.05,3.08,14.99,5.01
			c24.45,9.59,49.86,15.21,75.43,19.86c38.72,7.04,77.93,9.93,116.88,15.05c24.69,3.25,49.39,6.6,74.16,8.98
			c23.15,2.22,46.45,1.73,69.67,1.19c21.85-0.51,43.7-0.62,65.55-0.35c16.35,0.2,32.55-1.17,48.78-3.35
			c20.82-2.8,41.72-5.11,62.62-7.27c20.25-2.1,40.73-3.62,60.78-8.11c2.69-0.6,5.49-1.36,8.19-1.17
			c15.39,1.11,30.29-2.35,45.18-5.53c20.57-4.38,41.32-8.25,61.49-14.29c32.69-9.79,66.06-16.84,98.2-28.95
			c34.91-13.16,69-28.32,102.99-43.97c30.92-14.23,58.72-33.86,86.81-53.2c16.54-11.38,32.27-24.01,46.84-37.93
			c12.11-11.56,24.23-23.31,35.29-36.14c1.85-2.15,3.93-4.22,4.53-7.8c-2.41-0.89-4.03,0.64-5.71,1.95
			c-9.36,7.32-18.7,14.69-28.71,20.98c-22.85,14.37-45.76,28.63-70.49,39.14c-14.64,6.22-28.39,14.54-42.62,21.73
			c-19.46,9.82-38.84,19.7-59.44,26.8c-19.92,6.87-38.73,17.06-58.73,23.91c-23.11,7.91-46.34,15.32-69.9,21.46
			c-19.74,5.14-39.51,10.62-59.57,13.82c-26.36,4.2-52.51,10.27-79.29,11.54c-8.74,0.42-17.56,1.71-26.14,4.09
			c-1.05,0.29-2.19,0.24-3.3,0.28c-34.27,1.26-68.43,4.75-102.74,5.56c-18.23,0.43-36.43,2.4-54.64,3.62
			c-12.98,0.87-25.98,1.21-38.97,0.17c-12.97-1.03-25.96-1.97-38.96-1.61c-26.64,0.74-53.01-2.49-79.37-5.76
			c-17.07-2.11-34.19-2.9-51.3-3.88c-19.35-1.1-38.53-3.67-57.47-7.79c-19.8-4.31-39.91-6.24-59.78-9.9
			c-14.4-2.66-28.58-6.7-42.92-9.75c-18.15-3.86-36.42-7.1-54.56-11.03c-23.11-5.01-45-14.16-66.89-23.29
			c-21.47-8.95-41.22-21.34-60.03-35.37c-13.91-10.37-26.13-23.13-35.16-38.51c-7.01-11.94-12.18-25.1-16.31-38.71
			c-7.41-24.41-11.73-49.38-13.95-74.89c-1.13-13.01,1.27-25.49,3.92-37.85c3.9-18.19,9.08-36.05,15.68-53.37
			c5.36-5.8,7.56-13.65,11.45-20.41c16.52-28.74,41.98-46.99,66.48-66.44c29.44-23.37,60.05-44.83,91.26-65.35
			c3.8-2.5,8.41-2.98,11.8-6.2l0.04-0.02c1.24-1.73,3.67-0.06,4.85-1.96c19.73-10.48,40.9-16.03,62.32-20.47
			c27.37-5.67,54.47-12.81,82.06-17.23c6.83-1.09,13.64-2.24,20.47-3.29c3.52-0.54,6.74-0.28,7.75,4.39
			c0.06,0.29,0.12,0.67,0.31,0.81c7.31,5.56,6.86,14.21,7.57,22.31c0.76,8.67,0.06,17.13-3.61,25.14
			c-2.18,4.75-4.04,9.68-6.03,14.54c-6.39,15.65-19.08,24.82-31.05,34.72c-11.03,9.12-23.22,15.67-36.7,19.69
			c-12.27,3.67-22.95,11.45-34.72,16.51c-4.54,1.95-8.95,4.27-13.42,6.42c-2.39,0.89-4.78,1.76-6.96,3.17
			c-8.36,5.75-17.7,9.42-26.44,14.36c-8.8,4.98-17.4,10.34-25.23,16.92c-4.55,3.82-8.78,8.13-11.82,13.58
			c-2.14,3.84-4.98,7-8.09,10.03c-11.59,11.3-18.12,25.23-17.89,42.28c0.16,11.82-1.56,23.79,1.47,35.42
			c4.87,18.66,13.38,33.68,29.39,45.1c28.95,20.65,61.12,32.61,93.42,44.41c14.33,5.24,28.84,9.93,43.08,15.54
			c10.94,4.32,22.5,6.4,34.02,7.57c25.88,2.62,51.41,7.86,77.19,11.19c5.06,0.65,9.74-0.7,14.71-0.34
			c18.2,1.32,36.19,4.11,54.15,7.39c20.57,3.75,41.37,2.12,62.08,2.46c20.98,0.35,41.97,0.51,62.96,0.49
			c12.71-0.02,25.41-0.73,38.12-0.8c21.84-0.11,43.61-1.82,65.36-3.4c16.45-1.2,32.86-3.49,49.29-5.05
			c18.98-1.8,37.8-5.04,56.82-6.3c24.96-1.65,49.1-7.07,72.55-16.67c8.15-3.34,17.25-3.92,25.82-6.17
			c13.64-3.57,27.18-7.11,39.72-14.7c7.79-4.72,17.1-6.45,25.54-10.01c14.38-6.07,28.68-12.33,43.33-17.62
			c1.54-0.56,3.52-1.16,4.32-2.44c4.11-6.6,11.09-8.91,16.99-12.07c22.04-11.78,42.58-25.96,62.58-41.22
			c11.63-8.87,23.88-16.8,35.41-25.81c8.44-6.6,16.42-13.97,24.16-21.52c14.28-13.93,28.29-28.24,40.99-43.85
			c13.7-16.83,27.89-33.32,38.19-53.03c1.71-3.26,4.46-5.9,6.73-8.82c8.14-12.25,16.77-24.14,23.89-37.12
			c14.71-26.83,21.96-56.43,27.98-86.55c1.9-9.51,3.18-19.09,4.57-28.68c4.84-27.9,7.18-56.02,6.11-84.39
			c-0.65-17.33-0.82-34.77-5.56-51.56c-1-3.53-0.71-7.02-1.34-10.46c-1.2-4,0.1-8.31-1.25-12.3c-0.33-0.77-0.58-1.58-0.77-2.4
			c-0.33-4.1-1.88-7.67-4.21-10.9c-0.19-1.24-0.12-2.51-0.44-3.73c-1.83-22.13-10.16-42.5-18.75-61.79
			c-11.49-25.81-22.28-52.58-39.23-75.19c-18.61-24.82-37.19-49.77-60.33-70.14c-11.26-11.62-24.12-21.23-36.27-31.64
			c-11.11-9.51-22.86-18.7-35.87-25.52c-2.02-1.06-4.22-1.23-6.25-2.13c-21.31-12.03-42.48-24.36-64.8-34.14
			c-10.55-4.63-21.27-8.81-32.88-13.59c0.71,4.64,2.8,6.64,5.03,8.74c8.5,7.99,17.45,15.55,25.19,24.33
			c13.26,15.03,28.34,28.03,41.42,43.17c14.63,16.93,30.61,32.35,45.75,48.69c1.35,1.46,2.53,3.09,3.79,4.65
			c4.72,5.5,6.78,13.39,13.92,16.81c3.2,1.53,1.74,4.41-0.15,6.47c-4.75,5.17-10.32,7.4-17.04,5.13l-0.07-0.03
			c-6.82-4.3-14.58-4.77-22.09-6.11c-9.66-1.72-17.74-8.54-28.24-8.31c-12.43,0.27-15.36,2.23-15.46,15.45
			c-0.13,15.99,6.81,29.53,12.85,43.39l0,0c2.05,7.73,1.12,15.93,3.12,23.64c5.11,19.74,8.29,39.68,6.79,60.31
			c-0.52,7.12-1.07,13.98-3.9,20.68c-3.46,8.19-2.76,17.43-4.29,26.14c-0.78,4.42-1.97,8.39-3.55,12.54
			c-6.04,15.86-14.34,30.58-19.95,46.62c-0.79,2.26-2.14,4.04-3.41,5.99c-8.5,13.04-17.76,25.37-28.29,36.58
			c-1.02,5.09-5.54,5.96-8.78,8.38c-5.14,3.85-8.94,9.4-14.23,13.08c-11.03,6.98-21.79,14.43-32.56,21.85
			c-8.04,5.54-17.7,7.64-25.27,14.1c-1.07,0.92-2.29,1.8-3.66,1.98c-13.11,1.71-23.45,11.12-35.67,14.88
			c-11.57,3.57-22.79,8.44-34.56,11.1c-3.22,0.73-6.33,1.54-9.38,2.79c-11.35,4.85-23.36,6.94-35.23,9.52
			c-21.54,4.68-43.03,9.71-64.92,12.25c-14.5,1.68-29.07,2.92-43.47,5.27c-18.55,3.02-37.27,3.65-55.89,5.56
			c-5.77,0.59-10.04-1.53-13.48-6.61c-1.75-2.57-2.63-5.03-2.64-8.11c-0.04-18.08-0.38-36.17-0.08-54.24
			c0.09-5.51,1.4-11.05,1.9-16.63c0.43-4.93,5.95-6.47,7.56-11.01c0.75-2.12,3.44-1.2,5.23-1.74c7.86-2.36,15.82-1.52,23.79-1.29
			c14.38,0.4,28.65-1.25,42.92-2.93c8.49-1,17.02-1.61,25.48-2.79c11.7-1.63,23.33-3.96,35.05-5.37c14.7-1.76,28.93-6.62,43.75-7.4
			c17.19,0.7,32.55-7.61,48.54-12.26c9.15-2.66,19-5.39,27.2-11.54c22.64-9.07,43.39-21.83,61.39-39.05
			c12.2-11.67,21.45-26.16,28.96-41.82c4.66-9.72,7.92-20.07,11.96-30.07c2.6-6.44,3.14-13.16,3.53-19.94
			c1.2-21.19,4.27-42.37,0.42-63.6c-0.18-5.33,0.41-10.7-0.81-15.96c0.08-6.61-0.33-13.19-0.96-19.75c-0.29-0.85-0.5-1.73-0.65-2.61
			c0.1-5.12-2.56-9.08-4.82-13.21c-1.09-5.62-0.33-11.89-5.41-16.04c-6.32-5.17-12.35-6.51-19.46-1.03
			c-10.97,8.44-25.15,10.57-35.74,19.69c-8.25,7.1-18.75,7.91-27.67,12.99c-5.25,2.99-6.57,1.61-6.2-5.21
			c0.66-12.14,3.91-23.84,5.21-35.89c0.79-7.3,1.27-14.67,2.48-21.93c-0.64-5.74,1.03-11.37,2.39-16.56
			c2.78-10.55,4.03-21.41,6.74-31.96c1.59-6.21,1.67-12.84,2.97-19.16c2.71-13.18,5.89-26.25,8.66-39.42
			c2.03-9.66,3.28-19.52,5.69-29.06c1.39-5.51-0.08-7.14-4.78-8.6c-7.33-2.29-14.46-5.13-22.05-6.64
			c-8.61-1.72-16.99-4.74-25.55-6.82c-32.04-7.78-64.18-14.84-97.01-17.79c-17.52-1.57-35-3.84-52.44-6.51
			c-12.76-1.96-25.73-2.78-38.55-4.66c-13.96-2.05-27.96-3.43-42.05-3.89c-1.91-0.06-4.11-0.13-5.64-1.14
			c-5.58-3.69-11.31-0.66-16.94-0.83c-3.29-0.1-3.59,2.69-3.81,5.61c-0.78,10.65-1.46,21.28-1.44,31.97
			c0.06,28.18,0.04,56.36-0.07,84.54c-0.04,11.56-0.33,23.11-2.65,34.48c-0.34,1.69-0.46,3.6-0.09,5.26
			c2.36,10.6,1.38,21.21,0.44,31.84c-0.49,5.61-1.21,11.24-1.16,16.85c0.56,62.9-2.87,125.73-2.67,188.62
			c0.16,50.72-0.04,101.45-0.09,152.17c0,2.37-0.14,4.74-0.21,7.11c-0.6,1.04-0.8,2.17-0.8,3.39c-0.07,30.81-0.66,61.6-1.38,92.41
			c-1.06,45.3-0.76,90.67-0.14,135.99c0.56,40.9-2.63,81.71-1.87,122.6c0.18,9.56-4.18,13.6-13.24,14.35
			c-29.99,2.46-60.03,3.61-90.06,2.48c-23.98-0.9-47.92-2.7-71.96-2.86c-10.04-0.07-19.69-5.08-29.95-6.01
			c-6.53-0.59-13.15-0.51-19.68-2.29c-4.13-1.13-6.63-2.44-6.54-7.26c0.04-2.09-0.78-4.08-0.76-6.16
			c0.24-40.59-1.05-81.21,1.53-121.77c0.15-2.37,0.08-4.74,0.08-7.12c0-65.55-0.02-131.1,0.05-196.65c0-4.16-0.5-8.22-1.02-12.31
			c-0.23-1.57,0.54-2.66,1.52-3.65c2.2-5.04,1.03-10.4,1.04-15.57c0.11-63.48-1.37-127.01,0.53-190.42
			c1.53-51.21,2.8-102.39,3.07-153.62c0.05-10.04,0.44-20.12,0.6-30.19c1.13-70.86,0.54-141.73,1.04-212.59
			c0.13-18.06,0.24-36.04-0.53-54.09c-0.56-13.2-6.91-22.5-15.2-30.13c-30.88-28.4-60.03-58.89-87.06-91.24
			c-29.26-35-55.47-72.86-71.37-117.76c-3.69-10.42-7.48-20.95-11.8-31.17c-5.18-12.25-6.05-25.66-9.24-38.44
			c-1.22-15.06-3.29-30.05-3.24-45.22c0.01-2.05,0.47-4.51-1.04-5.96c-4.46-4.3-4.12-10.1-4.7-15.64
			c-1.53-14.78-1.59-29.61-1.2-44.44c0.21-8.01,2.44-15.75,4.19-23.5c2.4-10.63,5.19-21.16,8.06-32.75
			c3.9,6.54,5.61,13.02,7.7,19.18c10,29.36,24.59,55.88,41.45,81.25c12.3,18.5,28.26,33.12,42.86,49.17
			c10.99,12.08,23.22,22.72,35.39,33.41c7.12,6.25,15.28,10.51,23.23,15.24c15.67,9.32,31.37,18.57,46.89,28.16
			c12.56,7.77,26.13,12.67,39.92,16.88c15.41,4.71,30.57,9.99,45.23,17.03c6.52,3.13,13.57,4.84,20.64,6.34
			c28.68,6.07,56.97,14.13,85.78,19.63c13.88,2.65,27.97,3.54,41.84,6.14c19.05,3.57,38.23,5.96,57.45,8.19
			c13.11,1.52,25.97,5.4,38.99,7.9c22.87,4.38,45.99,6.62,69.1,8.89c23.1,2.26,46.14,4.51,69.02,9.14
			c17.57,3.55,35.36,5.82,52.76,10.6c7.52,2.06,14.73,4.71,21.68,8.31c6.12,3.9,13.09,5.12,19.79,7.17l0.1,0.03
			c11.21,5.37,22.87,9.27,34.76,12.45l0.09,0.03c1.78,1.8,3.09,3.72-0.61,4.39c-1.99,0.36-4.2,0.67-6.13-0.67l-0.1-0.03
			c-24.73-4.26-49.23-10.18-74.52-10.12c-4.95,0.01-10.2-1.16-15.25-2.2c-20.51-3.13-41.07-5.83-61.67-8.13
			c-8.55-0.96-17.11-1.25-25.67-1.29c-21.84-0.11-43.7,0.66-65.53,0.04c-16.78-0.47-33.53-2.47-50.29-3.88
			c-43.87-3.69-86.98-13-130.4-20.1c-18.86-3.08-37.3-8.1-55.96-12.1c-35.29-7.57-69.2-20.05-103.07-32.73
			c-9.11-3.41-18.72-5.5-26.76-11.54c-15.82-11.89-33.42-20.46-49.96-31.03c-9.45-6.04-18.68-12.36-27.79-18.91
			c-12.93-9.3-23.59-21.35-34.38-33.23c-2.26-2.48-4.11-5.69-7.79-6.21c1.01,6.3,7.38,20.95,10.96,25.14
			c10.05,11.76,18.35,25.02,27.83,37.26c10.39,13.42,21.09,26.68,33.07,38.5c12.37,12.21,24.45,24.85,38.54,34.92
			c10.31,7.36,20.36,15.15,32.17,19.78c3.31,1.3,6.12,3.99,9.23,5.92c16.07,9.98,33.34,17.19,50.98,22.91
			c19.28,6.25,38.11,13.98,57.56,19.61c13.71,3.97,27.52,7.53,41.21,11.5c23.55,6.83,47.6,11.08,71.28,17.16
			c11.27,2.89,22.62,5.42,33.95,8.07c1.34,0.31,2.74,0.54,4.11,0.54c17.98-0.03,35.86,2.14,53.66,4.23
			c12.74,1.49,25.63,2.37,38.24,5.58c5.53,1.41,11.44,1.19,17.18,1.95c23.3,3.09,46.33,7.77,68.99,14.1
			c26.46,7.4,53.36,12.4,80.07,18.45c14.05,3.18,28.15,6.12,41.89,10.65c13.88,4.27,27.39,9.78,42.21,10.38
			c6.3,0.26,12.55,4.22,18.24,7.45c4.98,2.83,9.74,5.36,15.33,5.76c8.37,0.6,14.64,6.34,21.83,9.86
			c16.95,8.29,33.72,17.24,49.46,27.68c14.56,9.65,29.52,19.01,42.84,30.81c1.51,1.34,3.27,2.18,5.1,2.85
			c1.15,0.48,2.06,1.32,2.89,2.27c1.83,3.1,4.03,5.77,7.43,6.98c0.67,0.42,1.25,0.94,1.77,1.55c5.59,7.47,12.86,12.54,20.74,16.73
			c8.64,11.19,20.01,19.23,29.43,29.66c12.41,13.74,25.03,27.28,37.09,41.38c4.07,5.53,7.4,11.75,12.94,15.91
			c0.87,0.73,1.62,1.59,2.22,2.58c1.01,2.93,2.67,5.31,5.15,7c3.29,5.53,8.88,8.92,11.88,14.72c7.56,14.85,18.56,27.22,26.48,41.72
			c7.33,13.42,17.82,24.8,22.37,39.98c0.34,1.12,0.87,2.21,1.59,3.1C3296.16,1183.92,3301.74,1193.38,3307.5,1202.71z"/>
		<path class="st0" d="M2860.51,2563.89c-7.14-4.38-10.11-12.41-13.87-19.42c-4.85-9.06-10.57-17.43-16.45-25.57
			c-17.43-24.1-33.63-49.12-49.46-74.42c-5.82-9.3-10.72-19.27-16.51-28.59c-8.24-13.26-16.41-26.6-26.21-38.65
			c-5.43-6.68-10.87-13.35-16.3-20.02c-6.97-8.57-16.24-14.21-23.99-21.75c-10.74-10.46-24.17-15.05-37.27-20.43
			c-1.53-0.63-3.18-1.37-4.77-1.34c-21.24,0.3-42.32-3.75-63.62-2.38c-11.03,0.71-22.11,0.56-33.16,0.73
			c-3.09,0.05-6.09,0.31-8.63,2.48c-1.34,1.14-2.87,1.59-4.56,1.88c-16.67,2.79-32.86,7.79-49.1,12.55
			c-9.99,2.93-18.71,8.77-27.57,14.15c-19.37,11.75-36.14,27.05-51.37,44.38c-1.73,1.97-3.11,4.09-4.44,6.36
			c-1.9,3.25-3.72,6.77-6.31,9.31c-14.93,14.67-25.78,33-38.8,49.37c-10.42,13.11-20.74,26.23-35.9,33.45
			c-2,0.95-3.99,2.19-5.62,3.74c-9.73,9.24-21.71,13.92-33.43,19.05c-4.6,2.01-9.46,2.83-14.55,2.89
			c-20.79,0.24-41.44-1.26-61.99-4.58c-2.49-0.4-4.79-0.91-6.94-2.52c-10.42-7.8-21.36-14.7-32.57-21.09
			c-3.43-1.96-6.14-4.56-8.66-7.94c-6.36-8.55-13.52-16.4-19.58-25.26c-2.65-3.88-4.71-8.02-6.16-12.47
			c-2.17-6.67-3.15-13.7-5.81-20.27c-1.55-3.81-0.87-8.18-0.36-12.32c1.3-10.59,2.45-21.2,3.91-31.76
			c0.89-6.44,2.9-12.47,5.49-18.49c9.47-22.08,24.79-38.99,41.39-54.67c9.05-8.55,20.93-11.52,31.97-16.12
			c13.03-5.43,26.46-5.12,39.99-4.88c4.58,0.08,8.6,2.12,12.68,3.8c14.49,5.95,27.9,14.18,40.95,23.09
			c7.8,5.32,13.58,13.05,19.89,20.04c3.83,4.24,1.33,10.81,1.91,16.3c0.32,3.08-2.02,4.52-3.96,6.26
			c-20.34,18.22-38.98,38.41-58.36,57.74c-9.05,9.03-17.41,18.96-27.91,26.37c-7.32,5.17-6.31,13.93,1.64,18.36
			c3.67,2.04,7.55,3.45,11.68,4.37c20.91,4.69,39.74,1.88,56.18-14.51c7.4-7.38,13.73-15.48,18.97-24.44
			c8-13.68,18.13-25.37,28.11-37.23c11.47-13.64,23.29-26.89,36.36-38.84c15.67-14.33,33.07-25.61,51.77-34.65
			c6.28-3.04,12.82-5.4,18.79-9.25c5.48-3.53,11.76-4.69,18.02-6.07c17.29-3.81,34.48-8.18,51.67-12.51c3-0.75,5.96-1.12,9.01-1.17
			c27.11-0.44,54.19,0.46,81.23,2.49c7.24,0.54,13.83,3.95,20.75,5.89c14.15,3.97,28.07,8.79,42.49,11.69
			c7.12,1.43,13.38,5.4,19.56,9.3c21.92,13.84,39.83,32.6,56.49,52.92c12.43,15.15,23.78,31.13,32.88,48.81
			c3.79,7.37,10.56,11.96,14.19,19.55c5.77,12.06,12.3,23.72,18.64,35.46c14.35,26.59,29.35,52.64,48.52,75.77
			c12.77,15.41,27.8,27.78,42.68,40.46c3.28,3.03,5.74,7.13,9.97,8.95l0.06,0.05c1.01,7.32-4.5,6.96-8.44,7.8
			c-7.66,1.64-15.25-1.22-22.86-1.08c-7.11,0.13-13.51-1.12-19.03-6.14l-0.01-0.01C2875.84,2580.81,2868.14,2572.39,2860.51,2563.89
			z"/>
		<path class="st0" d="M1873.48,2210.81c39.44,2.89,78.91,4.8,118.45,4.63c7.46-0.03,13.83,3.82,20.71,5.79
			c6.12,1.76,12.21,3.84,18.07,6.4c9.81,4.28,18.43,10.69,25.8,18.84c9.41,10.41,18.58,21.07,27.85,31.62
			c2.29,2.61,4.2,5.52,5.45,8.85c3.28,8.78,6.4,17.63,9.72,26.39c2.99,7.91,3.68,16.15,2.68,24.45
			c-1.95,16.16-3.61,32.42-6.63,48.36c-3.01,15.89-6.99,31.63-13.48,46.45c-1.17,2.68-2.39,5.38-3.22,8.19
			c-6.51,21.91-21.43,34.64-40.7,42.05c-26.51,10.21-53.29,19.54-81.03,25.25c-1.35,0.28-2.74,0.28-4.11,0.41
			c-20.51,3.77-41.12,3.2-61.73,1.34c-3.31-0.3-6.6-0.58-9.9-0.52c-18.49,0.34-36.94-0.37-55.39-1.69
			c-5.18-0.37-8.04-2.85-7.99-7.97c0.13-13.31-3.28-26.5-1.03-39.87c0.84-4.98,0.6-10.05,0.6-15.09
			c-0.1-71.44,0.34-142.89,0.02-214.33c-0.08-17.72,0.62-18.9,17.29-18.28C1847.84,2212.56,1860.55,2207.91,1873.48,2210.81z"/>
		<path class="st0" d="M3305.65,2371.29c-1.82-12.31-8.94-20.17-18.39-26.64c-6.43-4.41-13.04-5.64-20.4-5.51
			c-7.53,0.13-13.49,2.58-19.3,8.16c-11.23,10.78-19.04,23.25-23.55,38.79c-2.94,10.16-4.01,20.24-3.93,30.62
			c0.18,25.81,0.56,51.61,0.85,77.42c0.03,2.37,0.14,4.75,0.02,7.12c-0.17,3.08-1.68,4.73-4.69,5.06c-15.65,1.73-31.26,3.49-47,0.79
			c-5.7-0.98-11.53-1.76-17.32-0.36c-4.08,0.99-5.59-1.32-5.83-5.19c-0.17-2.66-0.25-5.33-0.25-8c0.03-30.85-0.15-61.71,0.23-92.56
			c0.26-20.75,1.42-41.47,4.06-62.09c1.47-11.44,2.02-23.02,3-34.54c0.3-3.54,0.75-7.07,1.01-10.62c0.26-3.58,1.84-5.23,5.3-5.23
			c15.76,0.01,31.51-0.23,47.26-0.12c5.85,0.04,6.83,1.61,6.8,8.16c-0.04,9.65-0.01,19.3-0.01,31.02c4.69-4.81,8.08-7.71,10.82-11.2
			c17.48-22.27,40.64-31.49,66.81-34.16c11.9-1.21,23.58-0.83,35.33,2.14c10.55,2.66,19.54,7.82,27.49,15.47
			c10.63,8.88,15.59,21.37,20.89,34.28c7.32,17.83,7.18,36.1,7.16,54.69c-0.05,31.12,0.02,62.23-0.02,93.35
			c-0.03,19.13-0.89,20.62-18.49,22.76c-16.49,2-33.04,1.22-49.52-1.07c-5.77-0.8-5.8-4.85-5.86-9.63
			c-0.33-29.03,0.51-58.04,0.93-87.05c0.13-8.9-1.29-17.71-0.88-26.6C3308.33,2377.13,3306.84,2374.26,3305.65,2371.29z"/>
		<path class="st0" d="M3097.66,2405.71c0,3.56,0.01,7.12,0,10.67c-0.11,29.51-13.68,51.42-33.59,70.16
			c-13.62,12.82-30.02,18.22-47.01,22.52c-4.56,1.15-9.23,1.88-13.73,3.25c-4.36,1.33-8.6,1.87-13.05,0.64
			c-1.56-0.43-3.31-0.36-4.94-0.16c-20.59,2.52-40.66-1.64-60.97-4.34c-17.07-2.27-30.56-9.94-43.09-22.01
			c-13.43-12.94-26.3-26.1-34.35-43.73c-3.68-8.07-4.69-16.95-5.43-25.75c-0.55-6.48-0.21-13.05-0.45-19.57
			c-0.45-12.13,2.75-23.36,6.97-34.39c0.73-1.91,1.39-3.88,1.82-5.89c4.1-19.26,17-31.19,30.68-42.45
			c6.79-5.58,14.19-10.26,21.12-15.58c12.23-9.39,26.2-12.63,40.45-14.1c28.77-2.97,57.39-1.58,85.53,6.46
			c10.35,2.96,18.65,10.08,27.99,15.09c10.64,5.7,17.22,15.28,22.65,26.2c5.06,10.18,10.4,20.2,15.89,30.12
			c1.02,1.84,1.89,3.44,2.05,5.58C3097.16,2380.85,3098.9,2393.21,3097.66,2405.71z"/>
		<path class="st0" d="M2673.39,2353.64c-3.01,1.48-6.05,2.91-9.04,4.44c-8.28,4.26-13.92,10.88-17.94,19.96
			c-5.86,13.23-7.77,26.77-7.63,41.31c0.21,21.69,1.07,43.32,2.59,64.92c0.66,9.41,2.94,18.67,2.47,28.25
			c-0.32,6.45-0.12,6.54-5.75,6.51c-20.46-0.12-40.93-0.25-61.39-0.47c-5.95-0.06-6.45-0.61-5.87-6.48
			c2.72-27.54,1.06-55.15,1.39-82.74c0.17-14.01-1.1-27.88-3.3-41.61c-1.59-9.92-4.66-19.52-9.3-28.37
			c-3.06-5.84-8.05-9.03-14.22-9.34c-6.9-0.34-13.83-0.25-20.73,0.02c-5.11,0.2-10.04,2.27-13.55,5.98
			c-10.08,10.67-18.87,22.39-22.8,37.49c-0.99,3.82-1.02,7.61-1.02,11.46c0,32.65,0.02,65.3,0.03,97.95c0,2.08-0.13,4.16,0.01,6.23
			c0.27,3.97-1.59,5.1-4.99,5.05c-9.4-0.12-18.81-0.04-28.21-0.04c-11.06,0-22.13-0.14-33.19,0.05c-4.27,0.07-5.69-1.62-5.73-6.22
			c-0.22-25.54,0.45-51.04,1.58-76.54c0.33-7.37,1.62-14.74-3.96-20.99c-2.32-2.6,0.37-5.12,2.02-6.8
			c7.59-7.74,14.95-15.75,23.15-22.81c17.38-14.96,36.74-26.52,57.21-35.31c30.57-13.12,61.99-23.28,95.64-21.58
			c11.85,0.6,23.77-0.54,35.54,2.15c3.05,0.7,5.25,1.18,5.06,5.25c-0.06,1.35,0.71,2.85,1.37,4.11c2.68,5.13,6.99,6.06,9.66,1.05
			c3.43-6.43,7.67-5.81,13.13-4.98c13.95,2.12,26.27,8.07,37.57,16.83c1.28,4.17,1.25,4.47-2.45,4.11
			C2684.89,2351.9,2679.1,2351.88,2673.39,2353.64z"/>
		<path class="st0" d="M2721.46,2376.33c4.79,2.09,7.05,5.72,9.33,9.02c9.7,13.98,18.59,28.49,26.61,43.72
			c7.57,14.36,16.53,27.88,25.07,41.63c2.05,3.3,3.27,6.46,3.61,10.52c0.9,10.63,3.97,20.83,6.53,31.11
			c1.38,5.55,1.22,6.05-4.02,6.99c-2.17,0.39-4.39,0.61-6.59,0.59c-18.22-0.22-36.45-0.48-54.67-0.79c-5.88-0.1-5.99-0.18-6.05-6.41
			c-0.25-24.61,0.79-49.18,2.84-73.68c1.29-15.4,0.83-30.79,0.81-46.19C2724.95,2387.5,2723.11,2382.47,2721.46,2376.33z"/>
		<path class="st0" d="M2976.86,2647.53c-9.76-0.95-18.56-4.59-26.48-10.77c2.43-2.26,5.26-0.99,7.95-1.04
			c24.16-0.43,48.35,2.35,72.82-0.33c-3.38-3.54-10.01-0.87-10.94-7.65c5.31-0.21,10.33,1.68,15.29,3.13
			c11.95,3.5,24.52,3.95,36.17,8.77c0.74,0.31,1.63,0.2,2.46,0.26c36.31,2.38,72.64,3.6,108.99,1.84
			c10.41-0.5,20.76-2.56,31.25-1.59c-3.25,4.13-3.25,4.13-13.43,3.66c27.39,1.83,54.81,3.3,82.13,6.25
			c3.82,0.41,7.71,0.79,10.77,3.82c1,4.11-2.02,3.24-3.79,3.2c-6.56-0.14-12.84,1.72-19.23,2.72l-0.77,0.15l-0.78-0.01
			c-3.11,2.07-6.97-0.67-10.02,1.77l0.01-0.01c-22.43,5.64-44.99,2.14-67.39,0.36c-21.46-1.7-42.96-3.74-64.41-4.38
			c-32.26-0.95-64.5-3.21-96.84-2.55C3012.53,2655.5,2994.28,2654.03,2976.86,2647.53z"/>
		<path class="st0" d="M2794.16,2369.73c-6.3-6.61-11.03-14.61-16.98-21.59c-17.21-20.17-35.58-38.86-57.02-53.74
			c-7.81-5.42-16.39-9.55-25.41-14.71c5.28-3.76,10.65-4.53,15.84-5.12c17.81-2.01,35.42-0.43,52.01,7.08
			c16.95,7.66,29.87,19.77,34.28,40.19c2.8,12.94,6.2,25.74,9.34,38.6c1.42,3.97,0.66,8.11,0.61,12.15c-0.07,6.23-2.75,8-7.82,4.37
			c-0.83-0.28-1.34-0.86-1.39-1.83C2796.7,2373.16,2795.94,2371.06,2794.16,2369.73z"/>
		<path class="st0" d="M3435.09,2601.08c8.6-1.88,17.2-3.75,25.79-5.63c1.4-0.31,2.67-0.95,2.64-2.74
			c-0.02-1.42-1.23-1.84-2.25-2.22c-8.83-3.31-17.86-5.84-27.51-7.62c1.5-3.65,4.22-4.94,7.15-5.02
			c15.31-0.41,29.71-6.07,44.65-8.68c16.29-2.85,32.46-6.56,48.68-9.86c2.14-0.44,4.31-1.12,6.5-0.31c0.65,1.61-0.13,2.9-0.89,4.06
			c-9.24,14-17.37,28.7-24.71,43.93c-0.86,1.79-2.41,3.2-3.63,4.78c-2.38,2.89-4.1,6.3-6.33,9.31c-6.62,8.97-12.18,8.29-17.17-2.11
			c-6.51-10.58-11.21-11.94-24.43-7.07c-5.61,1.63-11.42,2.58-16.7,5.39l-0.02,0c-12.98,4.94-25.73,0.08-38.54-1.21
			c-2.95-0.3-5.99-1.38-6.6-5.4C3412.84,2607.51,3424.2,2605.24,3435.09,2601.08z"/>
		<path class="st0" d="M2976.86,2647.53c4.7,0.11,9.14,1.86,13.73,2.55c5.36,0.8,10.61,2.58,16.22,1.07
			c2.85-0.77,6.16-0.64,9.06,0.05c8.48,2.02,16.87,2.37,25.35,0.26c1.02-0.25,2.28-0.23,3.23,0.19c3.75,1.67,7.65,1.17,11.47,1.04
			c24.56-0.82,49.03,1.94,73.57,2.24c18.06,0.22,36.23,1.88,54.28,3.47c13.96,1.23,28.18,0.58,41.81,3.62
			c11.52,2.57,22.45-1.39,33.64-0.3c-8.57,3.43-17.79,3.19-26.59,5.37c-10.61,2.63-21.42,2.2-32.16,1.9
			c-28.47-0.8-56.87,1.37-85.31,1.85c-23.7,0.4-47.14-0.62-70.53-5.24c-21.14-4.18-41.93-9.78-62.79-15.14
			C2979.99,2649.95,2978.11,2649.31,2976.86,2647.53z"/>
		<path class="st0" d="M2140.57,550.88c4.05,5.06,3.75,11.65,4.84,17.57c1.19,6.45,3.22,12.45,5.1,18.63
			c6.64,21.78,16.72,41.91,25.65,62.56c8.63,19.95,20.32,38,33.64,54.67c5.61,7.02,10.1,14.81,15.47,21.97
			c12.36,16.47,26.98,30.57,40.68,45.63c8.3,9.13,16.71,18.18,25.43,26.83c10.09,10.01,19.54,20.79,30.47,29.79
			c5.29,4.36,7.44,11.53,12.67,16.02c1.62,1.4,1.75,4.23,1.84,6.67c0.49,12.73,1.8,25.49,1.46,38.19
			c-2.31,85.74-0.04,171.52-1.93,257.25c-0.79,35.59,0.18,71.23-1.57,106.75c-3.47,70.55-2.07,141.16-3.13,211.73
			c-0.21,14.24,0.05,28.49-0.1,42.74c-0.03,2.75,1.3,6.01-1.59,8.21c-0.16-15.39-0.48-30.78-0.45-46.17
			c0.11-55.77-0.47-111.57,0.95-167.3c0.48-18.8,2.01-37.7,2.2-56.55c0.54-56.07-0.57-112.18,1.02-168.2
			c1.97-69.37,0.28-138.72,1.27-208.07c0.17-12.02-3.02-22.67-9.4-32.26c-2.04-3.08-4.93-5.57-7.64-8.07
			c-29.41-27.03-55.9-57.3-83.32-86.54c-4.88-5.2-9.53-10.83-13.37-16.92c-4.82-7.64-10.25-14.73-15.65-21.82
			c-18.49-24.29-32.21-51.4-44-80.01c-5.03-12.21-9.13-24.72-13.42-37.14C2143.72,575.52,2140.53,563.47,2140.57,550.88z"/>
		<path class="st0" d="M2327.99,1519.74c2.06,3.18,1.55,6.83,1.58,10.35c0.59,75.65,0.88,151.31-0.32,226.94
			c-0.49,30.83-1.03,61.66-0.79,92.47c0.17,20.85-0.31,19.49,19.35,21.31c9.44,0.87,19.18,0.47,28.09,5.34
			c3.43,1.88,7.5,1.81,11.4,1.79c8.85-0.04,17.71-0.4,26.53,0.1c31.19,1.76,62.39,1.81,93.6,1.39c13.18-0.18,26.36-0.88,39.53-1.51
			c6.65-0.31,11.14-5.31,11.34-12.47c0.18-6.23-0.04-12.46,0.17-18.69c1.84-54.53,1.33-109.09,1.49-163.64
			c0.09-31.44-0.32-62.92,0.96-94.32c0.98-24.02,0.59-48.02,1.45-72.02c0.07-2.05-0.25-4.2,1.35-5.84c1.3,5.29,0.2,10.61,0.14,15.91
			c-0.37,28.48-0.59,56.97-1.12,85.45c-1.18,63.77-0.66,127.56-1.49,191.33c-0.28,21.89-0.31,43.82-1.04,65.72
			c-0.08,2.37-0.36,4.73-0.59,7.09c-0.19,1.92-0.92,3.34-2.91,3.7c-3.51,0.64-6.99,1.74-10.53,2c-31.71,2.34-63.48,3.07-95.25,2.21
			c-17.06-0.46-34.09-2.25-51.13-3.43c-1.38-0.1-2.77-0.19-4.14-0.12c-11.07,0.56-21.79-2.23-32.66-3.67
			c-9.8-1.3-19.52-3.16-29.31-4.45c-6.71-0.88-7.34-1.4-7.5-8.93c-0.27-13.05-0.24-26.11-0.22-39.16c0.04-27-1.05-54.09,0.55-80.99
			c2.04-34.39,0.82-68.72,1.08-103.07c0.3-39.75,0.67-79.5-0.31-119.25C2327.28,1520.78,2327.75,1520.25,2327.99,1519.74z"/>
		<path class="st0" d="M3435.18,1297.2c-0.06-1.74-0.11-3.48-0.17-5.22c-1.29-1.58-0.03-3.94-1.47-5.48
			c-0.09-0.55-0.15-1.1-0.18-1.65c-2.39-4.49-3.63-9.43-4.85-14.37c-0.04-1.15-0.09-2.3-0.13-3.44c-1.69-2.79,0.37-6.27-1.47-9.03
			c-1.17-7.81-2.96-15.45-5.23-22.97c-1.2-1.62,0.06-4-1.47-5.52c-0.07-0.54-0.12-1.09-0.16-1.64c-0.86-2.58-1.3-5.14,0.31-7.61
			c2.55,9.29,6,18.42,7.46,27.91c2.97,19.29,9.29,37.59,13.28,56.55c2.31,10.97,3.73,22.04,4.17,33.27
			c11.87,64.24,5.22,128.47-0.03,192.71c0.18,8.92-1.62,17.42-4.19,25.88c-2.12,6.97-1.27,14.71-4.16,21.55
			c-4.04,9.55-5.34,19.71-6.3,30c-0.27,2.9-0.72,6.09-2.08,8.5c-3.22,5.68-4.65,11.98-6.34,18.2c-0.87,3.19-2.29,6-3.74,8.85
			c-0.79,1.55-2.23,3.05-2.31,4.64c-0.5,9.67-4.55,18.09-7.42,27c-3.36,10.38-8.1,20.08-12.81,29.6
			c-9.29,18.77-18.38,37.68-28.05,56.24c-6.27,12.05-12.77,23.98-20.52,35.06c-0.28-6.12,0.2-11.89,5.94-15.34
			c0.46-0.28,1.03-0.73,1.17-1.22c3.71-13.18,15.27-21.79,17.96-35.55c6.69-6.61,6.38-17.53,12.97-24.26
			c1.1-1.12,1.44-3.13,2.04-4.77c3.41-9.19,9.38-17.3,9.91-27.72c0.06-1.27,1.26-2.6,2.16-3.68c2.71-3.27,3.81-7.28,3.99-11.41
			c0.16-3.81,1.02-7.04,3.83-9.38c3.93-3.28,4.71-7.64,4.47-12.64c-0.33-6.89-0.28-13.77,5.87-18.34c0.42-0.31,0.8-0.95,0.86-1.49
			c1.61-13.9,11.64-25.37,9.91-40.29c-0.55-4.71,0.02-9.31,3.69-13.08c2.7-2.76,3.03-6.81,2.96-10.79
			c-0.12-6.22,0.12-12.41,1.6-18.5c0.41-1.7,0.3-3.54,1.39-5.02c4.78-6.46,5.31-14.04,5.26-21.89c-0.09-13.34,0.12-26.69,0.07-40.03
			c-0.04-10.09,1.92-19.95,2.76-29.92c1.16-13.83,1.51-27.77-0.25-41.64c-0.22-1.75-0.74-3.51-0.68-5.25
			c0.62-17.79-2.44-35.43-1.88-53.22c0.39-12.66-1.08-25.18-3.16-37.61C3437.67,1308.14,3436.66,1302.58,3435.18,1297.2z"/>
		<path class="st0" d="M1873.48,2210.81c-11.28,0.68-22.57,1.37-33.86,2.03c-1.66,0.1-3.32,0.04-4.98,0.11
			c-14.57,0.62-14.5,0.63-14.51,16.07c0,74.18-0.06,148.37-0.05,222.55c0,4.77-1.1,9.47-1.09,14.12c0.01,11.83,0.8,23.65,1.31,35.48
			c0.16,3.62,2.11,5.16,5.41,5.27c6.35,0.21,12.73,1.05,19.01,1.03c29.85-0.06,59.62,3.12,89.46,2.64c6.28-0.1,12.4-3.07,18.83-1.6
			c-5.96,2.54-12.23,3.53-18.55,3.54c-16.02,0.04-32.03,0.18-48.03-1.2c-19.56-1.68-39.2-1.14-58.8-1.68
			c-1.93-0.05-3.87,0.01-5.8-0.1c-3.72-0.21-6.09-1.87-6.77-6.25c-0.69-4.41-1.2-8.8-1.2-13.25c0.05-39.42,0.06-78.84,0.26-118.27
			c0.14-26.97,0.81-53.93,0.77-80.9c-0.04-22.81-0.76-45.63-1.17-68.44c-0.14-7.92,1.51-10.69,8.61-11.01
			c16.27-0.73,32.57-0.8,48.86-1.07C1871.97,2209.88,1872.73,2210.49,1873.48,2210.81z"/>
		<path class="st0" d="M3634.32,511.74c-8.75,23.28-19.12,45.7-31.2,67.17c-7.51,13.34-14.65,27.03-23.33,39.47
			c-8.01,11.49-15.91,23.18-25.25,33.62c-8.34,9.32-16.14,19.21-24.01,29c-6.86,8.53-15.13,15.46-22.56,23.34
			c-7.64,8.1-15.35,16.15-23.36,23.82c-5.09,4.87-10.79,9.01-16.22,13.47c-0.93-0.83-1.14-1.93-1.01-3.15
			c0.19-0.75,0.5-1.45,0.91-2.09c2.05-2.6,4.32-4.97,6.66-7.27c0.52-0.47,1.1-0.85,1.7-1.18c1.54-0.66,3.04-1.38,3.94-3.03
			c2.06-4.72,5.95-7.32,9.8-9.98c2.3-1.51,3.9-3.66,5.05-6.25c5.97-9.77,15.07-16.37,22.08-25.09c11-13.68,22.87-26.47,34.77-39.24
			c4.47-4.79,8.94-9.71,10.53-16.71c0.46-2.02,1.81-3.74,3.47-4.86c9.69-6.48,13.32-17.61,18.89-27.39
			c4.72-8.3,9.63-16.74,13.33-25.33c5.43-12.59,13.87-23.09,18.71-36.16c3.79-10.24,6.79-21.15,12.49-30.62
			c0.75-1.25,1.63-2.52,1.78-3.98c1.44-14.17,9.21-25.65,14.07-38.36c1.54-4.02,1.58-8.09,1.5-12.21
			c-0.22-10.8,0.7-21.27,5.88-30.92c1.8-3.35,2.47-7.28,2.36-11.17c-0.23-7.6,1.75-14.65,4.3-21.57
			c4.43-12.03,1.73-24.32,2.42-36.91c-5.92,0.93-7.41,8.17-13,6.93c-0.99-1.71-0.96-3.6,0.18-4.98c4.18-5.05,8.05-10.4,12.39-15.28
			c1.61-1.81,4.1-3.32,6.57-0.73c2.24,3.73,1.77,7.95,1.6,11.97c-0.62,14.82-0.13,29.72-2.31,44.45l-0.01,0.01
			c-6.61,14.01-5.63,30.27-11.46,44.55c-1.17,2.87-1.58,6.17-1.87,9.45c-1.42,15.9-6.36,30.58-13.42,44.63
			C3637.2,496.1,3637.35,504.5,3634.32,511.74z"/>
		<path class="st0" d="M3294.05,2654.51c-11.89-2.13-23.83-3.19-35.9-3.87c-16.11-0.91-32.18-2.71-48.32-3.55
			c-4.54-0.24-9.63-0.5-15.37-3.83c4.64-1.78,8.1-0.83,11.4-1.21c2.88-0.33,6.14,1.18,8.51-1.89c0.45-0.18,0.91-0.23,1.38-0.15
			c3.25-1.72,7.07,0.73,10.23-1.6c13.42-1.66,26.81-3.78,40.28-4.87c18.16-1.47,36.08-5.38,54.33-5.79
			c-1.59,6.05-6.68,5.2-10.68,5.78c-5.95,0.87-12.07,0.12-19.2,2.01c24.35,0.8,47.31,4.8,70.54,4.74c1.69,0,3.28,0.41,4.36,2.02
			c-6.02,3.62-12.71,5.34-19.34,6.5c-13.45,2.35-27.02,3.9-40.54,5.79C3301.82,2655.7,3297.93,2655.98,3294.05,2654.51z"/>
		<path class="st0" d="M3360.34,812.51c-2.04,4.63-5.22,6.95-10.19,7.65c-6.49,0.9-12.65,3.82-19.44,3.43
			c-6.26-0.36-11.61-2.42-16.84-6.25c-8.48-6.22-16.54-12.73-22.32-22.01c-0.3-0.48-0.74-1.11-1.19-1.19
			c-10.35-1.83-14.54-13.04-23.27-17.56c-3.7-1.92-6.08-6.6-9.4-9.6c-6.06-5.48-10.74-12.83-18.62-15.86
			c-2.24-0.86-3.21-3.13-4.64-4.9c-2.73-3.38-6.1-5.54-9.88-7.63c-5.66-3.12-11.4-6.23-16.76-10.12c-4.87-3.53-9.74-7.07-15.64-9.11
			c-6.6-2.28-13.09-5.03-18.95-9.84c-4.26-3.49-9.44-6.49-15.47-7.63c-5.77-1.09-10.97-5.2-15.86-9.01c-1.78-1.39-3.66-2.62-5.42-4
			c-6.02-4.72-12.45-6.87-20.07-6.39c-5.27,0.33-9.83-3.17-13.85-6.75c-2.32-2.07-4.26-4.57-6.98-6.2c-1.87-1.12-4.2-2.79-3.27-5.5
			c1.02-2.97,3.65-3.24,6.31-2.44c1.77,7.04,8.19,6.93,12.82,9.48c3.16,1.74,6.75,2.29,10.21,3.13
			c18.58,6.86,35.91,16.67,53.48,25.93c31.06,16.38,60.06,36.33,87.23,59.21c17.13,14.42,33.23,30.22,48.92,46.45
			c1.68,1.88,3.37,3.74,5.01,5.67c0.57,0.64,1.08,1.33,1.56,2.03c9.96,7.24,20.45,4.02,30.92,1.93
			C3352.66,814.66,3355.79,810.35,3360.34,812.51z"/>
		<path class="st0" d="M3020.21,2627.73c3.65,3.84,8.7,2.99,13.02,4.58c1.59,0.58,4.52,0.31,4.3,3.08c-0.24,3.03-2.95,3-5.15,3.04
			c-3.86,0.07-7.71,0.01-11.57,0.06c-3.29,0.04-6.56-0.16-9.79,1.1c-1.73,0.68-3.9,0.92-5.69,0.48c-13.08-3.2-26.33-1.07-39.49-1.53
			c-5.23-0.18-10.39-0.35-15.47-1.79c-12.85-8.54-25.69-17.09-38.55-25.61c-1.17-0.77-2.47-1.31-2.87-2.93
			c3.83-2.6,7.08-0.11,9.84,1.96c7.17,5.39,15.05,6.99,23.49,6.17c9.42-0.91,19.25,2.55,28.25-2.95c3.69-0.16,6.85,1.76,10.13,3.08
			c9.5,3.82,19.08,7.21,29.28,8.25C3013.47,2625.09,3016.99,2625.95,3020.21,2627.73z"/>
		<path class="st0" d="M3420.35,1220.27c-0.1,2.54-0.21,5.07-0.31,7.61c-1.91-4.14-3.47-8.37-6.1-12.23
			c-3.71-5.44-2.1-12.59-3.46-18.89c-0.77-3.55-1.98-6.37-3.61-9.51c-5.12-9.9-10.94-19.43-11.8-31.45
			c-0.64-8.9-4.63-16.98-10.22-23.66c-2.93-3.51-4.89-6.79-4.68-11.7c0.32-7.69-1.22-14.26-8.21-18.92
			c-4.05-2.7-7.41-7.81-7.86-13.13c-0.84-9.86-7.47-15.9-11.94-23.31c-2.11-3.49-4.77-6.45-5.04-10.87
			c-0.07-1.15-0.16-2.92-0.8-3.29c-5.67-3.28-5.8-12.29-12.88-14.13c-1.62-0.42-2.59-2.17-2.78-4.09
			c-0.65-6.61-5.71-11.38-6.5-17.95c-0.1-0.81-0.74-1.57-1.23-2.28c-0.7-1.01-1.75-1.72-2.81-1.09c-1.09,0.65-1.22,2.27-0.61,3.15
			c3.39,4.87,4,10.98,6.51,16.22c7.19,15.02,11.53,31.26,17.49,46.81c0.75,1.96,0.75,4.05,0.21,6.11c-1.6-1.7-2.68-3.79-3.31-6.04
			c-7.68-27.53-20.3-52.91-29.85-79.62c-2.18-3.74-3.97-7.71-5.64-11.72c-0.77-1.84-3.47-4.33-0.45-5.95
			c2.5-1.34,3.79,1.86,4.75,3.71c2.27,4.39,5.12,8.27,8.12,12.06c14.01,18.86,25.74,39.39,37.23,60.03
			c5.3,9.53,12.29,18.14,15.12,29.26c0.76,2.99,3.22,5.44,4.68,8.28c3.44,6.72,6.1,13.79,8.86,20.87
			c8.9,22.87,17.04,46.07,26.73,68.61C3414.98,1194.85,3419.55,1207.05,3420.35,1220.27z"/>
		<path class="st0" d="M3305.65,2371.29c2.09,1.39,2.9,3.74,3.05,6.04c1.29,20.3,4.51,40.58,0.67,60.94
			c-0.22,1.15-0.26,2.36-0.26,3.54c-0.02,17.78,0,35.57-0.06,53.35c-0.01,3.61,0.38,6.07,4.72,6.46
			c19.84,1.81,39.64,2.04,59.45-0.46c3.21-0.41,5.03-1.71,5.47-5.32c0.65-5.27,1.56-10.48,1.54-15.86
			c-0.11-38.24,0.03-76.48-0.24-114.71c-0.06-9.09-0.59-18.39-6.65-25.91c-0.67-0.83-1.13-2.16-1.12-3.25
			c0.1-8.74-6.34-14.9-7.86-23.08c-0.41-2.19-3.31-3.81-4.95-5.8c-1.95-2.36-5.09-3.74-5.45-7.44c11.21,7.4,17.72,18.35,22.56,31.35
			c6.42,17.23,7.27,34.99,7.24,53.06c-0.07,36.14-0.13,72.29-0.21,108.43c-0.01,2.37,0,4.75-0.25,7.1c-0.43,4.04-2.6,6.25-6.41,6.87
			c-15.9,2.59-31.86,2.94-47.85,1.39c-5.5-0.53-10.98-1.47-16.48-0.5c-3.24,0.57-4.73-1.08-5.06-4.17
			c-0.31-2.93-0.39-5.91-0.39-8.86c-0.01-24.59-0.06-49.17,0.52-73.76c0.3-13.01-0.53-26.06-0.5-39.08
			C3307.16,2378.01,3304.68,2374.96,3305.65,2371.29z"/>
		<path class="st0" d="M3365.59,2642.3c-0.27-0.07-0.55-0.23-0.8-0.18c-17.22,3.02-34.15-2.49-51.32-2.18
			c-6.14,0.11-12.44-1.63-18.76-1.53c-3.35,0.05-6.2-1.78-9.23-3.55c6.13-2.11,12.2-3.63,18.59-3.44
			c5.76,0.17,11.43-0.32,16.52-3.68c8.68-1.74,17.31-3.79,26.05-5.13c12.05-1.85,23.39-6.58,35.23-9.23
			c0.23,4.92-3.7,5.16-6.51,6.37c-4.07,1.77-8.53,2.29-13.63,4.7c20.07,2.16,39.08,6.81,57.85-2.14c3.31-1.58,7.32-3.39,10.81,0.33
			c-12.42,5.26-25.15,9.41-38.21,12.43c-8.73,3.02-18.22,2.82-26.62,7.22L3365.59,2642.3z"/>
		<path class="st0" d="M2970.55,2613.41c-0.45,3.96-2.65,5.49-6.23,5.47c-11.02-0.07-22.04,0.08-33.05-0.08
			c-4.29-0.06-7.75-2.78-11.27-5.08c-3.49-2.29-6.69-5.21-11.03-5.49c-6.23-3.78-12.66-7.22-18.43-11.83
			c-2.62-2.09-5.46-3.98-6.66-7.52c6.73,4.26,14.21,2.75,21.44,3.42c6.26,0.58,12.44,2.33,18.77,1.56
			c3.93-0.48,8.51-0.03,10.12-5.56c8.44,5.43,16.87,10.88,25.33,16.29c1.95,1.25,3.54,2.8,4.41,5.09c1.55,2.51,4.26,2.67,6.54,3.72
			L2970.55,2613.41z"/>
		<path class="st0" d="M2464.14,2282.63c-19.46,11.94-40.62,19.57-57.49,33.88c-3.39-1.43-2.91-3.45-2.84-5.05
			c0.4-9.15,0.97-18.3,1.38-27.45c0.12-2.71,0.92-4.84,3.65-4.87C2427.2,2278.9,2445.5,2280.25,2464.14,2282.63z"/>
		<path class="st0" d="M2958.79,1461.08c0.63-5.05,3.05-8.64,7.22-11.17c4.07-2.47,7.14-5.66,9.1-10.76
			c2.46-6.4,7.93-10.97,11.61-16.77c1.53-2.41,3.4-4.19,3.72-7.36c0.48-4.76,1.77-9.27,5.48-12.5c0.63-0.55,1.45-1.26,1.57-2.01
			c1.14-7.4,5.33-13.36,7.95-20.05c1.79-4.57,2.32-9.69,6.36-13.03c1.36-1.12,1.55-3.07,1.69-4.87c0.54-7.06,1.19-14.11,1.6-21.18
			c0.3-5.12,1.08-10.04,4.4-13.95c2.09-2.45,2.2-5.31,2.21-8.28c0.04-13.03,0.1-26.05,0.04-39.08c-0.01-2.03-0.01-4.42-0.94-6.04
			c-8.27-14.48-7.01-30.56-7.12-46.42c4.37,4.48,3.06,10.9,4.73,16.32c6.83,22.14,7.92,45.1,6.75,68.17
			c-0.59,11.7-2.03,23.29-5.07,34.73c-2.92,10.98-4.26,22.45-8.84,32.93c-4.76,10.89-9.49,21.76-14.87,32.37
			c-4.9,9.65-10.38,18.61-16.57,27.26c-5.69,7.94-11.44,15.74-18.91,21.87C2960.12,1462.17,2959.42,1462.11,2958.79,1461.08z"/>
		<path class="st0" d="M3124.77,1131.53c6.67,2.6,11.22,8.35,15.86,13.5c3.81,4.23,7.31,8.65,11.75,12.27
			c4.3,3.5,6.62,9.04,10.68,13.05c3.89,3.85,7.5,8.13,10.09,13.57c2.26,4.75,5.76,9.13,10.34,12.41c4.3,3.08,6.82,8.73,9.18,13.33
			c3.9,7.61,10.37,13.84,11.73,22.93c0.13,0.87,0.15,2.22,0.63,2.49c5.57,3.03,5.39,9.93,8.62,14.49c2.71,3.83,4.36,8.19,5.16,12.85
			c0.68,3.93,1.62,7.33,5.41,9.23c1.7,0.85,3.08,2.67,3.24,4.9c0.63,8.44,5.62,15.27,7.43,23.09c1.42,6.13,3.2,11.62,6.52,16.74
			c0.87,1.34,1.17,3.39,1.11,5.08c-0.22,6.26,0.86,12.36,1.71,18.49c-0.59,0.97-1.22,1.01-1.89,0.1c-2.7-2.47-1.69-6.11-2.33-9.17
			c-2.72-12.96-8.44-24.75-12.39-37.23c-4.32-13.67-11.17-26.11-16.88-39.11c-7.31-16.64-16.22-32.15-26.1-47.01
			c-11.32-17.03-23.19-33.58-36.75-48.78c-7.61-8.52-15.78-16.36-23.39-24.84C3123.94,1133.05,3124.03,1132.25,3124.77,1131.53z"/>
		<path class="st0" d="M3430.38,2622.64c-7.11-0.84-14.07,1.85-19.88,4.74c-9.92,4.93-19.48,3.05-29.1,1.78
			c-5.49-0.73-10.91-1.28-16.42-1.39c-4.34-0.09-4.34-0.12-9.23-4.12c5.37-1.68,10.34-2.99,15.14-4.79c3.8-1.43,8.3-1.41,10.98-5.47
			c0,0,0.1-0.01,0.1-0.01c1.96-1.63,4.75,0.43,6.59-1.71l0.06-0.03c4.17-0.77,8.16-2.66,12.51-2.38c0.32,0.3,0.65,0.61,0.97,0.91
			c4.23,5.44,10.4,4.27,15.85,5c5.4,0.73,11-0.43,16.06,2.87c1.68,1.09,3.77,0.75,5.62-0.05c2.36-1.02,4.73-1.56,7.23-0.67
			C3441.89,2620.93,3435.97,2621.2,3430.38,2622.64z"/>
		<path class="st0" d="M3108.02,953.85c-2.19-0.31-4.39-0.56-6.03-2.49c-2.83-3.35-6.04-6.07-10.31-7
			c-0.27-0.06-0.64-0.12-0.75-0.32c-4.47-8.1-13.36-9.43-19.85-14.5c-6.41-5-11.72-12.64-20.57-13.61
			c-5.27-6.21-14.8-5.04-19.21-12.76c-0.26-0.45-0.86-0.93-1.33-0.96c-9.28-0.52-15.35-8.98-23.96-11.12
			c-0.79-0.2-1.79-0.44-2.24-1.05c-5.51-7.44-13.64-6.5-21.09-7.71c-1.36-0.22-3.32,0.24-4-0.57c-5.07-6.09-12.99-6.1-18.69-10.38
			c-3.51-2.64-6.88-3.06-10.72-3.42c-12.92-1.2-25.34-4.48-36.93-10.94c4.8-0.38,9.11,1.87,13.54,3.19
			c9.87,2.93,19.67,5.87,30.04,5.93c5.33,0.03,10.01,3.01,14.93,4.76c7.8,2.78,15.51,5.87,23.09,9.27
			c17.51,7.86,34.3,17.31,51.14,26.69c19.28,10.73,36.63,24.67,55.08,36.77c1.4,0.92,2.59,2.22,3.17,3.98
			C3103.99,950.49,3109.07,949.51,3108.02,953.85z"/>
		<path class="st0" d="M2949.09,1245.13c1.09,1.47,1.43,3.19,1.4,5.01c-0.28,14.78,1.01,29.57-1.13,44.36
			c-1.05,7.26-0.47,14.8-0.58,22.22c-0.09,5.43-0.69,10.65-4.45,14.79c-1.2,1.32-1.78,2.89-2.16,4.69
			c-3.19,15.13-10.58,28.18-18.19,41.02c-9.38,15.82-21.96,28.54-36.29,38.95c-6.37,4.62-13.12,9.2-20.75,11.6
			c-1.05,0.33-2.31,0.69-2.98,1.5c-5.68,6.93-13.58,8.48-21.33,10.44c-0.94-0.65-0.99-1.37-0.16-2.17
			c16.13-7.56,31.04-17.22,45.56-28c16.73-12.42,28.81-28.82,39.35-46.86c7-11.99,11.29-25.27,15.1-38.83
			c5.37-19.11,5.72-38.65,5.95-58.28c0.05-4.13,0.17-8.26,0.26-12.4C2947.89,1250.44,2947.31,1247.72,2949.09,1245.13z"/>
		<path class="st0" d="M2949.09,1245.13c-0.14,2.68-0.28,5.36-0.42,8.04c-1.59-2.27-1.84-4.91-1.79-7.61
			c0.25-14.81-2.37-29.12-6.23-43.27c-1.15-4.21-1.57-8.65-2.17-13.01c-1.77-12.74-9.94-18.14-20.41-12.09
			c-14.28,8.26-29.29,14.93-43.24,23.98c-8.37,5.44-17.96,8.8-26.45,14.34c-2.87,1.87-4.38,0.54-4.16-3.59
			c0.32-5.91,0.61-11.89,1.72-17.66c2.98-15.38,4.36-31.02,7-46.44c0.14-0.82,0.73-1.55,1.1-2.32c1.08,10.42-0.79,20.6-2.37,30.78
			c-1.18,7.57-2.81,15.06-3.92,22.63c-0.45,3.07-0.07,6.28-0.07,11.19c6.48-6.89,13.33-8.49,20.53-9.02
			c0.82-0.06,2.1,0.01,2.37-0.48c3.48-6.4,11.13-6.32,15.31-11.44c3.38-4.14,7.76-5.6,12.52-5.74c3.31-0.1,5.75-1.3,8.02-3.78
			c4.29-4.7,11.07-5.17,15.32-10.09c0.45-0.52,1.56-0.45,2.38-0.52c4.95-0.43,15.63,8.16,16.45,13.47
			c0.58,3.78,2.08,7.41,1.64,11.36c2.37,3.84,3.16,8.41,5.01,12.48l-0.02-0.02c2.1,6.99-0.52,14.37,1.49,21.37
			C2948.83,1233.51,2948.96,1239.32,2949.09,1245.13z"/>
		<path class="st0" d="M3327.1,582.62c11.81-4.72,23.16-10.58,34.73-15.88c13.17-6.04,26.26-12.21,39.18-18.81
			c15.12-7.73,29.96-16.05,44.84-24.27c10.25-5.67,19.62-13.05,30.35-17.74c0.78,0.51,1.22,1.25,1.31,2.23
			c-2.93,9.57-11.46,12.33-18.41,16.41c-20.7,12.15-41.86,23.49-63.52,33.42c-14.87,6.82-28.1,17.4-44.04,21.59
			c-1.89,0.5-3.43,1.85-4.88,3.24c-5.89,5.63-12.42,5.27-19.22,2.34C3326.78,584.38,3326.67,583.54,3327.1,582.62z"/>
		<path class="st0" d="M2112.38,1585.86c-4.67,5.73-11.63,7.53-17.33,11.56c-23.72,16.76-48.09,32.48-70.84,50.82
			c-16.31,13.15-33.06,25.69-49.21,39.05c-11.41,9.44-20.46,21.41-28.68,34.11c-3.79,5.85-7.36,11.78-10.27,18.2
			c-0.91,2-2.22,4.15-4.67,4.67c2.35-8.26,7.07-15.21,11.21-22.39c11.61-20.14,27.39-36.04,45.28-49.74
			c16.6-12.7,32.54-26.45,49.53-38.5c23.41-16.61,45.92-34.92,71.84-47.18C2110.28,1585.97,2111.24,1585.51,2112.38,1585.86z"/>
		<path class="st0" d="M3108.02,953.85c-0.74-2.79-4.62-2.84-4.69-6.21c6.67,1.23,10.89,7.01,15.55,11.1
			c11.45,10.04,22.92,20.16,34.26,30.33c13.57,12.18,25.34,26.15,37.95,39.24c9.21,9.55,18.12,19.62,25.77,30.87
			c5.49,8.07,12.05,15.31,18.22,22.84c2.54,3.1,5.47,5.88,6.29,10.19c-1.99,1.56-2.81-0.68-4.08-1.44
			c-3.87-4.66-9.48-7.69-11.41-14.15c-2.63-1.65-3.44-4.86-5.35-7.12c-0.47-0.52-0.95-1.04-1.42-1.56
			c-4.85-5.06-8.46-11.25-13.12-16.48c-3.81-2.81-8.11-5.11-9.3-10.58c-0.06-0.26-0.31-0.48-0.51-0.69
			c-7.97-8.51-15.76-17.23-24.03-25.39c-2.42-2.39-4.82-4.49-6.78-7.46c-2.51-3.81-6-6.78-9.45-9.79
			c-5.89-5.15-12.51-9.68-16.25-17.23c-7.58-5.46-15.92-9.85-21.66-17.87l0.06,0.06c-3.73-1.16-6.14-4.16-8.6-7.09
			C3108.98,954.87,3108.5,954.36,3108.02,953.85z"/>
		<path class="st0" d="M3121.23,675.86c-8.25-0.03-14.89-5.19-22.23-8.1c-3.54-1.41-2.39-3.92-0.42-6.15
			c0.98-0.7,1.96-1.41,2.95-2.11c22.19-8.46,45.42-13.05,67.81-20.66c15.06-5.12,30.48-8.91,45.33-14.71
			c4.69,0.29,8.42-3.11,12.85-3.84c1.64-1.14,3.35-0.93,5.08-0.33c0.24,5.72-4.13,7.99-7.68,8.91c-9.42,2.45-17.89,8.88-27.17,9.89
			c-13.43,1.46-25.13,8.27-37.66,12.08c-11.71,3.56-23.21,6.55-35.22,7.9c-5.95,0.67-10.26,5.66-16.82,6.96
			c2.94,2.82,6.11,3.56,8.9,5.06C3118.89,671.81,3122.19,671.87,3121.23,675.86z"/>
		<path class="st0" d="M3515.84,479.32c7.38-8.05,16.68-13.34,25.42-19.26c6.54-4.44,12.37-9.79,18.23-14.9
			c20.87-18.21,41.4-36.92,60.03-57.84c6.59-4.87,9.78-13.14,15.95-18.4c1.71-1.46,2.69-4.81,5.89-3.13
			c1.44,3.65-0.46,6.25-2.48,8.73c-10.11,12.48-21.44,23.66-32.34,35.3c-10.32,11.02-21.42,20.91-32.96,30.54
			c-10.69,8.92-20.26,19.84-31.66,27.96c-7.36,5.24-15.06,10.54-24.09,12.44C3517,480.55,3516.35,480.06,3515.84,479.32z"/>
		<path class="st0" d="M3013.69,1227.62c-2.94-0.77-5.16-3.29-5.89-5.76c-4.32-14.59-11.44-28.55-9.13-44.76
			c0.79-5.56,3.6-9.5,8.8-9.76c6.87-0.34,13.77-0.07,20.65-0.06c2.03,0,3.96,0.64,5.15,2.36c2.76,3.96,6.61,4.86,10.84,5.26
			c6.58,0.61,12.78,3.02,19.06,5.03c1.59,0.51,3.18,1.12,3.45,3.28c-16.47-2.57-32.62-6.74-48.81-10.8
			c-10.81-2.71-12.58-0.9-12.92,10.83c-0.22,7.67,1.48,14.95,3.52,22.35C3010.42,1212.82,3013.74,1219.8,3013.69,1227.62z"/>
		<path class="st0" d="M2796.1,1548.27c1.12-1.91,2.98-2.98,4.81-3.13c12.85-1.08,23.55-10.08,36.35-11.22
			c6.53-7.2,17.42-4.92,23.85-12.82c2.01-2.48,5.97-2.76,9.33-2.93c1.65-0.08,3.79,0.42,4.87-0.49c5.85-4.95,12.67-7.53,19.31-10.79
			c4.02-1.98,7.59-5.5,12.22-6.61c1.72-0.41,3.04-1.48,4-2.94c3.8-5.77,10.56-7.13,15.21-11.84c2.74-2.78,8.1-1.24,11.17-4.81
			c0.76,0.7,0.83,1.47,0.2,2.3c-1.92,4.51-6.4,5.48-9.79,7.77c-12.53,8.44-24.9,17.09-38.51,23.68
			c-8.76,4.24-17.52,8.69-26.41,12.46c-11.41,4.84-22.47,11.11-34.88,13c-2.16,0.33-4.4,0.82-6.35,1.83
			C2813.44,1545.89,2804.82,1547.3,2796.1,1548.27z"/>
		<path class="st0" d="M3237.3,1090.77c1.36,0.48,2.72,0.96,4.08,1.44c7.83,8.24,13.65,18.18,19.81,27.75
			c9.31,14.47,18,29.41,26.61,44.38c6.76,11.76,13.03,23.84,19.46,35.82c0.36,0.68,0.17,1.7,0.24,2.56
			c-3.76-2.02-5.85-4.98-7.67-9.4c-2.23-5.42-6.79-9.83-10.71-14.3c-2.18-2.49-3.85-5.18-4.19-8.38c-0.7-6.63-4.81-11.06-8.35-15.8
			c-3.25-4.36-5.81-8.86-8.01-14.04c-2.89-6.78-8.52-12.14-12.19-18.62C3250.33,1111.47,3241.04,1103.06,3237.3,1090.77z"/>
		<path class="st0" d="M3242.35,1340.07c0.63-0.03,1.26-0.07,1.89-0.1c0.03,1.1,0.07,2.2,0.1,3.3c3.45,2.7,2.93,7.48,4.95,10.93
			l-0.02-0.03c2,3.95-0.46,8.53,1.51,12.48c0.58,8.14,0.2,16.53,5.66,23.33c1.14,1.42,1.04,3.32,1.04,5.09
			c-0.03,19.76,2.36,39.41,1.77,59.22c-0.27,9.15-0.47,18.61-2.29,27.17c-2.49,11.69-2.45,23.73-5.67,35.19
			c-2.18-3.63-1.36-7.4-0.47-11.17c0.29-1.14,0.74-2.25,0.86-3.41c3.12-29.15,4.04-58.45,2.25-87.67
			c-1.11-18.12-4.33-36.1-6.95-54.09c-0.66-4.54-2.53-8.91-4.08-13.26C3242.07,1344.7,3242.03,1342.44,3242.35,1340.07z"/>
		<path class="st0" d="M3250.82,1505.47c0.16,3.72,0.31,7.45,0.47,11.17c-2.41,25.93-7.81,51.19-15.33,75.92
			c-6.7,22.03-16.65,42.28-30.28,60.34c-3.74,4.95-6.2,11.07-11.51,14.6c1.05-5.06,4.07-8.96,6.78-13
			c11.6-17.33,21.95-35.26,28.89-55.52c8.02-23.4,13.21-47.51,17.95-71.79C3249.2,1520.04,3249.84,1512.71,3250.82,1505.47z"/>
		<path class="st0" d="M3445.23,1530.71c-0.05-18.89-0.56-37.81,1.5-56.62c0.86-7.83,3.8-15.23,4.15-23.29
			c0.62-14.17,1.05-28.29-0.22-42.45c-1.02-11.44-0.29-23.07-2.67-34.36c-2.01-9.56-1.8-19.34-3.09-28.97
			c-0.31-2.31-0.47-4.72,0.34-7.02c2.18,4.68,1.4,9.88,2.28,14.8c5.38,30.1,6.19,60.52,6.02,91.08
			c-0.09,16.08-3.27,31.74-4.02,47.71c-0.49,10.26-1.4,20.58-2.28,30.85C3447,1525.35,3447.7,1528.45,3445.23,1530.71z"/>
		<path class="st0" d="M3360.34,812.51c-10.66,6.15-21.97,9.09-34.09,7.66c-4.61-0.54-9.58-0.77-10.87-7.21
			c1.7-1.56,3.7-1.18,5.51-0.64c17.07,5.12,31.85-0.97,45.91-10.65c1.39-0.96,2.62-2.26,4.18-2.84
			c17.96-6.59,33.26-19.05,50.78-26.61c1.41-0.11,2.66,0.25,3.63,1.43c-2.8,4.22-6.97,6.27-11.11,8.59
			c-12.89,7.24-25.25,15.54-38.46,22.17C3370.64,807.03,3365.5,809.81,3360.34,812.51z"/>
		<path class="st0" d="M3233,620.6c-1.82-0.1-3.65-0.21-5.47-0.31c12.36-4.43,24.76-8.76,37.07-13.32
			c18.54-6.87,37.1-13.68,55.24-21.71c0.74-0.33,1.6-0.38,2.4-0.56c0.13,0.45,0.26,0.89,0.39,1.34c-0.66,3.51-3.04,5.61-5.45,7.7
			c-13.94,6.76-28.62,11.48-42.82,17.58c-8.28,3.56-17.14,5.77-25.5,9.58C3243.91,623.13,3238.22,624.29,3233,620.6z"/>
		<path class="st0" d="M3214.68,624.12c-8.01,3.46-15.84,7.23-24.31,9.53c-14.54,3.96-28.99,8.39-43.24,13.42
			c-9.37,3.31-18.96,5.55-28.47,8.14c-3.98,1.09-7.75,2.62-11.59,4.03c-1.9,0.7-3.65,1.21-5.54,0.24c7.9-7.61,17.3-10.2,27.68-9.53
			c0.53,0.03,1.22,0.07,1.6-0.23c11.12-8.76,25.34-6.17,37.32-11.72c0.25-0.12,0.63-0.04,0.79-0.22c4.65-5.15,10.9-5.36,16.83-5.64
			c8.19-0.39,14.4-6.8,22.37-7.69C3210.33,624.22,3212.47,623.72,3214.68,624.12z"/>
		<path class="st0" d="M3124.77,1131.53c-0.09,0.8-0.18,1.6-0.27,2.4c-9.28-8.21-18.4-16.65-27.89-24.57
			c-15.95-13.31-32.55-25.64-50.15-36.36c1.63,0.03,3.86-0.68,4.78,0.2c5.4,5.19,13.2,5.41,18.49,10.64
			c10.4,10.27,23.65,16.52,33.32,28.02c3.46,4.12,8.58,7.14,13.04,10.48C3119.56,1124.92,3122.41,1127.88,3124.77,1131.53z"/>
		<path class="st0" d="M3317.34,996.11c-5.94-2.84-7.22-10.14-11.97-14.39c-0.61,6.4,5.57,10.16,5.2,16.3
			c-3.66-1.44-3.78-5.55-5.41-8.47c-2.36-4.24-5.46-8-7.91-11.9c-5.38-8.61-11.88-16.58-17.07-27.21
			c9.59,4.22,13.61,12.59,19.14,18.98c6.27,7.25,12.41,14.79,17.13,23.43C3316.97,993.78,3317.06,995.01,3317.34,996.11z"/>
		<path class="st0" d="M3488.01,2618.99c1.11,0.4,1.58,1.49,2.33,2.32c4.91,5.38,8.11,5.2,13.06,0.14c2.95-3.02,3.79-8.02,8.11-9.66
			c-5.61,13.41-14.76,23.68-25.78,34.68c-0.95-6.66-1.69-11.58,0.22-16.25C3487.44,2626.55,3487.31,2622.72,3488.01,2618.99z"/>
		<path class="st0" d="M2842.46,1437.54c0.05,0.72,0.1,1.45,0.16,2.17c-3.52,2.79-6.88,5.42-11.65,6
			c-4.21,0.51-8.55,1.74-11.89,5.46c-2.13,2.38-5.4,2.57-8.5,2.86c-5.73,0.53-11.29,1.24-16.16,5.58
			c-2.85,2.54-7.14,3.04-10.99,3.19c-5.78,0.22-11.58-0.01-17.36-0.06c2.8-3.97,7.21-2.18,10.72-2.93
			c14.57-3.15,28.42-8.71,42.62-13.09C2827.33,1444.26,2834.72,1440.44,2842.46,1437.54z"/>
		<path class="st0" d="M3425.41,773.66c-1.27-0.1-2.55-0.2-3.82-0.3c-0.2-4.89,3.15-7.66,6.22-9.64
			c13.45-8.66,25.5-19.84,40.39-25.9c0.06,1.28,0.12,2.55,0.19,3.83c-2.43,5.64-8.25,6.61-12.28,10.07
			C3446.48,759.94,3436.01,766.94,3425.41,773.66z"/>
		<path class="st0" d="M2840.73,739.87c6.94-1.9,13.54,1.55,20.42,1.47c20.11-0.25,39.91,2.68,59.34,8.17
			c3.33,0.94,7.32-0.83,10.01,2.69c-6.47,1.35-12.6-1.12-18.76-2.27c-21.72-4.06-43.74-5.22-65.54-8.39
			C2844.31,741.26,2842.3,741.36,2840.73,739.87z"/>
		<path class="st0" d="M3066.7,1183.24c6.94,0.01,12.89-2.34,17.7-8.98c-7.85-3.76-11.88-11-14.43-19.43
			c6.93,5.39,11.25,13.57,18.01,19.23c2.38,1.99,2.94,5.89,1.39,9.04c-1.33,2.71-4.36,2.74-6.65,2.28
			C3077.4,1184.34,3071.81,1185.77,3066.7,1183.24z"/>
		<path class="st0" d="M3515.84,479.32c0.81,0.13,1.63,0.25,2.44,0.38c-0.4,8.8-8.7,9.84-13.02,14.76
			c-4.83,5.49-11.69,8.65-17.8,12.56c-3.09,1.98-6.84,2.23-10.26,0.01c-0.34-0.38-0.67-0.75-1.01-1.12
			c4.32-3.88,9.37-6.86,14.13-9.71c6.93-4.16,13.38-8.77,19.61-13.95C3511.61,480.85,3513.86,480.27,3515.84,479.32z"/>
		<path class="st0" d="M2937.41,1482.98c-0.07-0.77-0.13-1.54-0.2-2.3c5.41-6.58,10.06-14.1,18.7-16.58
			c1.13-0.32,1.93-1.97,2.88-3.01c0.71,0.06,1.41,0.13,2.12,0.19c-0.26,0.81-0.3,1.96-0.83,2.37
			C2952.25,1469.73,2946.35,1478.4,2937.41,1482.98z"/>
		<path class="st0" d="M2673.39,2353.64c5.5-3.16,11.3-3.79,17.33-2.3c2.58,0.64,3.73,0.01,2.49-2.98c5.24,0.46,7.75,4.39,9.89,9.41
			C2693.61,2351.57,2683.38,2353.76,2673.39,2353.64z"/>
		<path class="st0" d="M2799,2376.96c6.51-0.03,6.51-0.08,6.82-6.18c0.17-3.45-0.74-6.94,0.4-10.34c2.94,7.65,1.62,15.69,1.87,23.58
			c0.04,1.17-0.33,2.42-1.64,2.66c-1.19,0.22-2.16-0.51-2.74-1.53C2802.16,2382.41,2799.6,2380.33,2799,2376.96z"/>
		<path class="st0" d="M2937.24,748.46c-3.71,1.52-7.13-0.48-10.25-1.76c-8.23-3.37-17.62-3.8-24.51-10.69
			C2914.33,739.33,2926.03,743.1,2937.24,748.46z"/>
		<path class="st0" d="M2930.6,752.22c1.6-0.15,3.22-0.51,4.81-0.4c2.8,0.19,2.16-1.65,1.93-3.33c5.42,0.61,10.33,2.75,15,6.09
			C2944.92,755.5,2937.72,754.3,2930.6,752.22z"/>
		<path class="st0" d="M3435.09,2601.08c-8.52,5.06-17.77,7.54-27.33,8.91c-1.87,0.27-3.78,0.12-5.68,0.17c0,0-0.45-0.51-0.45-0.51
			c-0.4-0.59-0.33-1.08,0.28-1.44c9.66-1.3,19.17-3.3,28.41-6.67C3431.86,2600.98,3433.44,2600.47,3435.09,2601.08z"/>
		<path class="st0" d="M2860.51,2563.89c8.85,7.18,16.66,15.48,23.36,24.98C2874.57,2582.18,2866.89,2573.73,2860.51,2563.89z"/>
		<path class="st0" d="M3294.05,2654.51c3.89,0.03,7.78,0.05,11.66,0.08c-2.98,2.84-6.91,2.14-10.29,2.47
			c-8.22,0.81-16.25,3.63-24.61,2.74c4.95-2.44,10.19-3.31,15.59-3.51C3289.02,2656.18,3291.91,2657.11,3294.05,2654.51z"/>
		<path class="st0" d="M3365.55,2642.29c1.53-2.84,4.13-3.48,6.86-3.78c6.65-0.75,12.92-3.95,19.76-3.43
			C3383.61,2638.79,3374.61,2640.67,3365.55,2642.29z"/>
		<path class="st0" d="M2902.39,735.99c-7.27-0.25-14.26-1.41-19.8-7.17C2889.5,730.23,2896.15,732.44,2902.39,735.99z"/>
		<path class="st0" d="M3446.88,2617.31c4.67-4.98,10.68-5.2,16.7-5.39C3458.47,2615.34,3452.89,2617.08,3446.88,2617.31z"/>
		<path class="st0" d="M2934.15,2588.24c-5.49-0.2-7.67-4.66-9.97-8.95C2928.53,2580.96,2931.32,2584.63,2934.15,2588.24z"/>
		<path class="st0" d="M3401.92,2608.2c0,0.5-0.09,0.99-0.28,1.45c-4.36,0.6-8.48,2.96-13.04,1.98
			C3392.69,2608.9,3397.14,2607.8,3401.92,2608.2z"/>
		<path class="st0" d="M3225.98,2638.41c-3.05,3.2-6.75,1.59-10.23,1.6C3218.83,2637.02,3222.45,2638.08,3225.98,2638.41z"/>
		<path class="st0" d="M3259.23,2661.7c2.92-3.34,6.62-1.57,10.02-1.77C3266.23,2662.62,3262.64,2661.57,3259.23,2661.7z"/>
		<path class="st0" d="M2165.28,1690.58c1.61-2.85,3.76-4.34,6.96-3.17C2170.39,1689.66,2168.13,1690.87,2165.28,1690.58z"/>
		<path class="st0" d="M2970.48,2613.39c-3.15,0.74-5.61,0.05-6.54-3.72C2966.69,2609.77,2968.79,2611.16,2970.48,2613.39z"/>
		<path class="st0" d="M2794.16,2369.73c2.94,0.48,3.97,2.38,3.45,5.4C2795.73,2373.87,2794.88,2371.85,2794.16,2369.73z"/>
		<path class="st0" d="M3388.55,2611.66c-1.63,3.07-4.18,2.1-6.59,1.71C3384.02,2612.21,3386.26,2611.83,3388.55,2611.66z"/>
		<path class="st0" d="M2117.27,1583.88c-1.08,2.19-2.86,2.35-4.85,1.96C2113.52,1583.68,2115.22,1583.29,2117.27,1583.88z"/>
		<path class="st0" d="M3327.1,582.62c0.1,0.76,0.2,1.53,0.29,2.29c-0.28,0.25-0.56,0.5-0.83,0.75c-1.45,0.59-2.83,0.64-4.07-0.56
			l-0.26-0.41C3323.47,582.94,3325.31,582.84,3327.1,582.62z"/>
		<path class="st0" d="M3118,962.41c6.97,6.31,15.28,10.74,21.66,17.87C3130.33,977.28,3122.75,971.83,3118,962.41z"/>
		<path class="st0" d="M3205.99,1051.45c6.1,3.91,9.53,10.27,13.12,16.48C3212.7,1064.3,3209.18,1058.02,3205.99,1051.45z"/>
		<path class="st0" d="M3435.18,1297.2c2.49,5.02,5.21,9.96,4.98,15.96C3435.13,1309.05,3435,1303.18,3435.18,1297.2z"/>
		<path class="st0" d="M2947.23,1206.35c-3.33-3.39-5.73-7.22-5.01-12.48C2947.39,1196.41,2947.46,1201.31,2947.23,1206.35z"/>
		<path class="st0" d="M3428.5,1270.49c2.19,4.57,5.06,8.87,4.85,14.37C3428.52,1281.32,3428.22,1276.02,3428.5,1270.49z"/>
		<path class="st0" d="M2948.7,1227.7c-3.09-6.91-0.81-14.26-1.49-21.37C2950.33,1213.24,2948.23,1220.57,2948.7,1227.7z"/>
		<path class="st0" d="M3249.29,1354.19c-3.42-2.72-3.18-7.35-4.95-10.93C3249.42,1345.12,3249.28,1349.7,3249.29,1354.19z"/>
		<path class="st0" d="M3109.46,955.38c3.37,1.67,5.94,4.43,8.6,7.09C3113.41,962.61,3110.71,960.02,3109.46,955.38z"/>
		<path class="st0" d="M3250.79,1366.65c-2.88-3.83-1.01-8.32-1.51-12.48C3252.13,1358,3250.43,1362.47,3250.79,1366.65z"/>
		<path class="st0" d="M3220.53,1069.49c2.79,1.5,4.03,4.35,5.35,7.12C3221.98,1076.07,3221,1073,3220.53,1069.49z"/>
		<path class="st0" d="M3426.9,1258.01c2.49,2.64,1.35,5.95,1.47,9.03C3425.95,1264.39,3427.12,1261.07,3426.9,1258.01z"/>
		<path class="st0" d="M3433.54,1286.51c1.82,1.41,1.59,3.46,1.47,5.48C3433.31,1290.53,3433.46,1288.51,3433.54,1286.51z"/>
		<path class="st0" d="M3420.2,1229.52c1.82,1.43,1.53,3.51,1.47,5.51C3419.97,1233.57,3420.12,1231.53,3420.2,1229.52z"/>
		<path d="M2225.34,2330.25c9.64-0.05,17.95,2.17,25.81,5.83c5.41,2.52,12.13,1.96,16.22,7.73c0.99,1.4,2.36,2.49,3.4,3.86
			c3,3.97,3.07,6.59-0.44,9.94c-2.86,2.73-6.11,5.07-9.42,7.15c-14.89,9.38-26.92,22.45-39.39,34.95c-2.39,2.4-4.26,5.41-6.28,8.21
			c-4.03,5.58-7.23,6.42-12.56,2.16c-8.66-6.92-15.34-14.79-14.19-28.02c0.83-9.51,1.79-18.7,5.03-27.71
			c3.54-9.84,10.64-15.55,18.45-20.67C2216.3,2330.84,2221.15,2329.67,2225.34,2330.25z"/>
		<path d="M1930.77,2451.17c-9.13,0-18.26,0.19-27.38-0.05c-9.2-0.24-15.04-6.54-13.24-16.14c4.32-22.97,2.03-46.14,3-69.19
			c0.36-8.61,1.05-17.17,1.99-25.71c2.23-20.39,1.68-40.9,1.91-61.35c0.12-10.56,3.76-14.96,14.16-14.67
			c18.46,0.51,37.18-0.61,55.14,5.25c15.31,5,30.4,10.82,42.72,22.56c11.7,11.15,18.3,24.65,18.64,41.84
			c0.29,14.64-1.36,29.05-3.1,43.43c-1.67,13.77-8.42,25.56-14.84,37.35c-9.59,17.63-24.94,27.17-41.9,34.35
			c-2.75,1.17-5.94,1.52-8.94,1.58c-9.39,0.2-18.78,0.07-28.17,0.07C1930.78,2450.72,1930.77,2450.95,1930.77,2451.17z"/>
		<path d="M2909.06,2393.17c-1.91-21.15,6.95-40.02,20.7-56.79c5.82-7.1,13.63-11.33,22.07-13.18c16.17-3.54,32.04-2.64,46.02,8.14
			c12.79,9.86,22.86,22.15,27.54,38.76c0.56,1.97,0.95,4.07,1.85,5.85c4.38,8.65,4.59,17.98,4.8,27.52
			c0.45,19.81-7.74,34.81-21.92,46.3c-6.57,5.33-13.82,9.84-21.17,13.9c-8.73,4.82-18.08,4.47-27.44,1.76
			c-23.39-6.76-39.49-22.77-49.83-45.73C2908.26,2412.08,2908.98,2403.48,2909.06,2393.17z"/>
		<path class="st0" d="M3477.21,507.03c6.48-0.3,11.46-3.75,17.06-7.09c6.49-3.87,10.96-10.23,17.62-13.52
			c2.72-1.35,4.74-3.94,6.4-6.71c3.43-1.79,7.27-2.77,9.86-6.2c1.23-1.62,2.98-2.78,5.04-2.67c3.77,0.21,5.71-2.96,8.49-4.71
			c6.29-3.96,10.93-10.04,17.19-14.07c3.9-2.51,6.85-6.79,10.02-10.48c1.28-1.49,1.98-3.53,3.84-4.5
			c17.99-9.45,29.57-26.68,43.51-41.09c4.04-4.18,8.53-7.82,12.32-12.39c3.07-3.69,5.35-8.13,9.45-10.98
			c1.93-1.34,3.03-4.18,2.88-7.06c2.8-3.53,5.61-7.06,8.41-10.59c3.83-2.47,6.3-6.53,9.66-9.55c2.86-2.57,5.14-2.08,5,1.42
			c-0.52,13.46,2.66,27.19-2.86,40.35c-2.6,6.2-4.18,12.84-3.71,19.86c0.3,4.53-0.62,9.05-2.85,12.79
			c-4.22,7.06-5.2,14.76-5.24,22.81c-0.02,3.86-0.07,7.71-0.13,11.57c-0.02,1.48,0.46,3.48-0.25,4.36
			c-5.66,7.13-4.96,17.4-10.51,24.43c-2.88,3.65-4.28,7.54-4.05,12.18c0.21,4.38-0.76,8.13-4.05,11.1c-3.49,3.16-3.4,8.01-4.1,12.25
			c-0.55,3.36-1.13,6.37-3.72,8.53c-2.59,2.16-3.87,5.33-4.09,8.48c-0.51,7.35-4.78,12.3-8.64,17.6c-0.51,0.7-1.37,1.18-1.68,1.95
			c-3.67,9.05-8.24,17.52-13,25.96c-1.75,3.1-2.56,6.94-5.25,9.63c-0.79,0.79-1.76,1.83-1.88,2.86c-0.86,7.38-6.28,12.14-9.06,18.43
			c-2.11,4.77-4.84,9.39-9.9,11.47c-2.48,1.02-4.28,2.77-4.69,5.71c-1.23,8.93-8.06,13.59-13.1,19.5
			c-9.19,10.76-19.31,20.56-28.12,31.77c-3.62,4.61-8.01,8.77-11.7,13.28c-4.83,5.91-12.08,9.38-15.02,17.11
			c-1.84,1.75-3.54,3.66-5.24,5.56c-3.85,2.86-8.08,5.32-9.63,10.6c-1.21,1.97-3.65,0.36-4.98,1.97l0.03-0.03
			c-3.31,2.42-6.04,5.46-8.38,8.93c0,0,0-0.04,0-0.04c-2.7,4.26-5.78,7.27-11.17,7.75c-4.42,0.39-7.12,5.24-10.62,7.96
			c-8.34,6.5-18.69,10.19-24.82,19.84c-3.22,4.28-7.46,6.7-12.39,7.84c-3.91,0.9-6.65,4.01-9.97,5.94
			c-4.7,2.73-10.15,3.8-13.48,9.14c-0.83,1.34-3.48,1.68-5.35,1.92c-5.07,0.65-9.71,2.06-13.24,6.36c-1.32,1.6-3.05,2.47-5.1,2.6
			c-1.65,0.1-3.84-0.08-4.64,1.42c-3.85,7.26-10.82,6.48-16.78,7.23c-8.48,1.06-17.09,0.61-25.26-2.85l-0.01-0.01
			c-0.73-2.71-2.69-4.19-4.8-5.52c-3.69-1.24-5.39-4.93-7.99-7.52c-15.52-15.44-31.72-29.99-48.25-44.2
			c-17.45-15-36.25-27.75-55.47-39.61c-19.46-12.01-39.57-22.96-60.37-32.25c-5.79-2.58-11.18-6.16-17.27-7.99
			c-5.63-4.56-13.33-4.93-19.12-11.7c8.69,0.43,14.45-7.01,22.21-7.75c6.57-0.62,13.05-2.11,19.65-2.22
			c2.52-0.04,5.34,0.09,7.09-1.8c4.46-4.82,10.06-5.12,15.78-6.05c4.69-0.77,9.99-0.73,13.28-5.88c1.53-2.39,4.35-2.24,6.84-2.31
			c8.07-0.21,15.96-0.86,22.24-7.42c0.87-0.91,2.55-1.41,3.8-1.32c8.07,0.63,14.19-3.62,19.99-8.81c9.1-0.26,18.18-0.55,25.59-7.51
			c1.53-1.44,3.53-1.45,5.46-1.58c1.91-0.12,4.01,0.1,5.69-0.67c9.17-4.19,17.96-9.47,28.15-10.52c5.47-5.44,12.58-6.54,19.39-8.44
			c3.38-2.3,5.81-6.15,10.06-7.02c0,0,0.06,0.05,0.06,0.06c3.31-0.07,6.61-0.22,9.91-0.17c3.15,0.04,5.97-0.33,7.78-3.69
			c1.86-3.45,5.43-4.4,8.54-4.66c4.7-0.39,8.36-2.63,11.91-5.42c2.48-1.95,5.66-2.55,8.02-4.18c7.37-5.1,15.96-7.24,23.37-11.89
			c3.56-2.23,7.26-3.9,10.84-5.93c8.81-4.99,19.19-6.6,26.73-14.28c1.27-1.29,2.99-1.4,4.48-2.08
			c11.49-5.28,22.36-11.82,32.94-18.89C3474.25,512.17,3476.08,509.83,3477.21,507.03z"/>
		<path class="st0" d="M3468.19,737.85c0.99-4.93,3.77-7.92,8.38-8.93C3474.5,732.67,3471.75,735.69,3468.19,737.85z"/>
		<path class="st0" d="M3491.16,716.37c0.67-3.02,2.37-4.92,5.24-5.55C3495.58,713.68,3493.87,715.57,3491.16,716.37z"/>
		<path class="st0" d="M3476.55,728.95c1.21-1.98,3.23-1.59,4.98-1.97C3480.48,729.4,3478.43,728.93,3476.55,728.95z"/>
		<path class="st0" d="M3310.58,807.42c3.34,0.1,5.04,1.84,4.8,5.52C3313.25,811.63,3311.4,810.04,3310.58,807.42z"/>
		<path class="st0" d="M3327.34,584.85c-3.48,2.13-5.48,6.7-10.06,7.02c1.05-2.87,3.7-4.31,5.21-6.77
			C3324.11,585.02,3325.72,584.93,3327.34,584.85z"/>
	</g>
</g>
</svg>
